{
copyright = "Copyright (c) 2022 by Thanos Poulakidas. All rights reserved.";
familyName = "Geom ";
customParameters = (
{
name = glyphOrder;
value = (
.notdef,
null,
nonmarkingreturn,
space,
exclam,
quotedbl,
numbersign,
dollar,
percent,
ampersand,
quotesingle,
parenleft,
parenright,
asterisk,
plus,
comma,
hyphen,
period,
slash,
zero,
one,
two,
three,
four,
five,
six,
seven,
eight,
nine,
colon,
semicolon,
less,
equal,
greater,
question,
at,
A,
B,
C,
D,
E,
F,
G,
H,
J,
K,
L,
M,
N,
O,
P,
Q,
R,
S,
T,
U,
V,
W,
X,
Y,
Z,
bracketleft,
backslash,
bracketright,
asciicircum,
underscore,
grave,
a,
b,
c,
d,
e,
f,
g,
h,
i,
j,
k,
l,
m,
n,
o,
p,
q,
r,
s,
t,
u,
v,
w,
x,
y,
z,
braceleft,
bar,
braceright,
asciitilde,
uni00A0,
exclamdown,
cent,
sterling,
currency,
yen,
brokenbar,
section,
dieresis,
copyright,
ordfeminine,
guillemotleft,
logicalnot,
uni00AD,
registered,
degree,
plusminus,
twosuperior,
threesuperior,
acute,
uni00B5,
paragraph,
periodcentered,
cedilla,
onesuperior,
ordmasculine,
guillemotright,
onequarter,
onehalf,
threequarters,
questiondown,
Agrave,
Aacute,
Acircumflex,
Atilde,
Adieresis,
Aring,
AE,
Ccedilla,
Egrave,
Eacute,
Ecircumflex,
Edieresis,
Eth,
Ntilde,
Ograve,
Oacute,
Ocircumflex,
Otilde,
Odieresis,
multiply,
Oslash,
Ugrave,
Uacute,
Ucircumflex,
Udieresis,
Yacute,
Thorn,
germandbls,
agrave,
aacute,
acircumflex,
atilde,
adieresis,
aring,
ae,
ccedilla,
egrave,
eacute,
ecircumflex,
edieresis,
igrave,
iacute,
icircumflex,
idieresis,
eth,
ntilde,
ograve,
oacute,
ocircumflex,
otilde,
odieresis,
divide,
oslash,
ugrave,
uacute,
ucircumflex,
udieresis,
yacute,
thorn,
ydieresis,
Amacron,
amacron,
Abreve,
abreve,
Aogonek,
aogonek,
Cacute,
cacute,
Ccircumflex,
ccircumflex,
Cdotaccent,
cdotaccent,
Ccaron,
ccaron,
Dcaron,
dcaron,
Dcroat,
dcroat,
Emacron,
emacron,
Ebreve,
ebreve,
Edotaccent,
edotaccent,
Eogonek,
eogonek,
Ecaron,
ecaron,
Gcircumflex,
gcircumflex,
Gbreve,
gbreve,
Gdotaccent,
gdotaccent,
uni0122,
uni0123,
Hcircumflex,
hcircumflex,
itilde,
imacron,
ibreve,

glyphs = (
{
glyphname = .notdef;
layers = (
{
hints = (
{
horizontal = 1;
place = "{0, 57}";
type = Stem;
},
{
horizontal = 1;
place = "{663, 57}";
type = Stem;
},
{
place = "{-6, 65}";
type = Stem;
},
{
place = "{454, 65}";
type = Stem;
}
);
layerId = "89E2520C-A138-4547-B47C-84DD62C3AEAF";
paths = (
{
closed = 1;
nodes = (
"-6 0 LINE",
"519 0 LINE",
"519 720 LINE",
"-6 720 LINE"
);
},
{
closed = 1;
nodes = (
"256 419 LINE",
"91 663 LINE",
"421 663 LINE"
);
},
{
closed = 1;
nodes = (
"59 600 LINE",
"219 360 LINE",
"59 123 LINE"
);
},
{
closed = 1;
nodes = (
"294 360 LINE",
"454 599 LINE",
"454 123 LINE"
);
},
{
closed = 1;
nodes = (
"91 57 LINE",
"256 303 LINE",
"421 57 LINE"
);
}
);
width = 515;
}
);
},
{
glyphname = exclam;
layers = (
{
hints = (
{
place = "{85, 119}";
type = Stem;
},
{
place = "{106, 76}";
type = Stem;
},
{
horizontal = 1;
place = "{-10, 119}";
type = Stem;
},
{
horizontal = 1;
place = "{705, -20}";
target = down;
type = TopGhost;
}
);
layerId = "89E2520C-A138-4547-B47C-84DD62C3AEAF";
paths = (
{
closed = 1;
nodes = (
"95 705 LINE",
"117 203 LINE",
"172 203 LINE",
"193 705 LINE"
);
},
{
closed = 1;
nodes = (
"85 14 OFFCURVE",
"112 -10 OFFCURVE",
"145 -10 CURVE SMOOTH",
"178 -10 OFFCURVE",
"204 14 OFFCURVE",
"204 50 CURVE SMOOTH",
"204 81 OFFCURVE",
"178 109 OFFCURVE",
"145 109 CURVE SMOOTH",
"113 109 OFFCURVE",
"85 81 OFFCURVE",
"85 50 CURVE SMOOTH"
);
}
);
width = 290;
}
);
unicode = 0021;
},
{
glyphname = quotedbl;
layers = (
{
hints = (
{
place = "{71, 296}";
type = Stem;
},
{
horizontal = 1;
place = "{443, 265}";
type = Stem;
},
{
horizontal = 1;
place = "{708, -20}";
target = down;
type = TopGhost;
}
);
layerId = "89E2520C-A138-4547-B47C-84DD62C3AEAF";
paths = (
{
closed = 1;
nodes = (
"126 443 LINE",
"188 708 LINE",
"97 708 LINE",
"71 443 LINE"
);
},
{
closed = 1;
nodes = (
"250 443 LINE",
"305 443 LINE",
"367 708 LINE",
"276 708 LINE"
);
}
);
width = 437;
}
);
unicode = 0022;
},
{
glyphname = numbersign;
layers = (
{
hints = (
{
horizontal = 1;
place = "{0, 21}";
target = up;
type = BottomGhost;
},
{
horizontal = 1;
place = "{194, 72}";
type = Stem;
},
{
horizontal = 1;
place = "{446, 72}";
type = Stem;
},
{
horizontal = 1;
place = "{706, -20}";
target = down;
type = TopGhost;
},
{
place = "{23, 563}";
type = Stem;
}
);
layerId = "89E2520C-A138-4547-B47C-84DD62C3AEAF";
paths = (
{
closed = 1;
nodes = (
"98 0 LINE",
"171 0 LINE",
"200 194 LINE",
"363 194 LINE",
"335 0 LINE",
"408 0 LINE",
"436 194 LINE",
"553 194 LINE",
"553 266 LINE",
"447 266 LINE",
"476 446 LINE",
"586 446 LINE",
"586 518 LINE",
"487 518 LINE",
"513 706 LINE",
"441 706 LINE",
"414 518 LINE",
"251 518 LINE",
"278 706 LINE",
"206 706 LINE",
"177 518 LINE",
"56 518 LINE",
"56 446 LINE",
"167 446 LINE",
"139 266 LINE",
"23 266 LINE",
"23 195 LINE",
"128 195 LINE"
);
},
{
closed = 1;
nodes = (
"403 446 LINE",
"374 266 LINE",
"211 266 LINE",
"239 446 LINE"
);
}
);
width = 608;
}
);
unicode = 0023;
},
{
glyphname = dollar;
layers = (
{
hints = (
{
place = "{60, 82}";
type = Stem;
},
{
place = "{254, 65}";
type = Stem;
},
{
place = "{437, 82}";
type = Stem;
},
{
horizontal = 1;
place = "{-4, 69}";
type = Stem;
},
{
horizontal = 1;
place = "{638, 73}";
type = Stem;
},
{
horizontal = 1;
place = "{638, 139}";
type = Stem;
},
{
horizontal = 1;
place = "{710, -20}";
target = down;
type = TopGhost;
},
{
horizontal = 1;
place = "{711, -20}";
target = down;
type = TopGhost;
}
);
layerId = "89E2520C-A138-4547-B47C-84DD62C3AEAF";
paths = (
{
closed = 1;
nodes = (
"254 -95 LINE",
"319 -95 LINE",
"319 -4 LINE",
"435 9 OFFCURVE",
"519 86 OFFCURVE",
"519 192 CURVE SMOOTH",
"519 283 OFFCURVE",
"457 340 OFFCURVE",
"318 389 CURVE",
"318 638 LINE",
"366 633 OFFCURVE",
"409 607 OFFCURVE",
"433 572 CURVE",
"484 624 LINE",
"456 663 OFFCURVE",
"407 703 OFFCURVE",
"319 711 CURVE",
"319 777 LINE",
"254 777 LINE",
"254 710 LINE",
"145 699 OFFCURVE",
"60 628 OFFCURVE",
"60 525 CURVE SMOOTH",
"60 423 OFFCURVE",
"134 365 OFFCURVE",
"254 322 CURVE",
"254 65 LINE",
"179 69 OFFCURVE",
"122 107 OFFCURVE",
"79 151 CURVE",
"31 98 LINE",
"82 42 OFFCURVE",
"158 -4 OFFCURVE",
"254 -4 CURVE"
);
},
{
closed = 1;
nodes = (
"142 591 OFFCURVE",
"181 632 OFFCURVE",
"254 640 CURVE",
"254 412 LINE",
"186 443 OFFCURVE",
"142 473 OFFCURVE",
"142 534 CURVE SMOOTH"
);
},
{
closed = 1;
nodes = (
"437 122 OFFCURVE",
"400 78 OFFCURVE",
"319 66 CURVE",
"319 302 LINE",
"418 270 OFFCURVE",
"437 219 OFFCURVE",
"437 179 CURVE SMOOTH"
);
}
);
width = 564;
}
);
unicode = 0024;
},
{
glyphname = percent;
layers = (
{
hints = (
{
place = "{44, 67}";
type = Stem;
},
{
place = "{308, 67}";
type = Stem;
},
{
place = "{464, 67}";
type = Stem;
},
{
place = "{727, 67}";
type = Stem;
},
{
horizontal = 1;
place = "{-11, 60}";
type = Stem;
},
{
horizontal = 1;
place = "{-4, 21}";
target = up;
type = BottomGhost;
},
{
horizontal = 1;
place = "{288, 60}";
type = Stem;
},
{
horizontal = 1;
place = "{361, 60}";
type = Stem;
},
{
horizontal = 1;
place = "{663, 60}";
type = Stem;
},
{
horizontal = 1;
place = "{709, -20}";
target = down;
type = TopGhost;
}
);
layerId = "89E2520C-A138-4547-B47C-84DD62C3AEAF";
paths = (
{
closed = 1;
nodes = (
"375 644 OFFCURVE",
"310 723 OFFCURVE",
"210 723 CURVE SMOOTH",
"114 723 OFFCURVE",
"44 643 OFFCURVE",
"44 543 CURVE SMOOTH",
"44 441 OFFCURVE",
"111 361 OFFCURVE",
"209 361 CURVE SMOOTH",
"308 361 OFFCURVE",
"375 443 OFFCURVE",
"375 544 CURVE SMOOTH"
);
},
{
closed = 1;
nodes = (
"690 709 LINE",
"624 723 LINE",
"142 -4 LINE",
"208 -19 LINE"
);
},
{
closed = 1;
nodes = (
"308 471 OFFCURVE",
"273 421 OFFCURVE",
"210 421 CURVE SMOOTH",
"150 421 OFFCURVE",
"111 470 OFFCURVE",
"111 543 CURVE SMOOTH",
"111 612 OFFCURVE",
"149 663 OFFCURVE",
"209 663 CURVE SMOOTH",
"265 663 OFFCURVE",
"308 615 OFFCURVE",
"308 539 CURVE SMOOTH"
);
},
{
closed = 1;
nodes = (
"794 269 OFFCURVE",
"728 348 OFFCURVE",
"629 348 CURVE SMOOTH",
"534 348 OFFCURVE",
"464 269 OFFCURVE",
"464 168 CURVE SMOOTH",
"464 69 OFFCURVE",
"528 -11 OFFCURVE",
"628 -11 CURVE SMOOTH",
"727 -11 OFFCURVE",
"794 69 OFFCURVE",
"794 169 CURVE SMOOTH"
);
},
{
closed = 1;
nodes = (
"727 100 OFFCURVE",
"690 49 OFFCURVE",
"629 49 CURVE SMOOTH",
"573 49 OFFCURVE",
"531 93 OFFCURVE",
"531 168 CURVE SMOOTH",
"531 240 OFFCURVE",
"568 288 OFFCURVE",
"628 288 CURVE SMOOTH",
"687 288 OFFCURVE",
"727 240 OFFCURVE",
"727 168 CURVE SMOOTH"
);
}
);
width = 838;
}
);
unicode = 0025;
},
{
glyphname = ampersand;
layers = (
{
hints = (
{
place = "{55, 87}";
type = Stem;
},
{
place = "{156, 80}";
type = Stem;
},
{
place = "{420, 80}";
type = Stem;
},
{
horizontal = 1;
place = "{-11, 68}";
type = Stem;
},
{
horizontal = 1;
place = "{-5, 21}";
target = up;
type = BottomGhost;
},
{
horizontal = 1;
place = "{651, 68}";
type = Stem;
}
);
layerId = "89E2520C-A138-4547-B47C-84DD62C3AEAF";
paths = (
{
closed = 1;
nodes = (
"580 371 LINE",
"556 315 OFFCURVE",
"530 268 OFFCURVE",
"497 217 CURVE",
"343 388 LINE",
"436 427 OFFCURVE",
"500 479 OFFCURVE",
"500 568 CURVE SMOOTH",
"500 651 OFFCURVE",
"430 719 OFFCURVE",
"330 719 CURVE SMOOTH",
"231 719 OFFCURVE",
"156 656 OFFCURVE",
"156 561 CURVE SMOOTH",
"156 505 OFFCURVE",
"184 457 OFFCURVE",
"225 406 CURVE",
"118 366 OFFCURVE",
"55 296 OFFCURVE",
"55 192 CURVE SMOOTH",
"55 68 OFFCURVE",
"152 -11 OFFCURVE",
"277 -11 CURVE SMOOTH",
"366 -11 OFFCURVE",
"432 27 OFFCURVE",
"493 91 CURVE",
"586 -5 LINE",
"678 12 LINE",
"545 158 LINE",
"585 217 OFFCURVE",
"621 280 OFFCURVE",
"653 347 CURVE"
);
},
{
closed = 1;
nodes = (
"380 651 OFFCURVE",
"420 616 OFFCURVE",
"420 563 CURVE SMOOTH",
"420 508 OFFCURVE",
"368 463 OFFCURVE",
"301 438 CURVE",
"261 485 OFFCURVE",
"236 523 OFFCURVE",
"236 562 CURVE SMOOTH",
"236 615 OFFCURVE",
"276 651 OFFCURVE",
"329 651 CURVE SMOOTH"
);
},
{
closed = 1;
nodes = (
"445 150 LINE",
"402 97 OFFCURVE",
"349 57 OFFCURVE",
"282 57 CURVE SMOOTH",
"198 57 OFFCURVE",
"142 119 OFFCURVE",
"142 196 CURVE SMOOTH",
"142 268 OFFCURVE",
"187 317 OFFCURVE",
"267 352 CURVE"
);
}
);
width = 684;
}
);
unicode = 0026;
},
{
glyphname = quotesingle;
layers = (
{
hints = (
{
horizontal = 1;
place = "{708, -20}";
target = down;
type = TopGhost;
},
{
place = "{71, 117}";
type = Stem;
}
);
layerId = "89E2520C-A138-4547-B47C-84DD62C3AEAF";
paths = (
{
closed = 1;
nodes = (
"71 443 LINE",
"126 443 LINE",
"188 708 LINE",
"96 708 LINE"
);
}
);
width = 259;
}
);
unicode = 0027;
},
{
glyphname = parenleft;
layers = (
{
hints = (
{
horizontal = 1;
place = "{-164, 901}";
type = Stem;
},
{
place = "{76, 82}";
type = Stem;
}
);
layerId = "89E2520C-A138-4547-B47C-84DD62C3AEAF";
paths = (
{
closed = 1;
nodes = (
"158 443 OFFCURVE",
"220 565 OFFCURVE",
"345 686 CURVE",
"301 737 LINE",
"154 609 OFFCURVE",
"76 464 OFFCURVE",
"76 284 CURVE SMOOTH",
"76 101 OFFCURVE",
"161 -49 OFFCURVE",
"303 -164 CURVE",
"344 -114 LINE",
"219 7 OFFCURVE",
"158 127 OFFCURVE",
"158 284 CURVE SMOOTH"
);
}
);
width = 396;
}
);
unicode = 0028;
},
{
glyphname = parenright;
layers = (
{
hints = (
{
horizontal = 1;
place = "{-164, 901}";
type = Stem;
},
{
place = "{240, 82}";
type = Stem;
}
);
layerId = "89E2520C-A138-4547-B47C-84DD62C3AEAF";
paths = (
{
closed = 1;
nodes = (
"240 131 OFFCURVE",
"183 7 OFFCURVE",
"52 -114 CURVE",
"95 -164 LINE",
"237 -43 OFFCURVE",
"322 103 OFFCURVE",
"322 284 CURVE SMOOTH",
"322 462 OFFCURVE",
"243 606 OFFCURVE",
"96 737 CURVE",
"51 686 LINE",
"184 565 OFFCURVE",
"240 439 OFFCURVE",
"240 284 CURVE SMOOTH"
);
}
);
width = 398;
}
);
unicode = 0029;
},
{
glyphname = asterisk;
layers = (
{
hints = (
{
horizontal = 1;
place = "{440, 285}";
type = Stem;
},
{
place = "{147, 61}";
type = Stem;
}
);
layerId = "89E2520C-A138-4547-B47C-84DD62C3AEAF";
paths = (
{
closed = 1;
nodes = (
"128 608 LINE",
"28 573 LINE",
"48 515 LINE",
"147 549 LINE",
"147 440 LINE",
"208 440 LINE",
"208 548 LINE",
"306 515 LINE",
"325 573 LINE",
"228 607 LINE",
"289 693 LINE",
"239 725 LINE",
"178 644 LINE",
"115 725 LINE",
"65 690 LINE"
);
}
);
width = 353;
}
);
unicode = 002A;
},
{
glyphname = plus;
layers = (
{
hints = (
{
horizontal = 1;
place = "{308, 74}";
type = Stem;
},
{
place = "{253, 77}";
type = Stem;
}
);
layerId = "89E2520C-A138-4547-B47C-84DD62C3AEAF";
paths = (
{
closed = 1;
nodes = (
"330 589 LINE",
"253 589 LINE",
"253 382 LINE",
"47 382 LINE",
"47 308 LINE",
"253 308 LINE",
"253 100 LINE",
"330 100 LINE",
"330 308 LINE",
"538 308 LINE",
"538 382 LINE",
"330 382 LINE"
);
}
);
width = 585;
}
);
unicode = 002B;
},
{
glyphname = comma;
layers = (
{
hints = (
{
horizontal = 1;
place = "{-139, 259}";
type = Stem;
},
{
place = "{35, 143}";
type = Stem;
}
);
layerId = "89E2520C-A138-4547-B47C-84DD62C3AEAF";
paths = (
{
closed = 1;
nodes = (
"178 120 LINE",
"79 120 LINE",
"35 -139 LINE",
"104 -139 LINE"
);
}
);
width = 252;
}
);
unicode = 002C;
},
{
glyphname = hyphen;
layers = (
{
hints = (
{
horizontal = 1;
place = "{234, 77}";
type = Stem;
},
{
place = "{31, 271}";
type = Stem;
}
);
layerId = "89E2520C-A138-4547-B47C-84DD62C3AEAF";
paths = (
{
closed = 1;
nodes = (
"302 311 LINE",
"31 311 LINE",
"31 234 LINE",
"302 234 LINE"
);
}
);
width = 333;
}
);
unicode = 002D;
},
{
glyphname = period;
layers = (
{
hints = (
{
horizontal = 1;
place = "{-10, 120}";
type = Stem;
},
{
place = "{85, 119}";
type = Stem;
}
);
layerId = "89E2520C-A138-4547-B47C-84DD62C3AEAF";
paths = (
{
closed = 1;
nodes = (
"85 18 OFFCURVE",
"112 -10 OFFCURVE",
"145 -10 CURVE SMOOTH",
"177 -10 OFFCURVE",
"204 18 OFFCURVE",
"204 50 CURVE SMOOTH",
"204 83 OFFCURVE",
"177 110 OFFCURVE",
"145 110 CURVE SMOOTH",
"112 110 OFFCURVE",
"85 83 OFFCURVE",
"85 50 CURVE SMOOTH"
);
}
);
width = 290;
}
);
unicode = 002E;
},
{
glyphname = slash;
layers = (
{
hints = (
{
horizontal = 1;
place = "{-90, 873}";
type = Stem;
},
{
place = "{2, 498}";
type = Stem;
}
);
layerId = "89E2520C-A138-4547-B47C-84DD62C3AEAF";
paths = (
{
closed = 1;
nodes = (
"500 768 LINE",
"431 783 LINE",
"2 -77 LINE",
"70 -90 LINE"
);
}
);
width = 502;
}
);
unicode = 002F;
},
{
glyphname = zero;
layers = (
{
hints = (
{
horizontal = 1;
place = "{-14, 76}";
type = Stem;
},
{
horizontal = 1;
place = "{643, 76}";
type = Stem;
},
{
place = "{44, 87}";
type = Stem;
},
{
place = "{489, 87}";
type = Stem;
}
);
layerId = "89E2520C-A138-4547-B47C-84DD62C3AEAF";
paths = (
{
closed = 1;
nodes = (
"136 719 OFFCURVE",
"44 567 OFFCURVE",
"44 354 CURVE SMOOTH",
"44 130 OFFCURVE",
"136 -14 OFFCURVE",
"309 -14 CURVE SMOOTH",
"485 -14 OFFCURVE",
"576 139 OFFCURVE",
"576 352 CURVE SMOOTH",
"576 571 OFFCURVE",
"483 719 OFFCURVE",
"310 719 CURVE SMOOTH"
);
},
{
closed = 1;
nodes = (
"424 643 OFFCURVE",
"489 524 OFFCURVE",
"489 352 CURVE SMOOTH",
"489 184 OFFCURVE",
"425 62 OFFCURVE",
"311 62 CURVE SMOOTH",
"194 62 OFFCURVE",
"131 178 OFFCURVE",
"131 357 CURVE SMOOTH",
"131 522 OFFCURVE",
"195 643 OFFCURVE",
"309 643 CURVE SMOOTH"
);
}
);
width = 619;
}
);
unicode = 0030;
},
{
glyphname = one;
layers = (
{
hints = (
{
horizontal = 1;
place = "{0, 21}";
target = up;
type = BottomGhost;
},
{
horizontal = 1;
place = "{630, 78}";
type = Stem;
},
{
place = "{116, 84}";
type = Stem;
}
);
layerId = "89E2520C-A138-4547-B47C-84DD62C3AEAF";
paths = (
{
closed = 1;
nodes = (
"200 708 LINE",
"8 708 LINE",
"8 630 LINE",
"116 630 LINE",
"116 0 LINE",
"200 0 LINE"
);
}
);
width = 309;
}
);
unicode = 0031;
},
{
glyphname = two;
layers = (
{
hints = (
{
horizontal = 1;
place = "{0, 76}";
type = Stem;
},
{
horizontal = 1;
place = "{642, 76}";
type = Stem;
},
{
place = "{409, 89}";
type = Stem;
}
);
layerId = "89E2520C-A138-4547-B47C-84DD62C3AEAF";
paths = (
{
closed = 1;
nodes = (
"152 718 OFFCURVE",
"71 655 OFFCURVE",
"47 513 CURVE",
"140 513 LINE",
"153 589 OFFCURVE",
"200 642 OFFCURVE",
"285 642 CURVE SMOOTH",
"377 642 OFFCURVE",
"409 589 OFFCURVE",
"409 536 CURVE SMOOTH",
"409 480 OFFCURVE",
"373 414 OFFCURVE",
"289 310 CURVE SMOOTH",
"35 0 LINE",
"512 0 LINE",
"512 76 LINE",
"196 76 LINE",
"355 266 LINE SMOOTH",
"456 385 OFFCURVE",
"498 458 OFFCURVE",
"498 528 CURVE SMOOTH",
"498 636 OFFCURVE",
"406 718 OFFCURVE",
"284 718 CURVE SMOOTH"
);
}
);
width = 584;
}
);
unicode = 0032;
},
{
glyphname = three;
layers = (
{
hints = (
{
horizontal = 1;
place = "{-13, 76}";
type = Stem;
},
{
horizontal = 1;
place = "{377, 65}";
type = Stem;
},
{
horizontal = 1;
place = "{642, 76}";
type = Stem;
},
{
place = "{452, 85}";
type = Stem;
}
);
layerId = "89E2520C-A138-4547-B47C-84DD62C3AEAF";
paths = (
{
closed = 1;
nodes = (
"508 644 LINE",
"508 718 LINE",
"96 718 LINE",
"96 642 LINE",
"402 642 LINE",
"190 415 LINE",
"201 370 LINE",
"225 375 OFFCURVE",
"249 377 OFFCURVE",
"273 377 CURVE SMOOTH",
"373 377 OFFCURVE",
"452 334 OFFCURVE",
"452 221 CURVE SMOOTH",
"452 123 OFFCURVE",
"384 63 OFFCURVE",
"296 63 CURVE SMOOTH",
"207 63 OFFCURVE",
"155 114 OFFCURVE",
"124 206 CURVE",
"55 156 LINE",
"91 56 OFFCURVE",
"175 -13 OFFCURVE",
"295 -13 CURVE SMOOTH",
"434 -13 OFFCURVE",
"537 93 OFFCURVE",
"537 225 CURVE SMOOTH",
"537 360 OFFCURVE",
"441 439 OFFCURVE",
"313 442 CURVE"
);
}
);
width = 609;
}
);
unicode = 0033;
},
{
glyphname = four;
layers = (
{
hints = (
{
place = "{403, 82}";
type = Stem;
},
{
horizontal = 1;
place = "{0, 21}";
target = up;
type = BottomGhost;
},
{
horizontal = 1;
place = "{153, 73}";
type = Stem;
},
{
horizontal = 1;
place = "{635, 77}";
type = Stem;
},
{
horizontal = 1;
place = "{712, -20}";
target = down;
type = TopGhost;
}
);
layerId = "89E2520C-A138-4547-B47C-84DD62C3AEAF";
paths = (
{
closed = 1;
nodes = (
"358 712 LINE",
"13 229 LINE",
"29 153 LINE",
"403 153 LINE",
"403 0 LINE",
"485 0 LINE",
"485 153 LINE",
"583 153 LINE",
"583 226 LINE",
"485 226 LINE",
"485 712 LINE"
);
},
{
closed = 1;
nodes = (
"403 226 LINE",
"110 226 LINE",
"403 635 LINE"
);
}
);
width = 619;
}
);
unicode = 0034;
},
{
glyphname = five;
layers = (
{
hints = (
{
horizontal = 1;
place = "{-13, 75}";
type = Stem;
},
{
horizontal = 1;
place = "{369, 75}";
type = Stem;
},
{
horizontal = 1;
place = "{630, 75}";
type = Stem;
},
{
place = "{412, 85}";
type = Stem;
}
);
layerId = "89E2520C-A138-4547-B47C-84DD62C3AEAF";
paths = (
{
closed = 1;
nodes = (
"136 350 LINE",
"168 362 OFFCURVE",
"199 369 OFFCURVE",
"234 369 CURVE SMOOTH",
"335 369 OFFCURVE",
"412 306 OFFCURVE",
"412 218 CURVE SMOOTH",
"412 126 OFFCURVE",
"349 62 OFFCURVE",
"245 62 CURVE SMOOTH",
"178 62 OFFCURVE",
"121 91 OFFCURVE",
"72 139 CURVE",
"23 83 LINE",
"87 23 OFFCURVE",
"149 -13 OFFCURVE",
"245 -13 CURVE SMOOTH",
"397 -13 OFFCURVE",
"497 81 OFFCURVE",
"497 222 CURVE SMOOTH",
"497 358 OFFCURVE",
"389 444 OFFCURVE",
"256 444 CURVE SMOOTH",
"219 444 OFFCURVE",
"188 436 OFFCURVE",
"149 424 CURVE",
"171 630 LINE",
"467 630 LINE",
"474 705 LINE",
"103 705 LINE",
"71 381 LINE"
);
}
);
width = 562;
}
);
unicode = 0035;
},
{
glyphname = six;
layers = (
{
hints = (
{
horizontal = 1;
place = "{-14, 72}";
type = Stem;
},
{
horizontal = 1;
place = "{360, 68}";
type = Stem;
},
{
horizontal = 1;
place = "{706, -20}";
target = down;
type = TopGhost;
},
{
place = "{49, 86}";
type = Stem;
},
{
place = "{452, 86}";
type = Stem;
}
);
layerId = "89E2520C-A138-4547-B47C-84DD62C3AEAF";
paths = (
{
closed = 1;
nodes = (
"317 706 LINE",
"146 447 LINE SMOOTH",
"83 352 OFFCURVE",
"49 295 OFFCURVE",
"49 224 CURVE SMOOTH",
"49 75 OFFCURVE",
"160 -14 OFFCURVE",
"296 -14 CURVE SMOOTH",
"433 -14 OFFCURVE",
"538 82 OFFCURVE",
"538 215 CURVE SMOOTH",
"538 346 OFFCURVE",
"438 428 OFFCURVE",
"315 428 CURVE SMOOTH",
"275 428 OFFCURVE",
"244 426 OFFCURVE",
"206 399 CURVE",
"412 706 LINE"
);
},
{
closed = 1;
nodes = (
"135 292 OFFCURVE",
"199 360 OFFCURVE",
"295 360 CURVE SMOOTH",
"388 360 OFFCURVE",
"452 298 OFFCURVE",
"452 213 CURVE SMOOTH",
"452 122 OFFCURVE",
"387 58 OFFCURVE",
"295 58 CURVE SMOOTH",
"206 58 OFFCURVE",
"135 125 OFFCURVE",
"135 209 CURVE SMOOTH"
);
}
);
width = 590;
}
);
unicode = 0036;
},
{
glyphname = seven;
layers = (
{
hints = (
{
horizontal = 1;
place = "{0, 21}";
target = up;
type = BottomGhost;
},
{
horizontal = 1;
place = "{630, 75}";
type = Stem;
},
{
place = "{38, 479}";
type = Stem;
}
);
layerId = "89E2520C-A138-4547-B47C-84DD62C3AEAF";
paths = (
{
closed = 1;
nodes = (
"517 629 LINE",
"517 705 LINE",
"38 705 LINE",
"38 630 LINE",
"428 630 LINE",
"84 0 LINE",
"177 0 LINE"
);
}
);
width = 513;
}
);
unicode = 0037;
},
{
glyphname = eight;
layers = (
{
hints = (
{
place = "{72, 86}";
type = Stem;
},
{
place = "{99, 83}";
type = Stem;
},
{
place = "{458, 83}";
type = Stem;
},
{
place = "{481, 86}";
type = Stem;
},
{
horizontal = 1;
place = "{-12, 72}";
type = Stem;
},
{
horizontal = 1;
place = "{331, 72}";
type = Stem;
},
{
horizontal = 1;
place = "{646, 72}";
type = Stem;
}
);
layerId = "89E2520C-A138-4547-B47C-84DD62C3AEAF";
paths = (
{
closed = 1;
nodes = (
"541 640 OFFCURVE",
"437 718 OFFCURVE",
"319 718 CURVE SMOOTH",
"199 718 OFFCURVE",
"99 640 OFFCURVE",
"99 531 CURVE SMOOTH",
"99 459 OFFCURVE",
"138 402 OFFCURVE",
"209 370 CURVE",
"122 333 OFFCURVE",
"72 274 OFFCURVE",
"72 190 CURVE SMOOTH",
"72 75 OFFCURVE",
"179 -12 OFFCURVE",
"319 -12 CURVE SMOOTH",
"459 -12 OFFCURVE",
"567 69 OFFCURVE",
"567 192 CURVE SMOOTH",
"567 275 OFFCURVE",
"516 336 OFFCURVE",
"429 369 CURVE",
"497 404 OFFCURVE",
"541 455 OFFCURVE",
"541 528 CURVE SMOOTH"
);
},
{
closed = 1;
nodes = (
"182 595 OFFCURVE",
"242 646 OFFCURVE",
"319 646 CURVE SMOOTH",
"397 646 OFFCURVE",
"458 595 OFFCURVE",
"458 526 CURVE SMOOTH",
"458 453 OFFCURVE",
"396 403 OFFCURVE",
"319 403 CURVE SMOOTH",
"244 403 OFFCURVE",
"182 454 OFFCURVE",
"182 525 CURVE SMOOTH"
);
},
{
closed = 1;
nodes = (
"158 274 OFFCURVE",
"226 331 OFFCURVE",
"319 331 CURVE SMOOTH",
"413 331 OFFCURVE",
"481 275 OFFCURVE",
"481 196 CURVE SMOOTH",
"481 120 OFFCURVE",
"415 60 OFFCURVE",
"319 60 CURVE SMOOTH",
"221 60 OFFCURVE",
"158 120 OFFCURVE",
"158 196 CURVE SMOOTH"
);
}
);
width = 639;
}
);
unicode = 0038;
},
{
glyphname = nine;
layers = (
{
hints = (
{
horizontal = 1;
place = "{-2, 21}";
target = up;
type = BottomGhost;
},
{
horizontal = 1;
place = "{272, 73}";
type = Stem;
},
{
horizontal = 1;
place = "{647, 73}";
type = Stem;
},
{
place = "{49, 86}";
type = Stem;
},
{
place = "{451, 86}";
type = Stem;
}
);
layerId = "89E2520C-A138-4547-B47C-84DD62C3AEAF";
paths = (
{
closed = 1;
nodes = (
"269 -2 LINE",
"439 248 LINE",
"487 317 OFFCURVE",
"537 391 OFFCURVE",
"537 479 CURVE SMOOTH",
"537 627 OFFCURVE",
"430 720 OFFCURVE",
"290 720 CURVE SMOOTH",
"154 720 OFFCURVE",
"49 621 OFFCURVE",
"49 490 CURVE SMOOTH",
"49 361 OFFCURVE",
"152 272 OFFCURVE",
"275 272 CURVE SMOOTH",
"316 272 OFFCURVE",
"344 279 OFFCURVE",
"380 306 CURVE",
"176 -2 LINE"
);
},
{
closed = 1;
nodes = (
"451 413 OFFCURVE",
"384 345 OFFCURVE",
"292 345 CURVE SMOOTH",
"200 345 OFFCURVE",
"135 408 OFFCURVE",
"135 494 CURVE SMOOTH",
"135 579 OFFCURVE",
"199 647 OFFCURVE",
"291 647 CURVE SMOOTH",
"379 647 OFFCURVE",
"451 579 OFFCURVE",
"451 495 CURVE SMOOTH"
);
}
);
width = 586;
}
);
unicode = 0039;
},
{
glyphname = colon;
layers = (
{
hints = (
{
horizontal = 1;
place = "{-10, 121}";
type = Stem;
},
{
horizontal = 1;
place = "{370, 121}";
type = Stem;
},
{
place = "{85, 120}";
type = Stem;
}
);
layerId = "89E2520C-A138-4547-B47C-84DD62C3AEAF";
paths = (
{
closed = 1;
nodes = (
"85 396 OFFCURVE",
"109 370 OFFCURVE",
"146 370 CURVE SMOOTH",
"177 370 OFFCURVE",
"205 396 OFFCURVE",
"205 431 CURVE SMOOTH",
"205 464 OFFCURVE",
"177 491 OFFCURVE",
"146 491 CURVE SMOOTH",
"109 491 OFFCURVE",
"85 464 OFFCURVE",
"85 431 CURVE SMOOTH"
);
},
{
closed = 1;
nodes = (
"85 18 OFFCURVE",
"109 -10 OFFCURVE",
"146 -10 CURVE SMOOTH",
"177 -10 OFFCURVE",
"205 18 OFFCURVE",
"205 51 CURVE SMOOTH",
"205 84 OFFCURVE",
"177 111 OFFCURVE",
"146 111 CURVE SMOOTH",
"109 111 OFFCURVE",
"85 84 OFFCURVE",
"85 51 CURVE SMOOTH"
);
}
);
width = 291;
}
);
unicode = 003A;
},
{
glyphname = semicolon;
layers = (
{
hints = (
{
horizontal = 1;
place = "{370, 121}";
type = Stem;
},
{
place = "{63, 121}";
type = Stem;
}
);
layerId = "89E2520C-A138-4547-B47C-84DD62C3AEAF";
paths = (
{
closed = 1;
nodes = (
"63 396 OFFCURVE",
"88 370 OFFCURVE",
"124 370 CURVE SMOOTH",
"155 370 OFFCURVE",
"184 396 OFFCURVE",
"184 431 CURVE SMOOTH",
"184 464 OFFCURVE",
"155 491 OFFCURVE",
"124 491 CURVE SMOOTH",
"88 491 OFFCURVE",
"63 464 OFFCURVE",
"63 431 CURVE SMOOTH"
);
},
{
closed = 1;
nodes = (
"179 120 LINE",
"78 120 LINE",
"35 -139 LINE",
"105 -139 LINE"
);
}
);
width = 254;
}
);
unicode = 003B;
},
{
glyphname = less;
layers = (
{
hints = (
{
horizontal = 1;
place = "{79, 527}";
type = Stem;
},
{
place = "{58, 478}";
type = Stem;
}
);
layerId = "89E2520C-A138-4547-B47C-84DD62C3AEAF";
paths = (
{
closed = 1;
nodes = (
"536 606 LINE",
"58 378 LINE",
"58 307 LINE",
"536 79 LINE",
"536 158 LINE",
"149 343 LINE",
"536 526 LINE"
);
}
);
width = 594;
}
);
unicode = 003C;
},
{
glyphname = equal;
layers = (
{
hints = (
{
horizontal = 1;
place = "{196, 75}";
type = Stem;
},
{
horizontal = 1;
place = "{438, 75}";
type = Stem;
},
{
place = "{47, 474}";
type = Stem;
}
);
layerId = "89E2520C-A138-4547-B47C-84DD62C3AEAF";
paths = (
{
closed = 1;
nodes = (
"47 513 LINE",
"47 438 LINE",
"521 438 LINE",
"521 513 LINE"
);
},
{
closed = 1;
nodes = (
"47 271 LINE",
"47 196 LINE",
"521 196 LINE",
"521 271 LINE"
);
}
);
width = 568;
}
);
unicode = 003D;
},
{
glyphname = greater;
layers = (
{
hints = (
{
horizontal = 1;
place = "{80, 526}";
type = Stem;
},
{
place = "{58, 477}";
type = Stem;
}
);
layerId = "89E2520C-A138-4547-B47C-84DD62C3AEAF";
paths = (
{
closed = 1;
nodes = (
"58 525 LINE",
"444 342 LINE",
"58 160 LINE",
"58 80 LINE",
"535 306 LINE",
"535 379 LINE",
"58 606 LINE"
);
}
);
width = 593;
}
);
unicode = 003E;
},
{
glyphname = question;
layers = (
{
hints = (
{
place = "{128, 121}";
type = Stem;
},
{
place = "{142, 82}";
type = Stem;
},
{
place = "{306, 82}";
type = Stem;
},
{
horizontal = 1;
place = "{-9, 118}";
type = Stem;
},
{
horizontal = 1;
place = "{641, 76}";
type = Stem;
}
);
layerId = "89E2520C-A138-4547-B47C-84DD62C3AEAF";
paths = (
{
closed = 1;
nodes = (
"271 641 OFFCURVE",
"306 592 OFFCURVE",
"306 544 CURVE SMOOTH",
"306 496 OFFCURVE",
"273 464 OFFCURVE",
"236 429 CURVE SMOOTH",
"191 387 OFFCURVE",
"142 338 OFFCURVE",
"142 252 CURVE SMOOTH",
"142 190 LINE",
"224 190 LINE",
"224 222 LINE SMOOTH",
"224 293 OFFCURVE",
"247 328 OFFCURVE",
"298 374 CURVE SMOOTH",
"349 419 OFFCURVE",
"388 475 OFFCURVE",
"388 551 CURVE SMOOTH",
"388 650 OFFCURVE",
"319 717 OFFCURVE",
"211 717 CURVE SMOOTH",
"143 717 OFFCURVE",
"85 689 OFFCURVE",
"54 649 CURVE",
"54 552 LINE",
"102 621 OFFCURVE",
"154 641 OFFCURVE",
"201 641 CURVE SMOOTH"
);
},
{
closed = 1;
nodes = (
"128 14 OFFCURVE",
"156 -9 OFFCURVE",
"188 -9 CURVE SMOOTH",
"221 -9 OFFCURVE",
"249 14 OFFCURVE",
"249 50 CURVE SMOOTH",
"249 81 OFFCURVE",
"221 109 OFFCURVE",
"188 109 CURVE SMOOTH",
"156 109 OFFCURVE",
"128 81 OFFCURVE",
"128 50 CURVE SMOOTH"
);
}
);
width = 442;
}
);
unicode = 003F;
},
{
glyphname = at;
layers = (
{
hints = (
{
place = "{51, 52}";
type = Stem;
},
{
place = "{235, 78}";
type = Stem;
},
{
place = "{563, 63}";
type = Stem;
},
{
place = "{805, 49}";
type = Stem;
},
{
horizontal = 1;
place = "{-93, 44}";
type = Stem;
},
{
horizontal = 1;
place = "{-8, 21}";
target = up;
type = BottomGhost;
},
{
horizontal = 1;
place = "{109, 49}";
type = Stem;
},
{
horizontal = 1;
place = "{111, 64}";
type = Stem;
},
{
horizontal = 1;
place = "{457, 67}";
type = Stem;
},
{
horizontal = 1;
place = "{674, 45}";
type = Stem;
}
);
layerId = "89E2520C-A138-4547-B47C-84DD62C3AEAF";
paths = (
{
closed = 1;
nodes = (
"720 26 LINE",
"643 -23 OFFCURVE",
"570 -49 OFFCURVE",
"478 -49 CURVE SMOOTH",
"250 -49 OFFCURVE",
"103 107 OFFCURVE",
"103 311 CURVE SMOOTH",
"103 516 OFFCURVE",
"256 674 OFFCURVE",
"461 674 CURVE SMOOTH",
"657 674 OFFCURVE",
"805 531 OFFCURVE",
"805 346 CURVE SMOOTH",
"805 234 OFFCURVE",
"750 158 OFFCURVE",
"687 158 CURVE SMOOTH",
"647 158 OFFCURVE",
"626 191 OFFCURVE",
"626 239 CURVE",
"663 505 LINE",
"593 511 LINE",
"583 446 LINE",
"558 490 OFFCURVE",
"519 524 OFFCURVE",
"451 524 CURVE SMOOTH",
"333 524 OFFCURVE",
"235 420 OFFCURVE",
"235 296 CURVE SMOOTH",
"235 187 OFFCURVE",
"310 111 OFFCURVE",
"410 111 CURVE SMOOTH",
"478 111 OFFCURVE",
"527 147 OFFCURVE",
"560 194 CURVE",
"579 138 OFFCURVE",
"611 109 OFFCURVE",
"671 109 CURVE SMOOTH",
"774 109 OFFCURVE",
"854 200 OFFCURVE",
"854 357 CURVE SMOOTH",
"854 560 OFFCURVE",
"679 719 OFFCURVE",
"462 719 CURVE SMOOTH",
"230 719 OFFCURVE",
"51 537 OFFCURVE",
"51 309 CURVE SMOOTH",
"51 82 OFFCURVE",
"225 -93 OFFCURVE",
"469 -93 CURVE SMOOTH",
"573 -93 OFFCURVE",
"663 -63 OFFCURVE",
"744 -8 CURVE"
);
},
{
closed = 1;
nodes = (
"523 457 OFFCURVE",
"563 407 OFFCURVE",
"563 339 CURVE SMOOTH",
"563 256 OFFCURVE",
"500 175 OFFCURVE",
"419 175 CURVE SMOOTH",
"354 175 OFFCURVE",
"313 227 OFFCURVE",
"313 299 CURVE SMOOTH",
"313 385 OFFCURVE",
"375 457 OFFCURVE",
"455 457 CURVE SMOOTH"
);
}
);
width = 906;
}
);
unicode = 0040;
},
{
glyphname = A;
layers = (
{
hints = (
{
place = "{-5, 687}";
type = Stem;
},
{
horizontal = 1;
place = "{0, 21}";
target = up;
type = BottomGhost;
},
{
horizontal = 1;
place = "{197, 75}";
type = Stem;
},
{
horizontal = 1;
place = "{606, 99}";
type = Stem;
},
{
horizontal = 1;
place = "{705, -20}";
target = down;
type = TopGhost;
}
);
layerId = "89E2520C-A138-4547-B47C-84DD62C3AEAF";
paths = (
{
closed = 1;
nodes = (
"505 197 LINE",
"589 0 LINE",
"682 0 LINE",
"373 705 LINE",
"303 705 LINE",
"-5 0 LINE",
"86 0 LINE",
"171 197 LINE"
);
},
{
closed = 1;
nodes = (
"338 606 LINE",
"473 272 LINE",
"203 272 LINE"
);
}
);
width = 677;
}
);
unicode = 0041;
},
{
glyphname = B;
layers = (
{
hints = (
{
place = "{80, 84}";
type = Stem;
},
{
place = "{443, 84}";
type = Stem;
},
{
place = "{507, 84}";
type = Stem;
},
{
horizontal = 1;
place = "{0, 74}";
type = Stem;
},
{
horizontal = 1;
place = "{322, 74}";
type = Stem;
},
{
horizontal = 1;
place = "{631, 74}";
type = Stem;
}
);
layerId = "89E2520C-A138-4547-B47C-84DD62C3AEAF";
paths = (
{
closed = 1;
nodes = (
"80 0 LINE",
"309 0 LINE SMOOTH",
"512 0 OFFCURVE",
"591 89 OFFCURVE",
"591 194 CURVE SMOOTH",
"591 279 OFFCURVE",
"542 350 OFFCURVE",
"425 366 CURVE",
"493 391 OFFCURVE",
"527 452 OFFCURVE",
"527 527 CURVE SMOOTH",
"527 660 OFFCURVE",
"405 705 OFFCURVE",
"281 705 CURVE SMOOTH",
"80 705 LINE"
);
},
{
closed = 1;
nodes = (
"164 631 LINE",
"291 631 LINE SMOOTH",
"383 631 OFFCURVE",
"443 595 OFFCURVE",
"443 515 CURVE SMOOTH",
"443 448 OFFCURVE",
"396 396 OFFCURVE",
"291 396 CURVE SMOOTH",
"164 396 LINE"
);
},
{
closed = 1;
nodes = (
"164 322 LINE",
"290 322 LINE SMOOTH",
"450 322 OFFCURVE",
"507 278 OFFCURVE",
"507 198 CURVE SMOOTH",
"507 118 OFFCURVE",
"451 74 OFFCURVE",
"323 74 CURVE SMOOTH",
"164 74 LINE"
);
}
);
width = 637;
}
);
unicode = 0042;
},
{
glyphname = C;
layers = (
{
hints = (
{
horizontal = 1;
place = "{-14, 77}";
type = Stem;
},
{
horizontal = 1;
place = "{643, 76}";
type = Stem;
},
{
place = "{51, 87}";
type = Stem;
}
);
layerId = "89E2520C-A138-4547-B47C-84DD62C3AEAF";
paths = (
{
closed = 1;
nodes = (
"647 175 LINE",
"580 116 OFFCURVE",
"512 63 OFFCURVE",
"410 63 CURVE SMOOTH",
"250 63 OFFCURVE",
"138 192 OFFCURVE",
"138 352 CURVE SMOOTH",
"138 512 OFFCURVE",
"250 643 OFFCURVE",
"410 643 CURVE SMOOTH",
"519 643 OFFCURVE",
"582 604 OFFCURVE",
"633 547 CURVE",
"633 643 LINE",
"576 687 OFFCURVE",
"510 719 OFFCURVE",
"415 719 CURVE SMOOTH",
"205 719 OFFCURVE",
"51 558 OFFCURVE",
"51 351 CURVE SMOOTH",
"51 144 OFFCURVE",
"207 -14 OFFCURVE",
"412 -14 CURVE SMOOTH",
"512 -14 OFFCURVE",
"583 23 OFFCURVE",
"647 78 CURVE"
);
}
);
width = 706;
}
);
unicode = 0043;
},
{
glyphname = D;
layers = (
{
hints = (
{
horizontal = 1;
place = "{0, 76}";
type = Stem;
},
{
horizontal = 1;
place = "{628, 77}";
type = Stem;
},
{
place = "{80, 85}";
type = Stem;
},
{
place = "{587, 90}";
type = Stem;
}
);
layerId = "89E2520C-A138-4547-B47C-84DD62C3AEAF";
paths = (
{
closed = 1;
nodes = (
"80 0 LINE",
"300 0 LINE SMOOTH",
"527 0 OFFCURVE",
"677 146 OFFCURVE",
"677 353 CURVE SMOOTH",
"677 566 OFFCURVE",
"515 705 OFFCURVE",
"301 705 CURVE SMOOTH",
"80 705 LINE"
);
},
{
closed = 1;
nodes = (
"165 628 LINE",
"344 628 LINE SMOOTH",
"502 628 OFFCURVE",
"587 482 OFFCURVE",
"587 351 CURVE SMOOTH",
"587 191 OFFCURVE",
"484 76 OFFCURVE",
"296 76 CURVE SMOOTH",
"165 76 LINE"
);
}
);
width = 729;
}
);
unicode = 0044;
},
{
glyphname = E;
layers = (
{
hints = (
{
horizontal = 1;
place = "{0, 76}";
type = Stem;
},
{
horizontal = 1;
place = "{321, 76}";
type = Stem;
},
{
horizontal = 1;
place = "{629, 76}";
type = Stem;
},
{
place = "{80, 86}";
type = Stem;
}
);
layerId = "89E2520C-A138-4547-B47C-84DD62C3AEAF";
paths = (
{
closed = 1;
nodes = (
"166 321 LINE",
"511 321 LINE",
"511 397 LINE",
"166 397 LINE",
"166 629 LINE",
"540 629 LINE",
"540 705 LINE",
"80 705 LINE",
"80 0 LINE",
"551 0 LINE",
"551 76 LINE",
"166 76 LINE"
);
}
);
width = 618;
}
);
unicode = 0045;
},
{
glyphname = F;
layers = (
{
hints = (
{
horizontal = 1;
place = "{-2, 21}";
target = up;
type = BottomGhost;
},
{
horizontal = 1;
place = "{313, 76}";
type = Stem;
},
{
horizontal = 1;
place = "{629, 76}";
type = Stem;
},
{
place = "{80, 85}";
type = Stem;
}
);
layerId = "89E2520C-A138-4547-B47C-84DD62C3AEAF";
paths = (
{
closed = 1;
nodes = (
"165 313 LINE",
"506 313 LINE",
"506 389 LINE",
"165 389 LINE",
"165 629 LINE",
"537 629 LINE",
"537 705 LINE",
"80 705 LINE",
"80 -2 LINE",
"165 -2 LINE"
);
}
);
width = 589;
}
);
unicode = 0046;
},
{
glyphname = G;
layers = (
{
hints = (
{
horizontal = 1;
place = "{-16, 78}";
type = Stem;
},
{
horizontal = 1;
place = "{321, 78}";
type = Stem;
},
{
horizontal = 1;
place = "{643, 76}";
type = Stem;
},
{
place = "{51, 85}";
type = Stem;
},
{
place = "{489, 174}";
type = Stem;
},
{
place = "{700, 80}";
type = Stem;
}
);
layerId = "89E2520C-A138-4547-B47C-84DD62C3AEAF";
paths = (
{
closed = 1;
nodes = (
"700 321 LINE",
"700 165 OFFCURVE",
"581 62 OFFCURVE",
"425 62 CURVE SMOOTH",
"260 62 OFFCURVE",
"136 187 OFFCURVE",
"136 352 CURVE SMOOTH",
"136 510 OFFCURVE",
"276 643 OFFCURVE",
"439 643 CURVE SMOOTH",
"536 643 OFFCURVE",
"612 604 OFFCURVE",
"663 553 CURVE",
"663 647 LINE",
"591 699 OFFCURVE",
"512 719 OFFCURVE",
"433 719 CURVE SMOOTH",
"222 719 OFFCURVE",
"51 557 OFFCURVE",
"51 352 CURVE SMOOTH",
"51 149 OFFCURVE",
"206 -16 OFFCURVE",
"419 -16 CURVE SMOOTH",
"667 -16 OFFCURVE",
"780 163 OFFCURVE",
"780 373 CURVE SMOOTH",
"780 399 LINE",
"489 399 LINE",
"489 321 LINE"
);
}
);
width = 831;
}
);
unicode = 0047;
},
{
glyphname = H;
layers = (
{
hints = (
{
horizontal = 1;
place = "{0, 21}";
target = up;
type = BottomGhost;
},
{
horizontal = 1;
place = "{320, 78}";
type = Stem;
},
{
horizontal = 1;
place = "{706, -20}";
target = down;
type = TopGhost;
},
{
place = "{80, 84}";
type = Stem;
},
{
place = "{546, 84}";
type = Stem;
}
);
layerId = "89E2520C-A138-4547-B47C-84DD62C3AEAF";
paths = (
{
closed = 1;
nodes = (
"80 0 LINE",
"164 0 LINE",
"164 320 LINE",
"546 320 LINE",
"546 0 LINE",
"630 0 LINE",
"630 706 LINE",
"546 706 LINE",
"546 398 LINE",
"164 398 LINE",
"164 706 LINE",
"80 706 LINE"
);
}
);
width = 709;
}
);
unicode = 0048;
},
{
glyphname = J;
layers = (
{
hints = (
{
horizontal = 1;
place = "{-11, 76}";
type = Stem;
},
{
horizontal = 1;
place = "{705, -20}";
target = down;
type = TopGhost;
},
{
place = "{210, 86}";
type = Stem;
}
);
layerId = "89E2520C-A138-4547-B47C-84DD62C3AEAF";
paths = (
{
closed = 1;
nodes = (
"0 22 LINE",
"32 1 OFFCURVE",
"72 -11 OFFCURVE",
"110 -11 CURVE SMOOTH",
"227 -11 OFFCURVE",
"296 64 OFFCURVE",
"296 209 CURVE SMOOTH",
"296 705 LINE",
"210 705 LINE",
"210 207 LINE SMOOTH",
"210 102 OFFCURVE",
"176 65 OFFCURVE",
"112 65 CURVE SMOOTH",
"70 65 OFFCURVE",
"35 81 OFFCURVE",
"0 102 CURVE"
);
}
);
width = 368;
}
);
unicode = 004A;
},
{
glyphname = K;
layers = (
{
hints = (
{
horizontal = 1;
place = "{0, 21}";
target = up;
type = BottomGhost;
},
{
horizontal = 1;
place = "{705, -20}";
target = down;
type = TopGhost;
},
{
place = "{80, 84}";
type = Stem;
}
);
layerId = "89E2520C-A138-4547-B47C-84DD62C3AEAF";
paths = (
{
closed = 1;
nodes = (
"164 705 LINE",
"80 705 LINE",
"80 0 LINE",
"164 0 LINE",
"164 330 LINE",
"459 0 LINE",
"567 0 LINE",
"236 375 LINE",
"539 705 LINE",
"431 705 LINE",
"164 409 LINE"
);
}
);
width = 567;
}
);
unicode = 004B;
},
{
glyphname = L;
layers = (
{
hints = (
{
horizontal = 1;
place = "{0, 76}";
type = Stem;
},
{
horizontal = 1;
place = "{705, -20}";
target = down;
type = TopGhost;
},
{
place = "{80, 85}";
type = Stem;
}
);
layerId = "89E2520C-A138-4547-B47C-84DD62C3AEAF";
paths = (
{
closed = 1;
nodes = (
"165 705 LINE",
"80 705 LINE",
"80 0 LINE",
"510 0 LINE",
"510 76 LINE",
"165 76 LINE"
);
}
);
width = 526;
}
);
unicode = 004C;
},
{
glyphname = M;
layers = (
{
hints = (
{
horizontal = 1;
place = "{0, 21}";
target = up;
type = BottomGhost;
},
{
place = "{28, 84}";
type = Stem;
},
{
place = "{658, 84}";
type = Stem;
}
);
layerId = "89E2520C-A138-4547-B47C-84DD62C3AEAF";
paths = (
{
closed = 1;
nodes = (
"385 153 LINE",
"658 565 LINE",
"658 0 LINE",
"742 0 LINE",
"742 700 LINE",
"660 700 LINE",
"385 279 LINE",
"110 700 LINE",
"28 700 LINE",
"28 0 LINE",
"112 0 LINE",
"112 565 LINE"
);
}
);
width = 771;
}
);
unicode = 004D;
},
{
glyphname = N;
layers = (
{
hints = (
{
horizontal = 1;
place = "{0, 21}";
target = up;
type = BottomGhost;
},
{
horizontal = 1;
place = "{705, -20}";
target = down;
type = TopGhost;
},
{
place = "{80, 82}";
type = Stem;
},
{
place = "{584, 82}";
type = Stem;
}
);
layerId = "89E2520C-A138-4547-B47C-84DD62C3AEAF";
paths = (
{
closed = 1;
nodes = (
"165 700 LINE",
"80 700 LINE",
"80 0 LINE",
"162 0 LINE",
"162 577 LINE",
"582 0 LINE",
"666 0 LINE",
"666 705 LINE",
"584 705 LINE",
"584 126 LINE"
);
}
);
width = 746;
}
);
unicode = 004E;
},
{
glyphname = O;
layers = (
{
hints = (
{
horizontal = 1;
place = "{-14, 77}";
type = Stem;
},
{
horizontal = 1;
place = "{642, 77}";
type = Stem;
},
{
place = "{51, 87}";
type = Stem;
},
{
place = "{695, 87}";
type = Stem;
}
);
layerId = "89E2520C-A138-4547-B47C-84DD62C3AEAF";
paths = (
{
closed = 1;
nodes = (
"782 553 OFFCURVE",
"630 719 OFFCURVE",
"419 719 CURVE SMOOTH",
"206 719 OFFCURVE",
"51 555 OFFCURVE",
"51 351 CURVE SMOOTH",
"51 148 OFFCURVE",
"204 -14 OFFCURVE",
"417 -14 CURVE SMOOTH",
"628 -14 OFFCURVE",
"782 151 OFFCURVE",
"782 354 CURVE SMOOTH"
);
},
{
closed = 1;
nodes = (
"695 191 OFFCURVE",
"579 63 OFFCURVE",
"418 63 CURVE SMOOTH",
"253 63 OFFCURVE",
"138 190 OFFCURVE",
"138 354 CURVE SMOOTH",
"138 514 OFFCURVE",
"253 642 OFFCURVE",
"418 642 CURVE SMOOTH",
"579 642 OFFCURVE",
"695 512 OFFCURVE",
"695 350 CURVE SMOOTH"
);
}
);
width = 833;
}
);
unicode = 004F;
},
{
glyphname = P;
layers = (
{
hints = (
{
horizontal = 1;
place = "{-2, 21}";
target = up;
type = BottomGhost;
},
{
horizontal = 1;
place = "{279, 76}";
type = Stem;
},
{
horizontal = 1;
place = "{629, 76}";
type = Stem;
},
{
place = "{80, 86}";
type = Stem;
},
{
place = "{472, 86}";
type = Stem;
}
);
layerId = "89E2520C-A138-4547-B47C-84DD62C3AEAF";
paths = (
{
closed = 1;
nodes = (
"80 -2 LINE",
"166 -2 LINE",
"166 279 LINE",
"300 279 LINE SMOOTH",
"444 279 OFFCURVE",
"558 358 OFFCURVE",
"558 497 CURVE SMOOTH",
"558 628 OFFCURVE",
"457 705 OFFCURVE",
"307 705 CURVE SMOOTH",
"80 705 LINE"
);
},
{
closed = 1;
nodes = (
"166 629 LINE",
"300 629 LINE SMOOTH",
"409 629 OFFCURVE",
"472 584 OFFCURVE",
"472 493 CURVE SMOOTH",
"472 406 OFFCURVE",
"407 355 OFFCURVE",
"298 355 CURVE SMOOTH",
"166 355 LINE"
);
}
);
width = 588;
}
);
unicode = 0050;
},
{
glyphname = Q;
layers = (
{
hints = (
{
horizontal = 1;
place = "{-14, 77}";
type = Stem;
},
{
horizontal = 1;
place = "{642, 77}";
type = Stem;
},
{
place = "{51, 87}";
type = Stem;
},
{
place = "{695, 87}";
type = Stem;
}
);
layerId = "89E2520C-A138-4547-B47C-84DD62C3AEAF";
paths = (
{
closed = 1;
nodes = (
"780 -79 LINE",
"780 30 LINE",
"686 104 LINE",
"746 169 OFFCURVE",
"782 254 OFFCURVE",
"782 354 CURVE SMOOTH",
"782 553 OFFCURVE",
"630 719 OFFCURVE",
"419 719 CURVE SMOOTH",
"206 719 OFFCURVE",
"51 554 OFFCURVE",
"51 350 CURVE SMOOTH",
"51 149 OFFCURVE",
"204 -14 OFFCURVE",
"417 -14 CURVE SMOOTH",
"496 -14 OFFCURVE",
"555 9 OFFCURVE",
"618 44 CURVE"
);
},
{
closed = 1;
nodes = (
"695 191 OFFCURVE",
"579 63 OFFCURVE",
"418 63 CURVE SMOOTH",
"253 63 OFFCURVE",
"138 190 OFFCURVE",
"138 354 CURVE SMOOTH",
"138 514 OFFCURVE",
"253 642 OFFCURVE",
"418 642 CURVE SMOOTH",
"579 642 OFFCURVE",
"695 512 OFFCURVE",
"695 350 CURVE SMOOTH"
);
}
);
width = 828;
}
);
unicode = 0051;
},
{
glyphname = R;
layers = (
{
hints = (
{
horizontal = 1;
place = "{0, 21}";
target = up;
type = BottomGhost;
},
{
horizontal = 1;
place = "{299, 69}";
type = Stem;
},
{
horizontal = 1;
place = "{629, 76}";
type = Stem;
},
{
place = "{80, 86}";
type = Stem;
},
{
place = "{457, 86}";
type = Stem;
}
);
layerId = "89E2520C-A138-4547-B47C-84DD62C3AEAF";
paths = (
{
closed = 1;
nodes = (
"166 0 LINE",
"166 299 LINE",
"256 299 LINE",
"475 0 LINE",
"578 0 LINE",
"349 304 LINE",
"466 324 OFFCURVE",
"543 395 OFFCURVE",
"543 503 CURVE SMOOTH",
"543 623 OFFCURVE",
"443 705 OFFCURVE",
"299 705 CURVE SMOOTH",
"80 705 LINE",
"80 0 LINE"
);
},
{
closed = 1;
nodes = (
"166 368 LINE",
"166 629 LINE",
"289 629 LINE SMOOTH",
"396 629 OFFCURVE",
"457 589 OFFCURVE",
"457 500 CURVE SMOOTH",
"457 404 OFFCURVE",
"377 368 OFFCURVE",
"272 368 CURVE SMOOTH"
);
}
);
width = 586;
}
);
unicode = 0052;
},
{
glyphname = S;
layers = (
{
hints = (
{
horizontal = 1;
place = "{-12, 75}";
type = Stem;
},
{
horizontal = 1;
place = "{643, 75}";
type = Stem;
},
{
place = "{46, 86}";
type = Stem;
},
{
place = "{406, 86}";
type = Stem;
}
);
layerId = "89E2520C-A138-4547-B47C-84DD62C3AEAF";
paths = (
{
closed = 1;
nodes = (
"187 63 OFFCURVE",
"108 87 OFFCURVE",
"31 164 CURVE",
"31 71 LINE",
"95 10 OFFCURVE",
"167 -12 OFFCURVE",
"250 -12 CURVE SMOOTH",
"369 -12 OFFCURVE",
"492 38 OFFCURVE",
"492 178 CURVE SMOOTH",
"492 402 OFFCURVE",
"132 404 OFFCURVE",
"132 552 CURVE SMOOTH",
"132 611 OFFCURVE",
"188 643 OFFCURVE",
"264 643 CURVE SMOOTH",
"317 643 OFFCURVE",
"381 627 OFFCURVE",
"434 558 CURVE",
"434 661 LINE",
"387 701 OFFCURVE",
"328 718 OFFCURVE",
"263 718 CURVE SMOOTH",
"150 718 OFFCURVE",
"46 658 OFFCURVE",
"46 554 CURVE SMOOTH",
"46 338 OFFCURVE",
"406 334 OFFCURVE",
"406 170 CURVE SMOOTH",
"406 90 OFFCURVE",
"324 63 OFFCURVE",
"256 63 CURVE SMOOTH"
);
}
);
width = 537;
}
);
unicode = 0053;
},
{
glyphname = T;
layers = (
{
hints = (
{
horizontal = 1;
place = "{0, 21}";
target = up;
type = BottomGhost;
},
{
horizontal = 1;
place = "{629, 76}";
type = Stem;
},
{
place = "{218, 84}";
type = Stem;
}
);
layerId = "89E2520C-A138-4547-B47C-84DD62C3AEAF";
paths = (
{
closed = 1;
nodes = (
"302 629 LINE",
"512 629 LINE",
"512 705 LINE",
"8 705 LINE",
"8 629 LINE",
"218 629 LINE",
"218 0 LINE",
"302 0 LINE"
);
}
);
width = 520;
}
);
unicode = 0054;
},
{
glyphname = U;
layers = (
{
hints = (
{
horizontal = 1;
place = "{-15, 78}";
type = Stem;
},
{
horizontal = 1;
place = "{706, -20}";
target = down;
type = TopGhost;
},
{
place = "{71, 84}";
type = Stem;
},
{
place = "{546, 84}";
type = Stem;
}
);
layerId = "89E2520C-A138-4547-B47C-84DD62C3AEAF";
paths = (
{
closed = 1;
nodes = (
"536 -15 OFFCURVE",
"630 100 OFFCURVE",
"630 287 CURVE SMOOTH",
"630 706 LINE",
"546 706 LINE",
"546 285 LINE SMOOTH",
"546 136 OFFCURVE",
"476 63 OFFCURVE",
"351 63 CURVE SMOOTH",
"219 63 OFFCURVE",
"155 149 OFFCURVE",
"155 288 CURVE SMOOTH",
"155 706 LINE",
"71 706 LINE",
"71 284 LINE SMOOTH",
"71 105 OFFCURVE",
"168 -15 OFFCURVE",
"352 -15 CURVE SMOOTH"
);
}
);
width = 702;
}
);
unicode = 0055;
},
{
glyphname = V;
layers = (
{
hints = (
{
place = "{-4, 653}";
type = Stem;
},
{
horizontal = 1;
place = "{0, 88}";
type = Stem;
},
{
horizontal = 1;
place = "{0, 21}";
target = up;
type = BottomGhost;
},
{
horizontal = 1;
place = "{705, -20}";
target = down;
type = TopGhost;
}
);
layerId = "89E2520C-A138-4547-B47C-84DD62C3AEAF";
paths = (
{
closed = 1;
nodes = (
"-4 705 LINE",
"273 0 LINE",
"374 0 LINE",
"649 705 LINE",
"557 705 LINE",
"325 88 LINE",
"90 705 LINE"
);
}
);
width = 646;
}
);
unicode = 0056;
},
{
glyphname = W;
layers = (
{
hints = (
{
place = "{4, 985}";
type = Stem;
},
{
horizontal = 1;
place = "{0, 126}";
type = Stem;
},
{
horizontal = 1;
place = "{0, 21}";
target = up;
type = BottomGhost;
},
{
horizontal = 1;
place = "{705, -20}";
target = down;
type = TopGhost;
},
{
horizontal = 1;
place = "{706, -20}";
target = down;
type = TopGhost;
}
);
layerId = "89E2520C-A138-4547-B47C-84DD62C3AEAF";
paths = (
{
closed = 1;
nodes = (
"95 705 LINE",
"4 705 LINE",
"241 0 LINE",
"323 0 LINE",
"496 582 LINE",
"675 0 LINE",
"755 0 LINE",
"989 705 LINE",
"901 705 LINE",
"717 126 LINE",
"539 706 LINE",
"458 706 LINE",
"285 126 LINE"
);
}
);
width = 993;
}
);
unicode = 0057;
},
{
glyphname = X;
layers = (
{
hints = (
{
horizontal = 1;
place = "{0, 21}";
target = up;
type = BottomGhost;
},
{
horizontal = 1;
place = "{705, -20}";
target = down;
type = TopGhost;
},
{
place = "{10, 606}";
type = Stem;
}
);
layerId = "89E2520C-A138-4547-B47C-84DD62C3AEAF";
paths = (
{
closed = 1;
nodes = (
"22 705 LINE",
"265 361 LINE",
"10 0 LINE",
"109 0 LINE",
"313 296 LINE",
"519 0 LINE",
"616 0 LINE",
"363 363 LINE",
"603 705 LINE",
"507 705 LINE",
"316 426 LINE",
"121 705 LINE"
);
}
);
width = 627;
}
);
unicode = 0058;
},
{
glyphname = Y;
layers = (
{
hints = (
{
horizontal = 1;
place = "{0, 21}";
target = up;
type = BottomGhost;
},
{
horizontal = 1;
place = "{705, -20}";
target = down;
type = TopGhost;
},
{
place = "{269, 84}";
type = Stem;
}
);
layerId = "89E2520C-A138-4547-B47C-84DD62C3AEAF";
paths = (
{
closed = 1;
nodes = (
"353 281 LINE",
"623 705 LINE",
"528 705 LINE",
"314 358 LINE",
"98 705 LINE",
"-2 705 LINE",
"269 280 LINE",
"269 0 LINE",
"353 0 LINE"
);
}
);
width = 621;
}
);
unicode = 0059;
},
{
glyphname = Z;
layers = (
{
hints = (
{
horizontal = 1;
place = "{0, 75}";
type = Stem;
},
{
horizontal = 1;
place = "{630, 75}";
type = Stem;
},
{
place = "{14, 603}";
type = Stem;
}
);
layerId = "89E2520C-A138-4547-B47C-84DD62C3AEAF";
paths = (
{
closed = 1;
nodes = (
"617 632 LINE",
"617 705 LINE",
"42 705 LINE",
"42 630 LINE",
"514 630 LINE",
"14 72 LINE",
"14 0 LINE",
"596 0 LINE",
"596 75 LINE",
"124 75 LINE"
);
}
);
width = 642;
}
);
unicode = 005A;
},
{
glyphname = bracketleft;
layers = (
{
hints = (
{
horizontal = 1;
place = "{-158, 66}";
type = Stem;
},
{
horizontal = 1;
place = "{660, 66}";
type = Stem;
},
{
place = "{83, 77}";
type = Stem;
}
);
layerId = "89E2520C-A138-4547-B47C-84DD62C3AEAF";
paths = (
{
closed = 1;
nodes = (
"323 726 LINE",
"83 726 LINE",
"83 -158 LINE",
"323 -158 LINE",
"323 -92 LINE",
"160 -92 LINE",
"160 660 LINE",
"323 660 LINE"
);
}
);
width = 377;
}
);
unicode = 005B;
},
{
glyphname = backslash;
layers = (
{
hints = (
{
horizontal = 1;
place = "{-117, 898}";
type = Stem;
},
{
place = "{2, 484}";
type = Stem;
}
);
layerId = "89E2520C-A138-4547-B47C-84DD62C3AEAF";
paths = (
{
closed = 1;
nodes = (
"413 -117 LINE",
"486 -111 LINE",
"74 781 LINE",
"2 773 LINE"
);
}
);
width = 488;
}
);
unicode = 005C;
},
{
glyphname = bracketright;
layers = (
{
hints = (
{
horizontal = 1;
place = "{-159, 67}";
type = Stem;
},
{
horizontal = 1;
place = "{659, 67}";
type = Stem;
},
{
place = "{217, 79}";
type = Stem;
}
);
layerId = "89E2520C-A138-4547-B47C-84DD62C3AEAF";
paths = (
{
closed = 1;
nodes = (
"54 -159 LINE",
"296 -159 LINE",
"296 726 LINE",
"54 726 LINE",
"54 659 LINE",
"217 659 LINE",
"217 -92 LINE",
"54 -92 LINE"
);
}
);
width = 380;
}
);
unicode = 005D;
},
{
glyphname = asciicircum;
layers = (
{
hints = (
{
place = "{33, 431}";
type = Stem;
},
{
horizontal = 1;
place = "{642, 64}";
type = Stem;
},
{
horizontal = 1;
place = "{706, -20}";
target = down;
type = TopGhost;
}
);
layerId = "89E2520C-A138-4547-B47C-84DD62C3AEAF";
paths = (
{
closed = 1;
nodes = (
"33 418 LINE",
"106 418 LINE",
"247 642 LINE",
"388 418 LINE",
"464 418 LINE",
"283 706 LINE",
"211 706 LINE"
);
}
);
width = 497;
}
);
unicode = 005E;
},
{
glyphname = underscore;
layers = (
{
hints = (
{
horizontal = 1;
place = "{-147, 65}";
type = Stem;
},
{
place = "{0, 561}";
type = Stem;
}
);
layerId = "89E2520C-A138-4547-B47C-84DD62C3AEAF";
paths = (
{
closed = 1;
nodes = (
"0 -147 LINE",
"561 -147 LINE",
"561 -82 LINE",
"0 -82 LINE"
);
}
);
width = 561;
}
);
unicode = 005F;
},
{
glyphname = grave;
layers = (
{
hints = (
{
horizontal = 1;
place = "{616, 149}";
type = Stem;
},
{
place = "{24, 189}";
type = Stem;
}
);
layerId = "89E2520C-A138-4547-B47C-84DD62C3AEAF";
paths = (
{
closed = 1;
nodes = (
"150 616 LINE",
"213 616 LINE",
"118 765 LINE",
"24 745 LINE"
);
}
);
width = 237;
}
);
unicode = 0060;
},
{
glyphname = a;
layers = (
{
hints = (
{
place = "{35, 82}";
type = Stem;
},
{
place = "{398, 82}";
type = Stem;
},
{
horizontal = 1;
place = "{-11, 68}";
type = Stem;
},
{
horizontal = 1;
place = "{0, 21}";
target = up;
type = BottomGhost;
},
{
horizontal = 1;
place = "{266, 67}";
type = Stem;
},
{
horizontal = 1;
place = "{422, 70}";
type = Stem;
}
);
layerId = "89E2520C-A138-4547-B47C-84DD62C3AEAF";
paths = (
{
closed = 1;
nodes = (
"480 0 LINE",
"480 308 LINE SMOOTH",
"480 431 OFFCURVE",
"373 492 OFFCURVE",
"257 492 CURVE SMOOTH",
"182 492 OFFCURVE",
"112 470 OFFCURVE",
"67 450 CURVE",
"67 372 LINE",
"126 408 OFFCURVE",
"190 422 OFFCURVE",
"254 422 CURVE SMOOTH",
"338 422 OFFCURVE",
"398 394 OFFCURVE",
"398 318 CURVE SMOOTH",
"398 299 LINE",
"355 324 OFFCURVE",
"303 333 OFFCURVE",
"246 333 CURVE SMOOTH",
"146 333 OFFCURVE",
"35 296 OFFCURVE",
"35 171 CURVE SMOOTH",
"35 54 OFFCURVE",
"140 -11 OFFCURVE",
"235 -11 CURVE SMOOTH",
"302 -11 OFFCURVE",
"351 9 OFFCURVE",
"396 49 CURVE"
);
},
{
closed = 1;
nodes = (
"398 122 LINE",
"365 82 OFFCURVE",
"318 57 OFFCURVE",
"253 57 CURVE SMOOTH",
"181 57 OFFCURVE",
"117 90 OFFCURVE",
"117 161 CURVE SMOOTH",
"117 238 OFFCURVE",
"193 266 OFFCURVE",
"258 266 CURVE SMOOTH",
"322 266 OFFCURVE",
"365 247 OFFCURVE",
"398 228 CURVE"
);
}
);
width = 548;
}
);
unicode = 0061;
},
{
glyphname = b;
layers = (
{
hints = (
{
place = "{67, 82}";
type = Stem;
},
{
place = "{490, 82}";
type = Stem;
},
{
horizontal = 1;
place = "{-10, 69}";
type = Stem;
},
{
horizontal = 1;
place = "{1, 21}";
target = up;
type = BottomGhost;
},
{
horizontal = 1;
place = "{422, 72}";
type = Stem;
}
);
layerId = "89E2520C-A138-4547-B47C-84DD62C3AEAF";
paths = (
{
closed = 1;
nodes = (
"465 -10 OFFCURVE",
"572 91 OFFCURVE",
"572 241 CURVE SMOOTH",
"572 393 OFFCURVE",
"466 494 OFFCURVE",
"335 494 CURVE SMOOTH",
"255 494 OFFCURVE",
"192 454 OFFCURVE",
"149 394 CURVE",
"149 732 LINE",
"67 732 LINE",
"67 1 LINE",
"158 71 LINE",
"195 24 OFFCURVE",
"254 -10 OFFCURVE",
"333 -10 CURVE SMOOTH"
);
},
{
closed = 1;
nodes = (
"490 134 OFFCURVE",
"417 59 OFFCURVE",
"318 59 CURVE SMOOTH",
"224 59 OFFCURVE",
"146 138 OFFCURVE",
"146 241 CURVE SMOOTH",
"146 346 OFFCURVE",
"224 422 OFFCURVE",
"318 422 CURVE SMOOTH",
"421 422 OFFCURVE",
"490 342 OFFCURVE",
"490 240 CURVE SMOOTH"
);
}
);
width = 606;
}
);
unicode = 0062;
},
{
glyphname = c;
layers = (
{
hints = (
{
horizontal = 1;
place = "{-9, 69}";
type = Stem;
},
{
horizontal = 1;
place = "{423, 69}";
type = Stem;
},
{
place = "{35, 83}";
type = Stem;
}
);
layerId = "89E2520C-A138-4547-B47C-84DD62C3AEAF";
paths = (
{
closed = 1;
nodes = (
"420 452 LINE",
"384 479 OFFCURVE",
"332 492 OFFCURVE",
"284 492 CURVE SMOOTH",
"135 492 OFFCURVE",
"35 379 OFFCURVE",
"35 240 CURVE SMOOTH",
"35 99 OFFCURVE",
"139 -9 OFFCURVE",
"277 -9 CURVE SMOOTH",
"337 -9 OFFCURVE",
"386 11 OFFCURVE",
"425 35 CURVE",
"425 125 LINE",
"389 86 OFFCURVE",
"342 60 OFFCURVE",
"286 60 CURVE SMOOTH",
"191 60 OFFCURVE",
"118 146 OFFCURVE",
"118 246 CURVE SMOOTH",
"118 347 OFFCURVE",
"187 423 OFFCURVE",
"283 423 CURVE SMOOTH",
"336 423 OFFCURVE",
"383 399 OFFCURVE",
"420 359 CURVE"
);
}
);
width = 470;
}
);
unicode = 0063;
},
{
glyphname = d;
layers = (
{
hints = (
{
place = "{35, 83}";
type = Stem;
},
{
place = "{456, 82}";
type = Stem;
},
{
horizontal = 1;
place = "{-10, 70}";
type = Stem;
},
{
horizontal = 1;
place = "{1, 21}";
target = up;
type = BottomGhost;
},
{
horizontal = 1;
place = "{424, 70}";
type = Stem;
}
);
layerId = "89E2520C-A138-4547-B47C-84DD62C3AEAF";
paths = (
{
closed = 1;
nodes = (
"538 1 LINE",
"538 732 LINE",
"456 732 LINE",
"456 398 LINE",
"415 457 OFFCURVE",
"352 494 OFFCURVE",
"271 494 CURVE SMOOTH",
"143 494 OFFCURVE",
"35 394 OFFCURVE",
"35 241 CURVE SMOOTH",
"35 88 OFFCURVE",
"143 -10 OFFCURVE",
"274 -10 CURVE SMOOTH",
"353 -10 OFFCURVE",
"402 24 OFFCURVE",
"446 77 CURVE"
);
},
{
closed = 1;
nodes = (
"118 351 OFFCURVE",
"192 424 OFFCURVE",
"284 424 CURVE SMOOTH",
"376 424 OFFCURVE",
"459 347 OFFCURVE",
"459 242 CURVE SMOOTH",
"459 137 OFFCURVE",
"379 60 OFFCURVE",
"284 60 CURVE SMOOTH",
"189 60 OFFCURVE",
"118 135 OFFCURVE",
"118 242 CURVE SMOOTH"
);
}
);
width = 606;
}
);
unicode = 0064;
},
{
glyphname = e;
layers = (
{
hints = (
{
horizontal = 1;
place = "{-11, 70}";
type = Stem;
},
{
horizontal = 1;
place = "{425, 70}";
type = Stem;
},
{
place = "{35, 80}";
type = Stem;
}
);
layerId = "89E2520C-A138-4547-B47C-84DD62C3AEAF";
paths = (
{
closed = 1;
nodes = (
"202 59 OFFCURVE",
"147 107 OFFCURVE",
"124 175 CURVE",
"499 266 LINE",
"483 390 OFFCURVE",
"404 495 OFFCURVE",
"266 495 CURVE SMOOTH",
"126 495 OFFCURVE",
"35 382 OFFCURVE",
"35 239 CURVE SMOOTH",
"35 92 OFFCURVE",
"142 -11 OFFCURVE",
"285 -11 CURVE SMOOTH",
"356 -11 OFFCURVE",
"415 12 OFFCURVE",
"455 44 CURVE",
"455 132 LINE",
"418 95 OFFCURVE",
"365 59 OFFCURVE",
"290 59 CURVE SMOOTH"
);
},
{
closed = 1;
nodes = (
"115 247 LINE",
"115 338 OFFCURVE",
"169 425 OFFCURVE",
"269 425 CURVE SMOOTH",
"345 425 OFFCURVE",
"399 377 OFFCURVE",
"416 316 CURVE",
"119 240 LINE"
);
}
);
width = 533;
}
);
unicode = 0065;
},
{
glyphname = f;
layers = (
{
hints = (
{
horizontal = 1;
place = "{0, 21}";
target = up;
type = BottomGhost;
},
{
horizontal = 1;
place = "{413, 69}";
type = Stem;
},
{
horizontal = 1;
place = "{668, 68}";
type = Stem;
},
{
place = "{110, 79}";
type = Stem;
}
);
layerId = "89E2520C-A138-4547-B47C-84DD62C3AEAF";
paths = (
{
closed = 1;
nodes = (
"326 726 LINE",
"310 731 OFFCURVE",
"289 736 OFFCURVE",
"265 736 CURVE SMOOTH",
"170 736 OFFCURVE",
"110 685 OFFCURVE",
"110 557 CURVE SMOOTH",
"110 484 LINE",
"12 413 LINE",
"110 413 LINE",
"110 0 LINE",
"189 0 LINE",
"189 413 LINE",
"310 413 LINE",
"310 482 LINE",
"189 482 LINE",
"189 553 LINE SMOOTH",
"189 628 OFFCURVE",
"212 668 OFFCURVE",
"275 668 CURVE SMOOTH",
"292 668 OFFCURVE",
"309 665 OFFCURVE",
"326 658 CURVE"
);
}
);
width = 322;
}
);
unicode = 0066;
},
{
glyphname = g;
layers = (
{
hints = (
{
horizontal = 1;
place = "{-194, 70}";
type = Stem;
},
{
horizontal = 1;
place = "{19, 70}";
type = Stem;
},
{
horizontal = 1;
place = "{424, 70}";
type = Stem;
},
{
place = "{39, 84}";
type = Stem;
},
{
place = "{461, 81}";
type = Stem;
}
);
layerId = "89E2520C-A138-4547-B47C-84DD62C3AEAF";
paths = (
{
closed = 1;
nodes = (
"199 -124 OFFCURVE",
"136 -102 OFFCURVE",
"80 -57 CURVE",
"80 -147 LINE",
"128 -174 OFFCURVE",
"196 -194 OFFCURVE",
"274 -194 CURVE SMOOTH",
"432 -194 OFFCURVE",
"542 -108 OFFCURVE",
"542 56 CURVE SMOOTH",
"542 482 LINE",
"450 412 LINE",
"409 461 OFFCURVE",
"354 494 OFFCURVE",
"274 494 CURVE SMOOTH",
"146 494 OFFCURVE",
"39 397 OFFCURVE",
"39 253 CURVE SMOOTH",
"39 117 OFFCURVE",
"141 19 OFFCURVE",
"274 19 CURVE SMOOTH",
"355 19 OFFCURVE",
"414 56 OFFCURVE",
"461 115 CURVE",
"461 55 LINE SMOOTH",
"461 -73 OFFCURVE",
"395 -124 OFFCURVE",
"274 -124 CURVE SMOOTH"
);
},
{
closed = 1;
nodes = (
"123 357 OFFCURVE",
"193 424 OFFCURVE",
"289 424 CURVE SMOOTH",
"385 424 OFFCURVE",
"461 354 OFFCURVE",
"461 255 CURVE SMOOTH",
"461 159 OFFCURVE",
"384 89 OFFCURVE",
"290 89 CURVE SMOOTH",
"194 89 OFFCURVE",
"123 159 OFFCURVE",
"123 258 CURVE SMOOTH"
);
}
);
width = 611;
}
);
unicode = 0067;
},
{
glyphname = h;
layers = (
{
hints = (
{
horizontal = 1;
place = "{0, 21}";
target = up;
type = BottomGhost;
},
{
horizontal = 1;
place = "{412, 81}";
type = Stem;
},
{
place = "{67, 82}";
type = Stem;
},
{
place = "{399, 82}";
type = Stem;
}
);
layerId = "89E2520C-A138-4547-B47C-84DD62C3AEAF";
paths = (
{
closed = 1;
nodes = (
"236 493 OFFCURVE",
"176 459 OFFCURVE",
"141 416 CURVE",
"141 732 LINE",
"67 732 LINE",
"67 0 LINE",
"149 0 LINE",
"149 280 LINE SMOOTH",
"149 369 OFFCURVE",
"216 412 OFFCURVE",
"288 412 CURVE SMOOTH",
"363 412 OFFCURVE",
"399 368 OFFCURVE",
"399 280 CURVE SMOOTH",
"399 0 LINE",
"481 0 LINE",
"481 303 LINE SMOOTH",
"481 436 OFFCURVE",
"415 493 OFFCURVE",
"309 493 CURVE SMOOTH"
);
}
);
width = 542;
}
);
unicode = 0068;
},
{
glyphname = i;
layers = (
{
hints = (
{
place = "{53, 121}";
type = Stem;
},
{
place = "{74, 81}";
type = Stem;
},
{
horizontal = 1;
place = "{0, 21}";
target = up;
type = BottomGhost;
},
{
horizontal = 1;
place = "{578, 120}";
type = Stem;
}
);
layerId = "89E2520C-A138-4547-B47C-84DD62C3AEAF";
paths = (
{
closed = 1;
nodes = (
"53 606 OFFCURVE",
"81 578 OFFCURVE",
"113 578 CURVE SMOOTH",
"148 578 OFFCURVE",
"174 606 OFFCURVE",
"174 637 CURVE SMOOTH",
"174 673 OFFCURVE",
"148 698 OFFCURVE",
"113 698 CURVE SMOOTH",
"81 698 OFFCURVE",
"53 673 OFFCURVE",
"53 637 CURVE SMOOTH"
);
},
{
closed = 1;
nodes = (
"155 482 LINE",
"74 482 LINE",
"74 0 LINE",
"155 0 LINE"
);
}
);
width = 229;
}
);
unicode = 0069;
},
{
glyphname = j;
layers = (
{
hints = (
{
place = "{112, 120}";
type = Stem;
},
{
place = "{136, 81}";
type = Stem;
},
{
horizontal = 1;
place = "{-194, 69}";
type = Stem;
},
{
horizontal = 1;
place = "{578, 120}";
type = Stem;
}
);
layerId = "89E2520C-A138-4547-B47C-84DD62C3AEAF";
paths = (
{
closed = 1;
nodes = (
"112 606 OFFCURVE",
"139 578 OFFCURVE",
"172 578 CURVE SMOOTH",
"203 578 OFFCURVE",
"232 606 OFFCURVE",
"232 637 CURVE SMOOTH",
"232 673 OFFCURVE",
"203 698 OFFCURVE",
"172 698 CURVE SMOOTH",
"139 698 OFFCURVE",
"112 673 OFFCURVE",
"112 637 CURVE SMOOTH"
);
},
{
closed = 1;
nodes = (
"53 -187 LINE",
"68 -191 OFFCURVE",
"83 -194 OFFCURVE",
"103 -194 CURVE SMOOTH",
"204 -194 OFFCURVE",
"217 -122 OFFCURVE",
"217 -37 CURVE SMOOTH",
"217 482 LINE",
"136 482 LINE",
"136 -62 LINE SMOOTH",
"136 -94 OFFCURVE",
"129 -125 OFFCURVE",
"86 -125 CURVE SMOOTH",
"75 -125 OFFCURVE",
"64 -123 OFFCURVE",
"53 -119 CURVE"
);
}
);
width = 287;
}
);
unicode = 006A;
},
{
glyphname = k;
layers = (
{
hints = (
{
horizontal = 1;
place = "{0, 21}";
target = up;
type = BottomGhost;
},
{
place = "{67, 82}";
type = Stem;
}
);
layerId = "89E2520C-A138-4547-B47C-84DD62C3AEAF";
paths = (
{
closed = 1;
nodes = (
"149 732 LINE",
"67 732 LINE",
"67 0 LINE",
"149 0 LINE",
"149 216 LINE",
"346 0 LINE",
"447 0 LINE",
"219 254 LINE",
"438 482 LINE",
"333 482 LINE",
"149 281 LINE"
);
}
);
width = 447;
}
);
unicode = 006B;
},
{
glyphname = l;
layers = (
{
hints = (
{
horizontal = 1;
place = "{0, 21}";
target = up;
type = BottomGhost;
},
{
place = "{67, 81}";
type = Stem;
}
);
layerId = "89E2520C-A138-4547-B47C-84DD62C3AEAF";
paths = (
{
closed = 1;
nodes = (
"148 732 LINE",
"67 732 LINE",
"67 0 LINE",
"148 0 LINE"
);
}
);
width = 217;
}
);
unicode = 006C;
},
{
glyphname = m;
layers = (
{
hints = (
{
horizontal = 1;
place = "{0, 21}";
target = up;
type = BottomGhost;
},
{
horizontal = 1;
place = "{421, 72}";
type = Stem;
},
{
place = "{67, 82}";
type = Stem;
},
{
place = "{380, 82}";
type = Stem;
},
{
place = "{694, 82}";
type = Stem;
}
);
layerId = "89E2520C-A138-4547-B47C-84DD62C3AEAF";
paths = (
{
closed = 1;
nodes = (
"776 0 LINE",
"776 304 LINE SMOOTH",
"776 411 OFFCURVE",
"724 493 OFFCURVE",
"609 493 CURVE SMOOTH",
"538 493 OFFCURVE",
"475 461 OFFCURVE",
"444 404 CURVE",
"417 467 OFFCURVE",
"362 493 OFFCURVE",
"297 493 CURVE SMOOTH",
"240 493 OFFCURVE",
"181 472 OFFCURVE",
"146 424 CURVE",
"67 481 LINE",
"67 0 LINE",
"149 0 LINE",
"149 279 LINE SMOOTH",
"149 355 OFFCURVE",
"192 421 OFFCURVE",
"272 421 CURVE SMOOTH",
"353 421 OFFCURVE",
"380 359 OFFCURVE",
"380 279 CURVE SMOOTH",
"380 0 LINE",
"462 0 LINE",
"462 279 LINE SMOOTH",
"462 355 OFFCURVE",
"505 421 OFFCURVE",
"586 421 CURVE SMOOTH",
"654 421 OFFCURVE",
"694 379 OFFCURVE",
"694 279 CURVE SMOOTH",
"694 0 LINE"
);
}
);
width = 836;
}
);
unicode = 006D;
},
{
glyphname = n;
layers = (
{
hints = (
{
horizontal = 1;
place = "{0, 21}";
target = up;
type = BottomGhost;
},
{
horizontal = 1;
place = "{421, 72}";
type = Stem;
},
{
place = "{67, 82}";
type = Stem;
},
{
place = "{399, 82}";
type = Stem;
}
);
layerId = "89E2520C-A138-4547-B47C-84DD62C3AEAF";
paths = (
{
closed = 1;
nodes = (
"238 493 OFFCURVE",
"187 464 OFFCURVE",
"151 421 CURVE",
"67 482 LINE",
"67 0 LINE",
"149 0 LINE",
"149 280 LINE SMOOTH",
"149 390 OFFCURVE",
"226 421 OFFCURVE",
"281 421 CURVE SMOOTH",
"338 421 OFFCURVE",
"399 388 OFFCURVE",
"399 280 CURVE SMOOTH",
"399 0 LINE",
"481 0 LINE",
"481 303 LINE SMOOTH",
"481 428 OFFCURVE",
"413 493 OFFCURVE",
"307 493 CURVE SMOOTH"
);
}
);
width = 542;
}
);
unicode = 006E;
},
{
glyphname = o;
layers = (
{
hints = (
{
horizontal = 1;
place = "{-10, 69}";
type = Stem;
},
{
horizontal = 1;
place = "{425, 69}";
type = Stem;
},
{
place = "{35, 83}";
type = Stem;
},
{
place = "{468, 83}";
type = Stem;
}
);
layerId = "89E2520C-A138-4547-B47C-84DD62C3AEAF";
paths = (
{
closed = 1;
nodes = (
"551 383 OFFCURVE",
"441 494 OFFCURVE",
"292 494 CURVE SMOOTH",
"143 494 OFFCURVE",
"35 382 OFFCURVE",
"35 240 CURVE SMOOTH",
"35 99 OFFCURVE",
"143 -10 OFFCURVE",
"291 -10 CURVE SMOOTH",
"441 -10 OFFCURVE",
"551 102 OFFCURVE",
"551 242 CURVE SMOOTH"
);
},
{
closed = 1;
nodes = (
"468 142 OFFCURVE",
"394 59 OFFCURVE",
"292 59 CURVE SMOOTH",
"193 59 OFFCURVE",
"118 138 OFFCURVE",
"118 242 CURVE SMOOTH",
"118 343 OFFCURVE",
"187 425 OFFCURVE",
"291 425 CURVE SMOOTH",
"395 425 OFFCURVE",
"468 342 OFFCURVE",
"468 241 CURVE SMOOTH"
);
}
);
width = 586;
}
);
unicode = 006F;
},
{
glyphname = p;
layers = (
{
hints = (
{
horizontal = 1;
place = "{-10, 69}";
type = Stem;
},
{
horizontal = 1;
place = "{422, 72}";
type = Stem;
},
{
place = "{68, 82}";
type = Stem;
},
{
place = "{491, 82}";
type = Stem;
}
);
layerId = "89E2520C-A138-4547-B47C-84DD62C3AEAF";
paths = (
{
closed = 1;
nodes = (
"150 84 LINE",
"194 24 OFFCURVE",
"255 -10 OFFCURVE",
"335 -10 CURVE SMOOTH",
"460 -10 OFFCURVE",
"573 90 OFFCURVE",
"573 242 CURVE SMOOTH",
"573 394 OFFCURVE",
"464 494 OFFCURVE",
"335 494 CURVE SMOOTH",
"255 494 OFFCURVE",
"205 458 OFFCURVE",
"160 406 CURVE",
"68 482 LINE",
"68 -188 LINE",
"150 -188 LINE"
);
},
{
closed = 1;
nodes = (
"491 131 OFFCURVE",
"416 59 OFFCURVE",
"322 59 CURVE SMOOTH",
"229 59 OFFCURVE",
"146 138 OFFCURVE",
"146 241 CURVE SMOOTH",
"146 346 OFFCURVE",
"226 422 OFFCURVE",
"319 422 CURVE SMOOTH",
"418 422 OFFCURVE",
"491 349 OFFCURVE",
"491 242 CURVE SMOOTH"
);
}
);
width = 607;
}
);
unicode = 0070;
},
{
glyphname = q;
layers = (
{
hints = (
{
horizontal = 1;
place = "{-11, 70}";
type = Stem;
},
{
horizontal = 1;
place = "{424, 70}";
type = Stem;
},
{
place = "{35, 83}";
type = Stem;
},
{
place = "{456, 82}";
type = Stem;
}
);
layerId = "89E2520C-A138-4547-B47C-84DD62C3AEAF";
paths = (
{
closed = 1;
nodes = (
"538 -188 LINE",
"538 482 LINE",
"446 410 LINE",
"402 459 OFFCURVE",
"354 494 OFFCURVE",
"274 494 CURVE SMOOTH",
"142 494 OFFCURVE",
"35 394 OFFCURVE",
"35 241 CURVE SMOOTH",
"35 93 OFFCURVE",
"141 -11 OFFCURVE",
"274 -11 CURVE SMOOTH",
"353 -11 OFFCURVE",
"411 27 OFFCURVE",
"456 87 CURVE",
"456 -188 LINE"
);
},
{
closed = 1;
nodes = (
"118 351 OFFCURVE",
"190 424 OFFCURVE",
"288 424 CURVE SMOOTH",
"381 424 OFFCURVE",
"461 347 OFFCURVE",
"461 242 CURVE SMOOTH",
"461 138 OFFCURVE",
"380 59 OFFCURVE",
"287 59 CURVE SMOOTH",
"191 59 OFFCURVE",
"118 138 OFFCURVE",
"118 243 CURVE SMOOTH"
);
}
);
width = 606;
}
);
unicode = 0071;
},
{
glyphname = r;
layers = (
{
hints = (
{
horizontal = 1;
place = "{0, 21}";
target = up;
type = BottomGhost;
},
{
horizontal = 1;
place = "{419, 72}";
type = Stem;
},
{
place = "{67, 82}";
type = Stem;
}
);
layerId = "89E2520C-A138-4547-B47C-84DD62C3AEAF";
paths = (
{
closed = 1;
nodes = (
"341 486 LINE",
"328 489 OFFCURVE",
"315 491 OFFCURVE",
"299 491 CURVE SMOOTH",
"247 491 OFFCURVE",
"188 469 OFFCURVE",
"151 428 CURVE",
"67 482 LINE",
"67 0 LINE",
"149 0 LINE",
"149 271 LINE SMOOTH",
"149 378 OFFCURVE",
"233 419 OFFCURVE",
"297 419 CURVE SMOOTH",
"314 419 OFFCURVE",
"328 417 OFFCURVE",
"341 410 CURVE"
);
}
);
width = 343;
}
);
unicode = 0072;
},
{
glyphname = s;
layers = (
{
hints = (
{
horizontal = 1;
place = "{-10, 68}";
type = Stem;
},
{
horizontal = 1;
place = "{425, 68}";
type = Stem;
},
{
place = "{32, 79}";
type = Stem;
},
{
place = "{270, 79}";
type = Stem;
}
);
layerId = "89E2520C-A138-4547-B47C-84DD62C3AEAF";
paths = (
{
closed = 1;
nodes = (
"118 58 OFFCURVE",
"61 95 OFFCURVE",
"19 134 CURVE",
"19 46 LINE",
"58 19 OFFCURVE",
"107 -10 OFFCURVE",
"183 -10 CURVE SMOOTH",
"286 -10 OFFCURVE",
"349 56 OFFCURVE",
"349 133 CURVE SMOOTH",
"349 287 OFFCURVE",
"111 286 OFFCURVE",
"111 373 CURVE SMOOTH",
"111 400 OFFCURVE",
"136 425 OFFCURVE",
"184 425 CURVE SMOOTH",
"234 425 OFFCURVE",
"274 397 OFFCURVE",
"314 363 CURVE",
"314 453 LINE",
"277 482 OFFCURVE",
"227 493 OFFCURVE",
"182 493 CURVE SMOOTH",
"88 493 OFFCURVE",
"32 447 OFFCURVE",
"32 376 CURVE SMOOTH",
"32 228 OFFCURVE",
"270 248 OFFCURVE",
"270 131 CURVE SMOOTH",
"270 80 OFFCURVE",
"229 58 OFFCURVE",
"181 58 CURVE SMOOTH"
);
}
);
width = 380;
}
);
unicode = 0073;
},
{
glyphname = t;
layers = (
{
hints = (
{
place = "{113, 80}";
type = Stem;
},
{
horizontal = 1;
place = "{-11, 70}";
type = Stem;
},
{
horizontal = 1;
place = "{-1, 21}";
target = up;
type = BottomGhost;
},
{
horizontal = 1;
place = "{412, 70}";
type = Stem;
}
);
layerId = "89E2520C-A138-4547-B47C-84DD62C3AEAF";
paths = (
{
closed = 1;
nodes = (
"113 120 LINE SMOOTH",
"113 50 OFFCURVE",
"149 -11 OFFCURVE",
"227 -11 CURVE SMOOTH",
"246 -11 OFFCURVE",
"261 -8 OFFCURVE",
"276 -1 CURVE",
"276 68 LINE",
"261 61 OFFCURVE",
"248 59 OFFCURVE",
"237 59 CURVE SMOOTH",
"205 59 OFFCURVE",
"193 85 OFFCURVE",
"193 112 CURVE SMOOTH",
"193 412 LINE",
"321 412 LINE",
"321 482 LINE",
"193 482 LINE",
"193 649 LINE",
"15 412 LINE",
"113 412 LINE"
);
}
);
width = 335;
}
);
unicode = 0074;
},
{
glyphname = u;
layers = (
{
hints = (
{
place = "{61, 82}";
type = Stem;
},
{
place = "{393, 82}";
type = Stem;
},
{
horizontal = 1;
place = "{-10, 72}";
type = Stem;
},
{
horizontal = 1;
place = "{0, 21}";
target = up;
type = BottomGhost;
}
);
layerId = "89E2520C-A138-4547-B47C-84DD62C3AEAF";
paths = (
{
closed = 1;
nodes = (
"306 -10 OFFCURVE",
"355 19 OFFCURVE",
"391 62 CURVE",
"475 0 LINE",
"475 483 LINE",
"393 483 LINE",
"393 203 LINE SMOOTH",
"393 93 OFFCURVE",
"318 62 OFFCURVE",
"261 62 CURVE SMOOTH",
"204 62 OFFCURVE",
"143 95 OFFCURVE",
"143 203 CURVE SMOOTH",
"143 483 LINE",
"61 483 LINE",
"61 180 LINE SMOOTH",
"61 53 OFFCURVE",
"128 -10 OFFCURVE",
"235 -10 CURVE SMOOTH"
);
}
);
width = 535;
}
);
unicode = 0075;
},
{
glyphname = v;
layers = (
{
hints = (
{
place = "{-4, 485}";
type = Stem;
},
{
horizontal = 1;
place = "{0, 91}";
type = Stem;
},
{
horizontal = 1;
place = "{0, 21}";
target = up;
type = BottomGhost;
}
);
layerId = "89E2520C-A138-4547-B47C-84DD62C3AEAF";
paths = (
{
closed = 1;
nodes = (
"481 481 LINE",
"395 481 LINE",
"240 91 LINE",
"86 481 LINE",
"-4 481 LINE",
"198 0 LINE",
"279 0 LINE"
);
}
);
width = 477;
}
);
unicode = 0076;
},
{
glyphname = w;
layers = (
{
hints = (
{
place = "{1, 732}";
type = Stem;
},
{
horizontal = 1;
place = "{0, 100}";
type = Stem;
},
{
horizontal = 1;
place = "{0, 21}";
target = up;
type = BottomGhost;
}
);
layerId = "89E2520C-A138-4547-B47C-84DD62C3AEAF";
paths = (
{
closed = 1;
nodes = (
"1 482 LINE",
"166 0 LINE",
"244 0 LINE",
"365 395 LINE",
"488 0 LINE",
"569 0 LINE",
"733 482 LINE",
"647 482 LINE",
"527 100 LINE",
"410 483 LINE",
"327 483 LINE",
"209 99 LINE",
"86 482 LINE"
);
}
);
width = 734;
}
);
unicode = 0077;
},
{
glyphname = x;
layers = (
{
hints = (
{
horizontal = 1;
place = "{0, 21}";
target = up;
type = BottomGhost;
},
{
place = "{7, 478}";
type = Stem;
}
);
layerId = "89E2520C-A138-4547-B47C-84DD62C3AEAF";
paths = (
{
closed = 1;
nodes = (
"7 0 LINE",
"99 0 LINE",
"245 192 LINE",
"392 0 LINE",
"485 0 LINE",
"293 251 LINE",
"471 481 LINE",
"381 481 LINE",
"247 307 LINE",
"114 481 LINE",
"20 481 LINE",
"201 249 LINE"
);
}
);
width = 492;
}
);
unicode = 0078;
},
{
glyphname = y;
layers = (
{
hints = (
{
horizontal = 1;
place = "{-188, 669}";
type = Stem;
},
{
place = "{-4, 489}";
type = Stem;
}
);
layerId = "89E2520C-A138-4547-B47C-84DD62C3AEAF";
paths = (
{
closed = 1;
nodes = (
"214 0 LINE",
"139 -188 LINE",
"217 -188 LINE",
"485 481 LINE",
"399 481 LINE",
"250 98 LINE",
"85 481 LINE",
"-4 481 LINE"
);
}
);
width = 481;
}
);
unicode = 0079;
},
{
glyphname = z;
layers = (
{
hints = (
{
horizontal = 1;
place = "{0, 70}";
type = Stem;
},
{
horizontal = 1;
place = "{414, 68}";
type = Stem;
},
{
place = "{12, 467}";
type = Stem;
}
);
layerId = "89E2520C-A138-4547-B47C-84DD62C3AEAF";
paths = (
{
closed = 1;
nodes = (
"479 414 LINE",
"479 482 LINE",
"33 482 LINE",
"33 414 LINE",
"381 414 LINE",
"12 69 LINE",
"12 0 LINE",
"473 0 LINE",
"473 70 LINE",
"110 70 LINE"
);
}
);
width = 504;
}
);
unicode = 007A;
},
{
glyphname = braceleft;
layers = (
{
hints = (
{
horizontal = 1;
place = "{252, 73}";
type = Stem;
},
{
place = "{151, 82}";
type = Stem;
}
);
layerId = "89E2520C-A138-4547-B47C-84DD62C3AEAF";
paths = (
{
closed = 1;
nodes = (
"42 252 LINE",
"178 252 OFFCURVE",
"149 145 OFFCURVE",
"149 51 CURVE SMOOTH",
"149 -107 OFFCURVE",
"191 -147 OFFCURVE",
"351 -155 CURVE",
"363 -97 LINE",
"286 -81 OFFCURVE",
"233 -67 OFFCURVE",
"233 23 CURVE SMOOTH",
"233 137 OFFCURVE",
"258 233 OFFCURVE",
"139 289 CURVE",
"258 345 OFFCURVE",
"233 441 OFFCURVE",
"233 555 CURVE SMOOTH",
"233 645 OFFCURVE",
"286 659 OFFCURVE",
"363 675 CURVE",
"351 733 LINE",
"119 722 OFFCURVE",
"151 615 OFFCURVE",
"151 431 CURVE SMOOTH",
"151 356 OFFCURVE",
"114 325 OFFCURVE",
"42 325 CURVE"
);
}
);
width = 405;
}
);
unicode = 007B;
},
{
glyphname = bar;
layers = (
{
hints = (
{
horizontal = 1;
place = "{-168, 935}";
type = Stem;
},
{
place = "{249, 73}";
type = Stem;
}
);
layerId = "89E2520C-A138-4547-B47C-84DD62C3AEAF";
paths = (
{
closed = 1;
nodes = (
"249 767 LINE",
"249 -168 LINE",
"322 -168 LINE",
"322 767 LINE"
);
}
);
width = 570;
}
);
unicode = 007C;
},
{
glyphname = braceright;
layers = (
{
hints = (
{
horizontal = 1;
place = "{-155, 888}";
type = Stem;
},
{
place = "{172, 82}";
type = Stem;
}
);
layerId = "89E2520C-A138-4547-B47C-84DD62C3AEAF";
paths = (
{
closed = 1;
nodes = (
"363 325 LINE",
"230 322 OFFCURVE",
"256 435 OFFCURVE",
"256 527 CURVE SMOOTH",
"256 685 OFFCURVE",
"214 725 OFFCURVE",
"54 733 CURVE",
"42 675 LINE",
"119 659 OFFCURVE",
"172 645 OFFCURVE",
"172 555 CURVE SMOOTH",
"172 441 OFFCURVE",
"147 345 OFFCURVE",
"266 289 CURVE",
"147 233 OFFCURVE",
"172 137 OFFCURVE",
"172 23 CURVE SMOOTH",
"172 -67 OFFCURVE",
"119 -81 OFFCURVE",
"42 -97 CURVE",
"54 -155 LINE",
"286 -144 OFFCURVE",
"254 -46 OFFCURVE",
"254 147 CURVE SMOOTH",
"254 222 OFFCURVE",
"291 252 OFFCURVE",
"363 252 CURVE"
);
}
);
width = 405;
}
);
unicode = 007D;
},
{
glyphname = asciitilde;
layers = (
{
hints = (
{
place = "{53, 416}";
type = Stem;
},
{
horizontal = 1;
place = "{235, 74}";
type = Stem;
},
{
horizontal = 1;
place = "{290, 74}";
type = Stem;
}
);
layerId = "89E2520C-A138-4547-B47C-84DD62C3AEAF";
paths = (
{
closed = 1;
nodes = (
"419 369 LINE",
"402 332 OFFCURVE",
"374 309 OFFCURVE",
"342 309 CURVE SMOOTH",
"291 309 OFFCURVE",
"247 364 OFFCURVE",
"177 364 CURVE SMOOTH",
"117 364 OFFCURVE",
"82 325 OFFCURVE",
"53 253 CURVE",
"102 229 LINE",
"121 268 OFFCURVE",
"143 290 OFFCURVE",
"178 290 CURVE SMOOTH",
"234 290 OFFCURVE",
"290 235 OFFCURVE",
"351 235 CURVE SMOOTH",
"406 235 OFFCURVE",
"442 279 OFFCURVE",
"469 347 CURVE"
);
}
);
width = 523;
}
);
unicode = 007E;
},
{
glyphname = exclamdown;
layers = (
{
hints = (
{
place = "{85, 120}";
type = Stem;
},
{
place = "{107, 76}";
type = Stem;
},
{
horizontal = 1;
place = "{418, 117}";
type = Stem;
}
);
layerId = "89E2520C-A138-4547-B47C-84DD62C3AEAF";
paths = (
{
closed = 1;
nodes = (
"205 513 OFFCURVE",
"176 535 OFFCURVE",
"145 535 CURVE SMOOTH",
"112 535 OFFCURVE",
"85 513 OFFCURVE",
"85 477 CURVE SMOOTH",
"85 444 OFFCURVE",
"112 418 OFFCURVE",
"145 418 CURVE SMOOTH",
"176 418 OFFCURVE",
"205 444 OFFCURVE",
"205 477 CURVE SMOOTH"
);
},
{
closed = 1;
nodes = (
"194 -179 LINE",
"173 324 LINE",
"118 324 LINE",
"96 -179 LINE"
);
}
);
width = 291;
}
);
unicode = 00A1;
},
{
glyphname = cent;
layers = (
{
hints = (
{
place = "{35, 81}";
type = Stem;
},
{
place = "{275, 63}";
type = Stem;
},
{
horizontal = 1;
place = "{122, 70}";
type = Stem;
},
{
horizontal = 1;
place = "{544, 161}";
type = Stem;
},
{
horizontal = 1;
place = "{550, 155}";
type = Stem;
},
{
horizontal = 1;
place = "{619, 86}";
type = Stem;
}
);
layerId = "89E2520C-A138-4547-B47C-84DD62C3AEAF";
paths = (
{
closed = 1;
nodes = (
"443 568 LINE",
"408 595 OFFCURVE",
"371 612 OFFCURVE",
"335 619 CURVE",
"343 705 LINE",
"280 705 LINE",
"271 624 LINE",
"130 616 OFFCURVE",
"35 514 OFFCURVE",
"35 371 CURVE SMOOTH",
"35 257 OFFCURVE",
"108 160 OFFCURVE",
"217 131 CURVE",
"205 36 LINE",
"270 36 LINE",
"281 122 LINE",
"350 122 OFFCURVE",
"402 145 OFFCURVE",
"442 184 CURVE",
"442 268 LINE",
"401 225 OFFCURVE",
"345 192 OFFCURVE",
"286 192 CURVE",
"325 544 LINE",
"376 539 OFFCURVE",
"420 512 OFFCURVE",
"443 485 CURVE"
);
},
{
closed = 1;
nodes = (
"225 201 LINE",
"157 234 OFFCURVE",
"116 288 OFFCURVE",
"116 375 CURVE SMOOTH",
"116 482 OFFCURVE",
"172 543 OFFCURVE",
"264 550 CURVE"
);
}
);
width = 488;
}
);
unicode = 00A2;
},
{
glyphname = sterling;
layers = (
{
hints = (
{
horizontal = 1;
place = "{0, 73}";
type = Stem;
},
{
horizontal = 1;
place = "{305, 68}";
type = Stem;
},
{
horizontal = 1;
place = "{640, 77}";
type = Stem;
},
{
place = "{96, 86}";
type = Stem;
}
);
layerId = "89E2520C-A138-4547-B47C-84DD62C3AEAF";
paths = (
{
closed = 1;
nodes = (
"432 373 LINE",
"182 373 LINE",
"182 475 LINE SMOOTH",
"182 563 OFFCURVE",
"220 640 OFFCURVE",
"319 640 CURVE SMOOTH",
"390 640 OFFCURVE",
"428 611 OFFCURVE",
"464 566 CURVE",
"520 620 LINE",
"473 679 OFFCURVE",
"409 717 OFFCURVE",
"321 717 CURVE SMOOTH",
"177 717 OFFCURVE",
"96 615 OFFCURVE",
"96 476 CURVE SMOOTH",
"96 373 LINE",
"30 373 LINE",
"30 305 LINE",
"96 305 LINE",
"96 0 LINE",
"512 0 LINE",
"512 73 LINE",
"182 73 LINE",
"182 305 LINE",
"432 305 LINE"
);
}
);
width = 543;
}
);
unicode = 00A3;
},
{
glyphname = currency;
layers = (
{
hints = (
{
horizontal = 1;
place = "{74, 75}";
type = Stem;
},
{
horizontal = 1;
place = "{507, 75}";
type = Stem;
},
{
place = "{93, 80}";
type = Stem;
},
{
place = "{520, 83}";
type = Stem;
}
);
layerId = "89E2520C-A138-4547-B47C-84DD62C3AEAF";
paths = (
{
closed = 1;
nodes = (
"595 624 LINE",
"501 531 LINE",
"458 564 OFFCURVE",
"406 582 OFFCURVE",
"347 582 CURVE SMOOTH",
"291 582 OFFCURVE",
"236 565 OFFCURVE",
"191 530 CURVE",
"96 624 LINE",
"47 574 LINE",
"141 481 LINE",
"106 432 OFFCURVE",
"93 391 OFFCURVE",
"93 328 CURVE SMOOTH",
"93 264 OFFCURVE",
"109 217 OFFCURVE",
"144 174 CURVE",
"47 77 LINE",
"96 27 LINE",
"194 123 LINE",
"241 90 OFFCURVE",
"291 74 OFFCURVE",
"347 74 CURVE SMOOTH",
"403 74 OFFCURVE",
"453 90 OFFCURVE",
"500 122 CURVE",
"596 27 LINE",
"646 77 LINE",
"551 171 LINE",
"584 216 OFFCURVE",
"603 267 OFFCURVE",
"603 328 CURVE SMOOTH",
"603 389 OFFCURVE",
"585 434 OFFCURVE",
"553 483 CURVE",
"646 574 LINE"
);
},
{
closed = 1;
nodes = (
"450 507 OFFCURVE",
"520 431 OFFCURVE",
"520 327 CURVE SMOOTH",
"520 228 OFFCURVE",
"450 149 OFFCURVE",
"347 149 CURVE SMOOTH",
"243 149 OFFCURVE",
"173 229 OFFCURVE",
"173 328 CURVE SMOOTH",
"173 427 OFFCURVE",
"243 507 OFFCURVE",
"347 507 CURVE SMOOTH"
);
}
);
width = 693;
}
);
unicode = 00A4;
},
{
glyphname = yen;
layers = (
{
hints = (
{
place = "{251, 90}";
type = Stem;
},
{
place = "{255, 81}";
type = Stem;
},
{
horizontal = 1;
place = "{0, 213}";
type = Stem;
},
{
horizontal = 1;
place = "{146, 67}";
type = Stem;
},
{
horizontal = 1;
place = "{303, 67}";
type = Stem;
},
{
horizontal = 1;
place = "{705, -20}";
target = down;
type = TopGhost;
}
);
layerId = "89E2520C-A138-4547-B47C-84DD62C3AEAF";
paths = (
{
closed = 1;
nodes = (
"70 213 LINE",
"70 146 LINE",
"255 146 LINE",
"255 0 LINE",
"336 0 LINE",
"336 146 LINE",
"520 146 LINE",
"520 213 LINE",
"338 213 LINE",
"344 303 LINE",
"520 303 LINE",
"520 370 LINE",
"376 370 LINE",
"590 705 LINE",
"495 705 LINE",
"298 372 LINE",
"99 705 LINE",
"1 705 LINE",
"215 370 LINE",
"70 370 LINE",
"70 303 LINE",
"246 303 LINE",
"256 213 LINE"
);
}
);
width = 590;
}
);
unicode = 00A5;
},
{
glyphname = brokenbar;
layers = (
{
hints = (
{
horizontal = 1;
place = "{-174, 855}";
type = Stem;
},
{
place = "{249, 76}";
type = Stem;
}
);
layerId = "89E2520C-A138-4547-B47C-84DD62C3AEAF";
paths = (
{
closed = 1;
nodes = (
"249 681 LINE",
"249 328 LINE",
"325 328 LINE",
"325 681 LINE"
);
},
{
closed = 1;
nodes = (
"249 173 LINE",
"249 -174 LINE",
"325 -174 LINE",
"325 173 LINE"
);
}
);
width = 573;
}
);
unicode = 00A6;
},
{
glyphname = section;
layers = (
{
hints = (
{
place = "{35, 77}";
type = Stem;
},
{
place = "{86, 82}";
type = Stem;
},
{
place = "{374, 82}";
type = Stem;
},
{
place = "{429, 77}";
type = Stem;
},
{
horizontal = 1;
place = "{-86, 68}";
type = Stem;
},
{
horizontal = 1;
place = "{654, 68}";
type = Stem;
}
);
layerId = "89E2520C-A138-4547-B47C-84DD62C3AEAF";
paths = (
{
closed = 1;
nodes = (
"430 668 LINE",
"390 701 OFFCURVE",
"334 722 OFFCURVE",
"269 722 CURVE SMOOTH",
"166 722 OFFCURVE",
"86 667 OFFCURVE",
"86 584 CURVE SMOOTH",
"86 531 OFFCURVE",
"120 491 OFFCURVE",
"159 464 CURVE",
"78 445 OFFCURVE",
"35 402 OFFCURVE",
"35 334 CURVE SMOOTH",
"35 268 OFFCURVE",
"78 216 OFFCURVE",
"217 173 CURVE SMOOTH",
"317 142 OFFCURVE",
"374 106 OFFCURVE",
"374 59 CURVE SMOOTH",
"374 8 OFFCURVE",
"335 -18 OFFCURVE",
"272 -18 CURVE SMOOTH",
"207 -18 OFFCURVE",
"147 4 OFFCURVE",
"102 55 CURVE",
"102 -25 LINE",
"145 -62 OFFCURVE",
"200 -86 OFFCURVE",
"271 -86 CURVE SMOOTH",
"378 -86 OFFCURVE",
"456 -27 OFFCURVE",
"456 62 CURVE SMOOTH",
"456 107 OFFCURVE",
"432 144 OFFCURVE",
"385 179 CURVE",
"462 199 OFFCURVE",
"506 238 OFFCURVE",
"506 309 CURVE SMOOTH",
"506 372 OFFCURVE",
"476 417 OFFCURVE",
"319 470 CURVE SMOOTH",
"202 510 OFFCURVE",
"168 549 OFFCURVE",
"168 583 CURVE SMOOTH",
"168 631 OFFCURVE",
"212 654 OFFCURVE",
"275 654 CURVE SMOOTH",
"336 654 OFFCURVE",
"379 631 OFFCURVE",
"430 588 CURVE"
);
},
{
closed = 1;
nodes = (
"429 247 OFFCURVE",
"391 218 OFFCURVE",
"331 218 CURVE",
"200 237 OFFCURVE",
"112 284 OFFCURVE",
"112 345 CURVE SMOOTH",
"112 392 OFFCURVE",
"153 417 OFFCURVE",
"213 424 CURVE",
"274 413 OFFCURVE",
"429 367 OFFCURVE",
"429 287 CURVE SMOOTH"
);
}
);
width = 556;
}
);
unicode = 00A7;
},
{
glyphname = dieresis;
layers = (
{
hints = (
{
horizontal = 1;
place = "{626, 118}";
type = Stem;
},
{
place = "{30, 119}";
type = Stem;
},
{
place = "{222, 116}";
type = Stem;
}
);
layerId = "89E2520C-A138-4547-B47C-84DD62C3AEAF";
paths = (
{
closed = 1;
nodes = (
"30 652 OFFCURVE",
"54 626 OFFCURVE",
"89 626 CURVE SMOOTH",
"121 626 OFFCURVE",
"149 652 OFFCURVE",
"149 685 CURVE SMOOTH",
"149 717 OFFCURVE",
"121 744 OFFCURVE",
"89 744 CURVE SMOOTH",
"54 744 OFFCURVE",
"30 717 OFFCURVE",
"30 685 CURVE SMOOTH"
);
},
{
closed = 1;
nodes = (
"222 652 OFFCURVE",
"247 626 OFFCURVE",
"279 626 CURVE SMOOTH",
"314 626 OFFCURVE",
"338 652 OFFCURVE",
"338 685 CURVE SMOOTH",
"338 717 OFFCURVE",
"314 744 OFFCURVE",
"279 744 CURVE SMOOTH",
"247 744 OFFCURVE",
"222 717 OFFCURVE",
"222 685 CURVE SMOOTH"
);
}
);
width = 368;
}
);
unicode = 00A8;
},
{
glyphname = copyright;
layers = (
{
hints = (
{
horizontal = 1;
place = "{-36, 69}";
type = Stem;
},
{
horizontal = 1;
place = "{133, 72}";
type = Stem;
},
{
horizontal = 1;
place = "{522, 72}";
type = Stem;
},
{
horizontal = 1;
place = "{684, 69}";
type = Stem;
},
{
place = "{37, 65}";
type = Stem;
},
{
place = "{211, 82}";
type = Stem;
},
{
place = "{753, 65}";
type = Stem;
}
);
layerId = "89E2520C-A138-4547-B47C-84DD62C3AEAF";
paths = (
{
closed = 1;
nodes = (
"644 -36 OFFCURVE",
"818 138 OFFCURVE",
"818 358 CURVE SMOOTH",
"818 577 OFFCURVE",
"641 753 OFFCURVE",
"427 753 CURVE SMOOTH",
"214 753 OFFCURVE",
"37 575 OFFCURVE",
"37 362 CURVE SMOOTH",
"37 141 OFFCURVE",
"208 -36 OFFCURVE",
"428 -36 CURVE SMOOTH"
);
},
{
closed = 1;
nodes = (
"247 33 OFFCURVE",
"102 180 OFFCURVE",
"102 360 CURVE SMOOTH",
"102 539 OFFCURVE",
"248 684 OFFCURVE",
"428 684 CURVE SMOOTH",
"607 684 OFFCURVE",
"753 538 OFFCURVE",
"753 358 CURVE SMOOTH",
"753 178 OFFCURVE",
"607 33 OFFCURVE",
"428 33 CURVE SMOOTH"
);
},
{
closed = 1;
nodes = (
"559 258 LINE",
"512 215 OFFCURVE",
"469 205 OFFCURVE",
"436 205 CURVE SMOOTH",
"348 205 OFFCURVE",
"293 276 OFFCURVE",
"293 366 CURVE SMOOTH",
"293 454 OFFCURVE",
"353 522 OFFCURVE",
"433 522 CURVE SMOOTH",
"480 522 OFFCURVE",
"528 501 OFFCURVE",
"561 468 CURVE",
"561 549 LINE",
"534 570 OFFCURVE",
"487 594 OFFCURVE",
"427 594 CURVE SMOOTH",
"296 594 OFFCURVE",
"211 496 OFFCURVE",
"211 366 CURVE SMOOTH",
"211 234 OFFCURVE",
"298 133 OFFCURVE",
"425 133 CURVE SMOOTH",
"481 133 OFFCURVE",
"523 152 OFFCURVE",
"559 184 CURVE"
);
}
);
width = 854;
}
);
unicode = 00A9;
},
{
glyphname = ordfeminine;
layers = (
{
hints = (
{
horizontal = 1;
place = "{304, 47}";
type = Stem;
},
{
horizontal = 1;
place = "{425, 42}";
type = Stem;
},
{
horizontal = 1;
place = "{573, 38}";
type = Stem;
},
{
horizontal = 1;
place = "{675, 47}";
type = Stem;
},
{
place = "{24, 51}";
type = Stem;
},
{
place = "{226, 51}";
type = Stem;
}
);
layerId = "89E2520C-A138-4547-B47C-84DD62C3AEAF";
paths = (
{
closed = 1;
nodes = (
"169 425 OFFCURVE",
"203 444 OFFCURVE",
"226 473 CURVE",
"226 431 LINE",
"277 431 LINE",
"277 605 LINE SMOOTH",
"277 685 OFFCURVE",
"225 722 OFFCURVE",
"153 722 CURVE SMOOTH",
"114 722 OFFCURVE",
"77 711 OFFCURVE",
"48 696 CURVE",
"64 652 LINE",
"89 667 OFFCURVE",
"117 675 OFFCURVE",
"148 675 CURVE SMOOTH",
"196 675 OFFCURVE",
"226 653 OFFCURVE",
"226 605 CURVE SMOOTH",
"226 597 LINE",
"199 605 OFFCURVE",
"179 611 OFFCURVE",
"146 611 CURVE SMOOTH",
"74 611 OFFCURVE",
"24 580 OFFCURVE",
"24 515 CURVE SMOOTH",
"24 456 OFFCURVE",
"79 425 OFFCURVE",
"129 425 CURVE SMOOTH"
);
},
{
closed = 1;
nodes = (
"104 467 OFFCURVE",
"75 483 OFFCURVE",
"75 518 CURVE SMOOTH",
"75 553 OFFCURVE",
"103 573 OFFCURVE",
"151 573 CURVE SMOOTH",
"182 573 OFFCURVE",
"206 567 OFFCURVE",
"226 558 CURVE",
"226 537 LINE SMOOTH",
"226 494 OFFCURVE",
"187 467 OFFCURVE",
"140 467 CURVE SMOOTH"
);
},
{
closed = 1;
nodes = (
"20 304 LINE",
"282 304 LINE",
"282 351 LINE",
"20 351 LINE"
);
}
);
width = 320;
}
);
unicode = 00AA;
},
{
glyphname = guillemotleft;
layers = (
{
hints = (
{
horizontal = 1;
place = "{43, 418}";
type = Stem;
},
{
place = "{47, 430}";
type = Stem;
}
);
layerId = "89E2520C-A138-4547-B47C-84DD62C3AEAF";
paths = (
{
closed = 1;
nodes = (
"138 253 LINE",
"268 437 LINE",
"199 461 LINE",
"47 250 LINE",
"199 43 LINE",
"266 72 LINE"
);
},
{
closed = 1;
nodes = (
"347 253 LINE",
"477 437 LINE",
"408 461 LINE",
"256 250 LINE",
"408 43 LINE",
"475 72 LINE"
);
}
);
width = 534;
}
);
unicode = 00AB;
},
{
glyphname = logicalnot;
layers = (
{
hints = (
{
horizontal = 1;
place = "{340, 71}";
type = Stem;
},
{
place = "{483, 69}";
type = Stem;
}
);
layerId = "89E2520C-A138-4547-B47C-84DD62C3AEAF";
paths = (
{
closed = 1;
nodes = (
"552 411 LINE",
"40 411 LINE",
"40 340 LINE",
"483 340 LINE",
"483 129 LINE",
"552 129 LINE"
);
}
);
width = 591;
}
);
unicode = 00AC;
},
{
glyphname = uni00AD;
layers = (
{
hints = (
{
horizontal = 1;
place = "{234, 77}";
type = Stem;
},
{
place = "{31, 271}";
type = Stem;
}
);
layerId = "89E2520C-A138-4547-B47C-84DD62C3AEAF";
paths = (
{
closed = 1;
nodes = (
"302 311 LINE",
"31 311 LINE",
"31 234 LINE",
"302 234 LINE"
);
}
);
width = 333;
}
);
unicode = 00AD;
},
{
glyphname = registered;
layers = (
{
hints = (
{
horizontal = 1;
place = "{-1, 61}";
type = Stem;
},
{
horizontal = 1;
place = "{324, 65}";
type = Stem;
},
{
horizontal = 1;
place = "{509, 61}";
type = Stem;
},
{
horizontal = 1;
place = "{651, 61}";
type = Stem;
},
{
place = "{21, 64}";
type = Stem;
},
{
place = "{253, 71}";
type = Stem;
},
{
place = "{455, 64}";
type = Stem;
},
{
place = "{678, 64}";
type = Stem;
}
);
layerId = "89E2520C-A138-4547-B47C-84DD62C3AEAF";
paths = (
{
closed = 1;
nodes = (
"21 161 OFFCURVE",
"183 -1 OFFCURVE",
"383 -1 CURVE SMOOTH",
"576 -1 OFFCURVE",
"742 162 OFFCURVE",
"742 357 CURVE SMOOTH",
"742 552 OFFCURVE",
"580 712 OFFCURVE",
"386 712 CURVE SMOOTH",
"183 712 OFFCURVE",
"21 555 OFFCURVE",
"21 357 CURVE SMOOTH"
);
},
{
closed = 1;
nodes = (
"85 521 OFFCURVE",
"218 651 OFFCURVE",
"385 651 CURVE SMOOTH",
"544 651 OFFCURVE",
"678 519 OFFCURVE",
"678 358 CURVE SMOOTH",
"678 197 OFFCURVE",
"547 60 OFFCURVE",
"383 60 CURVE SMOOTH",
"215 60 OFFCURVE",
"85 194 OFFCURVE",
"85 357 CURVE SMOOTH"
);
},
{
closed = 1;
nodes = (
"253 143 LINE",
"324 143 LINE",
"324 324 LINE",
"337 324 LINE",
"479 143 LINE",
"563 143 LINE",
"412 332 LINE",
"469 343 OFFCURVE",
"519 389 OFFCURVE",
"519 454 CURVE SMOOTH",
"519 526 OFFCURVE",
"462 570 OFFCURVE",
"394 570 CURVE SMOOTH",
"253 570 LINE"
);
},
{
closed = 1;
nodes = (
"324 389 LINE",
"324 509 LINE",
"380 509 LINE SMOOTH",
"431 509 OFFCURVE",
"455 479 OFFCURVE",
"455 448 CURVE SMOOTH",
"455 411 OFFCURVE",
"421 389 OFFCURVE",
"378 389 CURVE SMOOTH"
);
}
);
width = 762;
}
);
unicode = 00AE;
},
{
glyphname = degree;
layers = (
{
hints = (
{
horizontal = 1;
place = "{431, 54}";
type = Stem;
},
{
horizontal = 1;
place = "{669, 54}";
type = Stem;
},
{
place = "{37, 57}";
type = Stem;
},
{
place = "{276, 57}";
type = Stem;
}
);
layerId = "89E2520C-A138-4547-B47C-84DD62C3AEAF";
paths = (
{
closed = 1;
nodes = (
"333 659 OFFCURVE",
"268 723 OFFCURVE",
"185 723 CURVE SMOOTH",
"106 723 OFFCURVE",
"37 656 OFFCURVE",
"37 576 CURVE SMOOTH",
"37 496 OFFCURVE",
"105 431 OFFCURVE",
"185 431 CURVE SMOOTH",
"266 431 OFFCURVE",
"333 496 OFFCURVE",
"333 577 CURVE SMOOTH"
);
},
{
closed = 1;
nodes = (
"276 522 OFFCURVE",
"236 485 OFFCURVE",
"185 485 CURVE SMOOTH",
"133 485 OFFCURVE",
"94 526 OFFCURVE",
"94 577 CURVE SMOOTH",
"94 625 OFFCURVE",
"134 669 OFFCURVE",
"185 669 CURVE SMOOTH",
"236 669 OFFCURVE",
"276 628 OFFCURVE",
"276 577 CURVE SMOOTH"
);
}
);
width = 370;
}
);
unicode = 00B0;
},
{
glyphname = plusminus;
layers = (
{
hints = (
{
horizontal = 1;
place = "{34, 70}";
type = Stem;
},
{
horizontal = 1;
place = "{339, 70}";
type = Stem;
},
{
place = "{261, 69}";
type = Stem;
}
);
layerId = "89E2520C-A138-4547-B47C-84DD62C3AEAF";
paths = (
{
closed = 1;
nodes = (
"47 339 LINE",
"261 339 LINE",
"261 181 LINE",
"330 181 LINE",
"330 339 LINE",
"544 339 LINE",
"544 409 LINE",
"330 409 LINE",
"330 573 LINE",
"261 573 LINE",
"261 409 LINE",
"47 409 LINE"
);
},
{
closed = 1;
nodes = (
"47 34 LINE",
"544 34 LINE",
"544 104 LINE",
"47 104 LINE"
);
}
);
width = 591;
}
);
unicode = 00B1;
},
{
glyphname = twosuperior;
layers = (
{
hints = (
{
horizontal = 1;
place = "{285, 57}";
type = Stem;
},
{
horizontal = 1;
place = "{663, 57}";
type = Stem;
},
{
place = "{232, 68}";
type = Stem;
}
);
layerId = "89E2520C-A138-4547-B47C-84DD62C3AEAF";
paths = (
{
closed = 1;
nodes = (
"13 285 LINE",
"271 285 LINE",
"302 342 LINE",
"137 342 LINE",
"193 411 LINE SMOOTH",
"273 507 OFFCURVE",
"300 543 OFFCURVE",
"300 598 CURVE SMOOTH",
"300 669 OFFCURVE",
"251 720 OFFCURVE",
"170 720 CURVE SMOOTH",
"129 720 OFFCURVE",
"100 708 OFFCURVE",
"55 669 CURVE",
"95 621 LINE",
"119 653 OFFCURVE",
"147 663 OFFCURVE",
"167 663 CURVE SMOOTH",
"204 663 OFFCURVE",
"232 635 OFFCURVE",
"232 598 CURVE SMOOTH",
"232 562 OFFCURVE",
"210 527 OFFCURVE",
"130 429 CURVE SMOOTH"
);
}
);
width = 333;
}
);
unicode = 00B2;
},
{
glyphname = threesuperior;
layers = (
{
hints = (
{
place = "{182, 64}";
type = Stem;
},
{
place = "{205, 64}";
type = Stem;
},
{
horizontal = 1;
place = "{278, 56}";
type = Stem;
},
{
horizontal = 1;
place = "{496, 56}";
type = Stem;
},
{
horizontal = 1;
place = "{667, 56}";
type = Stem;
},
{
horizontal = 1;
place = "{706, -20}";
target = down;
type = TopGhost;
}
);
layerId = "89E2520C-A138-4547-B47C-84DD62C3AEAF";
paths = (
{
closed = 1;
nodes = (
"9 295 LINE",
"51 282 OFFCURVE",
"85 278 OFFCURVE",
"113 278 CURVE SMOOTH",
"204 278 OFFCURVE",
"269 334 OFFCURVE",
"269 418 CURVE SMOOTH",
"269 471 OFFCURVE",
"242 505 OFFCURVE",
"187 528 CURVE",
"222 552 OFFCURVE",
"246 577 OFFCURVE",
"246 620 CURVE SMOOTH",
"246 684 OFFCURVE",
"196 723 OFFCURVE",
"120 723 CURVE SMOOTH",
"89 723 OFFCURVE",
"60 717 OFFCURVE",
"36 706 CURVE",
"33 645 LINE",
"66 661 OFFCURVE",
"95 667 OFFCURVE",
"119 667 CURVE SMOOTH",
"158 667 OFFCURVE",
"182 643 OFFCURVE",
"182 615 CURVE SMOOTH",
"182 580 OFFCURVE",
"146 552 OFFCURVE",
"95 552 CURVE SMOOTH",
"76 552 LINE",
"76 496 LINE",
"133 496 OFFCURVE",
"205 491 OFFCURVE",
"205 417 CURVE SMOOTH",
"205 370 OFFCURVE",
"167 334 OFFCURVE",
"111 334 CURVE SMOOTH",
"80 334 OFFCURVE",
"48 344 OFFCURVE",
"9 359 CURVE"
);
}
);
width = 294;
}
);
unicode = 00B3;
},
{
glyphname = acute;
layers = (
{
hints = (
{
horizontal = 1;
place = "{616, 149}";
type = Stem;
},
{
place = "{23, 187}";
type = Stem;
}
);
layerId = "89E2520C-A138-4547-B47C-84DD62C3AEAF";
paths = (
{
closed = 1;
nodes = (
"23 616 LINE",
"82 616 LINE",
"210 745 LINE",
"114 765 LINE"
);
}
);
width = 233;
}
);
unicode = 00B4;
},
{
glyphname = uni00B5;
layers = (
{
hints = (
{
place = "{73, 82}";
type = Stem;
},
{
place = "{405, 82}";
type = Stem;
},
{
horizontal = 1;
place = "{-10, 71}";
type = Stem;
},
{
horizontal = 1;
place = "{0, 21}";
target = up;
type = BottomGhost;
}
);
layerId = "89E2520C-A138-4547-B47C-84DD62C3AEAF";
paths = (
{
closed = 1;
nodes = (
"155 64 LINE",
"180 13 OFFCURVE",
"224 -10 OFFCURVE",
"271 -10 CURVE SMOOTH",
"327 -10 OFFCURVE",
"376 22 OFFCURVE",
"404 62 CURVE",
"487 0 LINE",
"487 483 LINE",
"405 483 LINE",
"405 204 LINE SMOOTH",
"405 107 OFFCURVE",
"344 61 OFFCURVE",
"271 61 CURVE SMOOTH",
"216 61 OFFCURVE",
"155 101 OFFCURVE",
"155 204 CURVE SMOOTH",
"155 483 LINE",
"73 483 LINE",
"73 -188 LINE",
"155 -188 LINE"
);
}
);
width = 564;
}
);
unicode = 00B5;
},
{
glyphname = paragraph;
layers = (
{
hints = (
{
horizontal = 1;
place = "{625, 81}";
type = Stem;
},
{
place = "{206, 79}";
type = Stem;
},
{
place = "{380, 79}";
type = Stem;
}
);
layerId = "89E2520C-A138-4547-B47C-84DD62C3AEAF";
paths = (
{
closed = 1;
nodes = (
"285 -104 LINE",
"285 625 LINE",
"380 625 LINE",
"380 -104 LINE",
"459 -104 LINE",
"459 625 LINE",
"492 625 LINE",
"536 706 LINE",
"230 706 LINE SMOOTH",
"109 706 OFFCURVE",
"33 645 OFFCURVE",
"33 532 CURVE SMOOTH",
"33 409 OFFCURVE",
"119 379 OFFCURVE",
"206 361 CURVE",
"206 -104 LINE"
);
}
);
width = 632;
}
);
unicode = 00B6;
},
{
glyphname = periodcentered;
layers = (
{
hints = (
{
horizontal = 1;
place = "{291, 120}";
type = Stem;
},
{
place = "{85, 119}";
type = Stem;
}
);
layerId = "89E2520C-A138-4547-B47C-84DD62C3AEAF";
paths = (
{
closed = 1;
nodes = (
"85 319 OFFCURVE",
"112 291 OFFCURVE",
"145 291 CURVE SMOOTH",
"177 291 OFFCURVE",
"204 319 OFFCURVE",
"204 351 CURVE SMOOTH",
"204 384 OFFCURVE",
"177 411 OFFCURVE",
"145 411 CURVE SMOOTH",
"112 411 OFFCURVE",
"85 384 OFFCURVE",
"85 351 CURVE SMOOTH"
);
}
);
width = 290;
}
);
unicode = 00B7;
},
{
glyphname = cedilla;
layers = (
{
hints = (
{
horizontal = 1;
place = "{-221, 51}";
type = Stem;
},
{
horizontal = 1;
place = "{-94, 24}";
type = Stem;
},
{
place = "{155, 78}";
type = Stem;
}
);
layerId = "89E2520C-A138-4547-B47C-84DD62C3AEAF";
paths = (
{
closed = 1;
nodes = (
"191 0 LINE",
"126 0 LINE",
"66 -88 LINE",
"83 -101 LINE",
"95 -96 OFFCURVE",
"103 -94 OFFCURVE",
"114 -94 CURVE SMOOTH",
"138 -94 OFFCURVE",
"155 -104 OFFCURVE",
"155 -125 CURVE SMOOTH",
"155 -160 OFFCURVE",
"113 -170 OFFCURVE",
"90 -170 CURVE SMOOTH",
"75 -170 OFFCURVE",
"60 -167 OFFCURVE",
"41 -160 CURVE",
"30 -201 LINE",
"55 -213 OFFCURVE",
"81 -221 OFFCURVE",
"113 -221 CURVE SMOOTH",
"164 -221 OFFCURVE",
"233 -198 OFFCURVE",
"233 -135 CURVE SMOOTH",
"233 -83 OFFCURVE",
"185 -70 OFFCURVE",
"153 -70 CURVE SMOOTH",
"150 -70 LINE"
);
}
);
width = 273;
}
);
unicode = 00B8;
},
{
glyphname = onesuperior;
layers = (
{
hints = (
{
horizontal = 1;
place = "{714, -20}";
target = down;
type = TopGhost;
},
{
place = "{80, 68}";
type = Stem;
}
);
layerId = "89E2520C-A138-4547-B47C-84DD62C3AEAF";
paths = (
{
closed = 1;
nodes = (
"80 286 LINE",
"148 286 LINE",
"148 714 LINE",
"94 714 LINE",
"80 686 OFFCURVE",
"57 660 OFFCURVE",
"23 631 CURVE",
"23 562 LINE",
"40 574 OFFCURVE",
"64 596 OFFCURVE",
"80 619 CURVE"
);
}
);
width = 219;
}
);
unicode = 00B9;
},
{
glyphname = ordmasculine;
layers = (
{
hints = (
{
horizontal = 1;
place = "{304, 47}";
type = Stem;
},
{
horizontal = 1;
place = "{423, 50}";
type = Stem;
},
{
horizontal = 1;
place = "{673, 50}";
type = Stem;
},
{
place = "{20, 54}";
type = Stem;
},
{
place = "{262, 54}";
type = Stem;
}
);
layerId = "89E2520C-A138-4547-B47C-84DD62C3AEAF";
paths = (
{
closed = 1;
nodes = (
"251 423 OFFCURVE",
"316 492 OFFCURVE",
"316 576 CURVE SMOOTH",
"316 653 OFFCURVE",
"254 723 OFFCURVE",
"169 723 CURVE SMOOTH",
"83 723 OFFCURVE",
"20 655 OFFCURVE",
"20 572 CURVE SMOOTH",
"20 491 OFFCURVE",
"82 423 OFFCURVE",
"167 423 CURVE SMOOTH"
);
},
{
closed = 1;
nodes = (
"114 473 OFFCURVE",
"74 516 OFFCURVE",
"74 576 CURVE SMOOTH",
"74 627 OFFCURVE",
"110 673 OFFCURVE",
"167 673 CURVE SMOOTH",
"222 673 OFFCURVE",
"262 631 OFFCURVE",
"262 572 CURVE SMOOTH",
"262 516 OFFCURVE",
"225 473 OFFCURVE",
"169 473 CURVE SMOOTH"
);
},
{
closed = 1;
nodes = (
"24 304 LINE",
"312 304 LINE",
"312 351 LINE",
"24 351 LINE"
);
}
);
width = 336;
}
);
unicode = 00BA;
},
{
glyphname = guillemotright;
layers = (
{
hints = (
{
horizontal = 1;
place = "{43, 418}";
type = Stem;
},
{
place = "{51, 429}";
type = Stem;
}
);
layerId = "89E2520C-A138-4547-B47C-84DD62C3AEAF";
paths = (
{
closed = 1;
nodes = (
"53 72 LINE",
"120 43 LINE",
"272 250 LINE",
"120 461 LINE",
"51 437 LINE",
"181 253 LINE"
);
},
{
closed = 1;
nodes = (
"261 72 LINE",
"328 43 LINE",
"480 250 LINE",
"328 461 LINE",
"259 437 LINE",
"389 253 LINE"
);
}
);
width = 534;
}
);
unicode = 00BB;
},
{
glyphname = onequarter;
layers = (
{
hints = (
{
place = "{73, 68}";
type = Stem;
},
{
place = "{497, 68}";
type = Stem;
},
{
horizontal = 1;
place = "{1, 125}";
type = Stem;
},
{
horizontal = 1;
place = "{71, 55}";
type = Stem;
},
{
horizontal = 1;
place = "{714, -20}";
target = down;
type = TopGhost;
}
);
layerId = "89E2520C-A138-4547-B47C-84DD62C3AEAF";
paths = (
{
closed = 1;
nodes = (
"555 749 LINE",
"484 764 LINE",
"30 -44 LINE",
"99 -57 LINE"
);
},
{
closed = 1;
nodes = (
"73 286 LINE",
"141 286 LINE",
"141 714 LINE",
"87 714 LINE",
"73 686 OFFCURVE",
"50 660 OFFCURVE",
"16 631 CURVE",
"16 562 LINE",
"33 574 OFFCURVE",
"57 596 OFFCURVE",
"73 619 CURVE"
);
},
{
closed = 1;
nodes = (
"309 71 LINE",
"382 71 OFFCURVE",
"440 71 OFFCURVE",
"497 71 CURVE",
"497 1 LINE",
"565 1 LINE",
"565 71 LINE",
"589 71 LINE",
"607 126 LINE",
"565 126 LINE",
"565 429 LINE",
"520 429 LINE",
"309 106 LINE"
);
},
{
closed = 1;
nodes = (
"390 126 LINE",
"430 187 OFFCURVE",
"485 273 OFFCURVE",
"496 289 CURVE",
"496 290 OFFCURVE",
"497 291 OFFCURVE",
"497 291 CURVE",
"497 126 LINE"
);
}
);
width = 628;
}
);
unicode = 00BC;
},
{
glyphname = onehalf;
layers = (
{
hints = (
{
horizontal = 1;
place = "{-1, 57}";
type = Stem;
},
{
horizontal = 1;
place = "{377, 57}";
type = Stem;
},
{
horizontal = 1;
place = "{714, -20}";
target = down;
type = TopGhost;
},
{
place = "{77, 68}";
type = Stem;
},
{
place = "{570, 68}";
type = Stem;
}
);
layerId = "89E2520C-A138-4547-B47C-84DD62C3AEAF";
paths = (
{
closed = 1;
nodes = (
"541 749 LINE",
"470 764 LINE",
"16 -44 LINE",
"85 -57 LINE"
);
},
{
closed = 1;
nodes = (
"77 286 LINE",
"145 286 LINE",
"145 714 LINE",
"91 714 LINE",
"77 686 OFFCURVE",
"54 660 OFFCURVE",
"20 631 CURVE",
"20 562 LINE",
"37 574 OFFCURVE",
"61 596 OFFCURVE",
"77 619 CURVE"
);
},
{
closed = 1;
nodes = (
"351 -1 LINE",
"609 -1 LINE",
"640 56 LINE",
"475 56 LINE",
"531 125 LINE SMOOTH",
"611 221 OFFCURVE",
"638 257 OFFCURVE",
"638 312 CURVE SMOOTH",
"638 383 OFFCURVE",
"589 434 OFFCURVE",
"508 434 CURVE SMOOTH",
"467 434 OFFCURVE",
"438 422 OFFCURVE",
"393 383 CURVE",
"433 335 LINE",
"457 367 OFFCURVE",
"485 377 OFFCURVE",
"505 377 CURVE SMOOTH",
"542 377 OFFCURVE",
"570 349 OFFCURVE",
"570 312 CURVE SMOOTH",
"570 276 OFFCURVE",
"548 241 OFFCURVE",
"468 143 CURVE SMOOTH"
);
}
);
width = 682;
}
);
unicode = 00BD;
},
{
glyphname = threequarters;
layers = (
{
hints = (
{
place = "{215, 64}";
type = Stem;
},
{
place = "{238, 64}";
type = Stem;
},
{
place = "{596, 68}";
type = Stem;
},
{
horizontal = 1;
place = "{1, 125}";
type = Stem;
},
{
horizontal = 1;
place = "{71, 55}";
type = Stem;
},
{
horizontal = 1;
place = "{278, 56}";
type = Stem;
},
{
horizontal = 1;
place = "{496, 56}";
type = Stem;
},
{
horizontal = 1;
place = "{667, 56}";
type = Stem;
},
{
horizontal = 1;
place = "{706, -20}";
target = down;
type = TopGhost;
}
);
layerId = "89E2520C-A138-4547-B47C-84DD62C3AEAF";
paths = (
{
closed = 1;
nodes = (
"660 749 LINE",
"589 764 LINE",
"135 -44 LINE",
"204 -57 LINE"
);
},
{
closed = 1;
nodes = (
"42 295 LINE",
"84 282 OFFCURVE",
"118 278 OFFCURVE",
"146 278 CURVE SMOOTH",
"237 278 OFFCURVE",
"302 334 OFFCURVE",
"302 418 CURVE SMOOTH",
"302 471 OFFCURVE",
"275 505 OFFCURVE",
"220 528 CURVE",
"255 552 OFFCURVE",
"279 577 OFFCURVE",
"279 620 CURVE SMOOTH",
"279 684 OFFCURVE",
"229 723 OFFCURVE",
"153 723 CURVE SMOOTH",
"122 723 OFFCURVE",
"93 717 OFFCURVE",
"69 706 CURVE",
"66 645 LINE",
"99 661 OFFCURVE",
"128 667 OFFCURVE",
"152 667 CURVE SMOOTH",
"191 667 OFFCURVE",
"215 643 OFFCURVE",
"215 615 CURVE SMOOTH",
"215 580 OFFCURVE",
"179 552 OFFCURVE",
"128 552 CURVE SMOOTH",
"109 552 LINE",
"109 496 LINE",
"166 496 OFFCURVE",
"238 491 OFFCURVE",
"238 417 CURVE SMOOTH",
"238 370 OFFCURVE",
"200 334 OFFCURVE",
"144 334 CURVE SMOOTH",
"113 334 OFFCURVE",
"81 344 OFFCURVE",
"42 359 CURVE"
);
},
{
closed = 1;
nodes = (
"408 71 LINE",
"481 71 OFFCURVE",
"539 71 OFFCURVE",
"596 71 CURVE",
"596 1 LINE",
"664 1 LINE",
"664 71 LINE",
"688 71 LINE",
"706 126 LINE",
"664 126 LINE",
"664 429 LINE",
"619 429 LINE",
"408 106 LINE"
);
},
{
closed = 1;
nodes = (
"489 126 LINE",
"529 187 OFFCURVE",
"584 273 OFFCURVE",
"595 289 CURVE",
"595 290 OFFCURVE",
"596 291 OFFCURVE",
"596 291 CURVE",
"596 126 LINE"
);
}
);
width = 726;
}
);
unicode = 00BE;
},
{
glyphname = questiondown;
layers = (
{
hints = (
{
place = "{52, 82}";
type = Stem;
},
{
place = "{191, 121}";
type = Stem;
},
{
place = "{216, 82}";
type = Stem;
},
{
horizontal = 1;
place = "{-193, 76}";
type = Stem;
},
{
horizontal = 1;
place = "{415, 118}";
type = Stem;
}
);
layerId = "89E2520C-A138-4547-B47C-84DD62C3AEAF";
paths = (
{
closed = 1;
nodes = (
"312 510 OFFCURVE",
"284 533 OFFCURVE",
"252 533 CURVE SMOOTH",
"219 533 OFFCURVE",
"191 510 OFFCURVE",
"191 474 CURVE SMOOTH",
"191 443 OFFCURVE",
"219 415 OFFCURVE",
"252 415 CURVE SMOOTH",
"284 415 OFFCURVE",
"312 443 OFFCURVE",
"312 474 CURVE SMOOTH"
);
},
{
closed = 1;
nodes = (
"169 -117 OFFCURVE",
"134 -68 OFFCURVE",
"134 -20 CURVE SMOOTH",
"134 28 OFFCURVE",
"167 60 OFFCURVE",
"204 95 CURVE SMOOTH",
"249 137 OFFCURVE",
"298 186 OFFCURVE",
"298 272 CURVE SMOOTH",
"298 334 LINE",
"216 334 LINE",
"216 302 LINE SMOOTH",
"216 231 OFFCURVE",
"195 195 OFFCURVE",
"142 150 CURVE SMOOTH",
"91 105 OFFCURVE",
"52 49 OFFCURVE",
"52 -27 CURVE SMOOTH",
"52 -126 OFFCURVE",
"121 -193 OFFCURVE",
"229 -193 CURVE SMOOTH",
"297 -193 OFFCURVE",
"355 -165 OFFCURVE",
"386 -125 CURVE",
"386 -28 LINE",
"338 -97 OFFCURVE",
"286 -117 OFFCURVE",
"239 -117 CURVE SMOOTH"
);
}
);
width = 437;
}
);
unicode = 00BF;
},
{
glyphname = Agrave;
layers = (
{
hints = (
{
place = "{-5, 687}";
type = Stem;
},
{
horizontal = 1;
place = "{0, 21}";
target = up;
type = BottomGhost;
},
{
horizontal = 1;
place = "{197, 75}";
type = Stem;
},
{
horizontal = 1;
place = "{606, 99}";
type = Stem;
},
{
horizontal = 1;
place = "{705, -20}";
target = down;
type = TopGhost;
}
);
layerId = "89E2520C-A138-4547-B47C-84DD62C3AEAF";
paths = (
{
closed = 1;
nodes = (
"338 834 LINE",
"401 834 LINE",
"306 983 LINE",
"212 963 LINE"
);
},
{
closed = 1;
nodes = (
"505 197 LINE",
"589 0 LINE",
"682 0 LINE",
"373 705 LINE",
"303 705 LINE",
"-5 0 LINE",
"86 0 LINE",
"171 197 LINE"
);
},
{
closed = 1;
nodes = (
"338 606 LINE",
"473 272 LINE",
"203 272 LINE"
);
}
);
width = 677;
}
);
unicode = 00C0;
},
{
glyphname = Aacute;
layers = (
{
hints = (
{
place = "{-5, 687}";
type = Stem;
},
{
horizontal = 1;
place = "{0, 21}";
target = up;
type = BottomGhost;
},
{
horizontal = 1;
place = "{197, 75}";
type = Stem;
},
{
horizontal = 1;
place = "{606, 99}";
type = Stem;
},
{
horizontal = 1;
place = "{705, -20}";
target = down;
type = TopGhost;
}
);
layerId = "89E2520C-A138-4547-B47C-84DD62C3AEAF";
paths = (
{
closed = 1;
nodes = (
"288 781 LINE",
"347 781 LINE",
"475 910 LINE",
"379 930 LINE"
);
},
{
closed = 1;
nodes = (
"505 197 LINE",
"589 0 LINE",
"682 0 LINE",
"373 705 LINE",
"303 705 LINE",
"-5 0 LINE",
"86 0 LINE",
"171 197 LINE"
);
},
{
closed = 1;
nodes = (
"338 606 LINE",
"473 272 LINE",
"203 272 LINE"
);
}
);
width = 677;
}
);
unicode = 00C1;
},
{
glyphname = Acircumflex;
layers = (
{
hints = (
{
place = "{-5, 687}";
type = Stem;
},
{
horizontal = 1;
place = "{0, 21}";
target = up;
type = BottomGhost;
},
{
horizontal = 1;
place = "{197, 75}";
type = Stem;
},
{
horizontal = 1;
place = "{606, 99}";
type = Stem;
},
{
horizontal = 1;
place = "{705, -20}";
target = down;
type = TopGhost;
},
{
horizontal = 1;
place = "{790, 141}";
type = Stem;
}
);
layerId = "89E2520C-A138-4547-B47C-84DD62C3AEAF";
paths = (
{
closed = 1;
nodes = (
"377 931 LINE",
"304 931 LINE",
"197 790 LINE",
"263 790 LINE",
"339 872 LINE",
"417 790 LINE",
"483 790 LINE"
);
},
{
closed = 1;
nodes = (
"505 197 LINE",
"589 0 LINE",
"682 0 LINE",
"373 705 LINE",
"303 705 LINE",
"-5 0 LINE",
"86 0 LINE",
"171 197 LINE"
);
},
{
closed = 1;
nodes = (
"338 606 LINE",
"473 272 LINE",
"203 272 LINE"
);
}
);
width = 677;
}
);
unicode = 00C2;
},
{
glyphname = Atilde;
layers = (
{
hints = (
{
place = "{-5, 687}";
type = Stem;
},
{
horizontal = 1;
place = "{0, 21}";
target = up;
type = BottomGhost;
},
{
horizontal = 1;
place = "{197, 75}";
type = Stem;
},
{
horizontal = 1;
place = "{606, 99}";
type = Stem;
},
{
horizontal = 1;
place = "{705, -20}";
target = down;
type = TopGhost;
},
{
horizontal = 1;
place = "{782, 68}";
type = Stem;
},
{
horizontal = 1;
place = "{819, 68}";
type = Stem;
}
);
layerId = "89E2520C-A138-4547-B47C-84DD62C3AEAF";
paths = (
{
closed = 1;
nodes = (
"229 773 LINE",
"240 806 OFFCURVE",
"264 819 OFFCURVE",
"288 819 CURVE SMOOTH",
"330 819 OFFCURVE",
"368 782 OFFCURVE",
"411 782 CURVE SMOOTH",
"458 782 OFFCURVE",
"486 821 OFFCURVE",
"505 885 CURVE",
"452 895 LINE",
"441 866 OFFCURVE",
"428 850 OFFCURVE",
"405 850 CURVE SMOOTH",
"369 850 OFFCURVE",
"330 887 OFFCURVE",
"282 887 CURVE SMOOTH",
"230 887 OFFCURVE",
"194 846 OFFCURVE",
"175 783 CURVE"
);
},
{
closed = 1;
nodes = (
"505 197 LINE",
"589 0 LINE",
"682 0 LINE",
"373 705 LINE",
"303 705 LINE",
"-5 0 LINE",
"86 0 LINE",
"171 197 LINE"
);
},
{
closed = 1;
nodes = (
"338 606 LINE",
"473 272 LINE",
"203 272 LINE"
);
}
);
width = 677;
}
);
unicode = 00C3;
},
{
glyphname = Adieresis;
layers = (
{
hints = (
{
place = "{186, 119}";
type = Stem;
},
{
place = "{378, 116}";
type = Stem;
},
{
horizontal = 1;
place = "{0, 21}";
target = up;
type = BottomGhost;
},
{
horizontal = 1;
place = "{197, 75}";
type = Stem;
},
{
horizontal = 1;
place = "{606, 99}";
type = Stem;
},
{
horizontal = 1;
place = "{705, -20}";
target = down;
type = TopGhost;
},
{
horizontal = 1;
place = "{791, 118}";
type = Stem;
}
);
layerId = "89E2520C-A138-4547-B47C-84DD62C3AEAF";
paths = (
{
closed = 1;
nodes = (
"186 817 OFFCURVE",
"210 791 OFFCURVE",
"245 791 CURVE SMOOTH",
"277 791 OFFCURVE",
"305 817 OFFCURVE",
"305 850 CURVE SMOOTH",
"305 882 OFFCURVE",
"277 909 OFFCURVE",
"245 909 CURVE SMOOTH",
"210 909 OFFCURVE",
"186 882 OFFCURVE",
"186 850 CURVE SMOOTH"
);
},
{
closed = 1;
nodes = (
"378 817 OFFCURVE",
"403 791 OFFCURVE",
"435 791 CURVE SMOOTH",
"470 791 OFFCURVE",
"494 817 OFFCURVE",
"494 850 CURVE SMOOTH",
"494 882 OFFCURVE",
"470 909 OFFCURVE",
"435 909 CURVE SMOOTH",
"403 909 OFFCURVE",
"378 882 OFFCURVE",
"378 850 CURVE SMOOTH"
);
},
{
closed = 1;
nodes = (
"505 197 LINE",
"589 0 LINE",
"682 0 LINE",
"373 705 LINE",
"303 705 LINE",
"-5 0 LINE",
"86 0 LINE",
"171 197 LINE"
);
},
{
closed = 1;
nodes = (
"338 606 LINE",
"473 272 LINE",
"203 272 LINE"
);
}
);
width = 677;
}
);
unicode = 00C4;
},
{
glyphname = Aring;
layers = (
{
hints = (
{
horizontal = 1;
place = "{0, 21}";
target = up;
type = BottomGhost;
},
{
horizontal = 1;
place = "{197, 75}";
type = Stem;
},
{
horizontal = 1;
place = "{841, 44}";
type = Stem;
},
{
place = "{236, 44}";
type = Stem;
},
{
place = "{395, 44}";
type = Stem;
}
);
layerId = "89E2520C-A138-4547-B47C-84DD62C3AEAF";
paths = (
{
closed = 1;
nodes = (
"505 197 LINE",
"589 0 LINE",
"682 0 LINE",
"378 693 LINE",
"414 708 OFFCURVE",
"439 741 OFFCURVE",
"439 782 CURVE SMOOTH",
"439 839 OFFCURVE",
"393 885 OFFCURVE",
"336 885 CURVE SMOOTH",
"283 885 OFFCURVE",
"236 840 OFFCURVE",
"236 784 CURVE SMOOTH",
"236 742 OFFCURVE",
"262 708 OFFCURVE",
"298 693 CURVE",
"-5 0 LINE",
"86 0 LINE",
"171 197 LINE"
);
},
{
closed = 1;
nodes = (
"395 753 OFFCURVE",
"373 729 OFFCURVE",
"338 729 CURVE SMOOTH",
"306 729 OFFCURVE",
"280 750 OFFCURVE",
"280 785 CURVE SMOOTH",
"280 816 OFFCURVE",
"305 841 OFFCURVE",
"338 841 CURVE SMOOTH",
"371 841 OFFCURVE",
"395 815 OFFCURVE",
"395 784 CURVE SMOOTH"
);
},
{
closed = 1;
nodes = (
"338 606 LINE",
"473 272 LINE",
"203 272 LINE"
);
}
);
width = 677;
}
);
unicode = 00C5;
},
{
glyphname = AE;
layers = (
{
hints = (
{
horizontal = 1;
place = "{0, 76}";
type = Stem;
},
{
horizontal = 1;
place = "{197, 75}";
type = Stem;
},
{
horizontal = 1;
place = "{321, 76}";
type = Stem;
},
{
horizontal = 1;
place = "{629, 76}";
type = Stem;
},
{
place = "{455, 86}";
type = Stem;
}
);
layerId = "89E2520C-A138-4547-B47C-84DD62C3AEAF";
paths = (
{
closed = 1;
nodes = (
"-5 0 LINE",
"86 0 LINE",
"206 197 LINE",
"455 197 LINE",
"455 0 LINE",
"926 0 LINE",
"926 76 LINE",
"541 76 LINE",
"541 321 LINE",
"886 321 LINE",
"886 397 LINE",
"541 397 LINE",
"541 629 LINE",
"915 629 LINE",
"915 705 LINE",
"430 705 LINE"
);
},
{
closed = 1;
nodes = (
"252 272 LINE",
"455 602 LINE",
"455 272 LINE"
);
}
);
width = 926;
}
);
unicode = 00C6;
},
{
glyphname = Ccedilla;
layers = (
{
hints = (
{
place = "{38, 87}";
type = Stem;
},
{
place = "{396, 78}";
type = Stem;
},
{
horizontal = 1;
place = "{-221, 51}";
type = Stem;
},
{
horizontal = 1;
place = "{-94, 24}";
type = Stem;
},
{
horizontal = 1;
place = "{-12, 75}";
type = Stem;
},
{
horizontal = 1;
place = "{-12, 21}";
target = up;
type = BottomGhost;
},
{
horizontal = 1;
place = "{643, 76}";
type = Stem;
}
);
layerId = "89E2520C-A138-4547-B47C-84DD62C3AEAF";
paths = (
{
closed = 1;
nodes = (
"634 175 LINE",
"567 116 OFFCURVE",
"499 63 OFFCURVE",
"397 63 CURVE SMOOTH",
"237 63 OFFCURVE",
"125 192 OFFCURVE",
"125 352 CURVE SMOOTH",
"125 512 OFFCURVE",
"237 643 OFFCURVE",
"397 643 CURVE SMOOTH",
"506 643 OFFCURVE",
"569 604 OFFCURVE",
"620 547 CURVE",
"620 643 LINE",
"563 687 OFFCURVE",
"497 719 OFFCURVE",
"402 719 CURVE SMOOTH",
"192 719 OFFCURVE",
"38 558 OFFCURVE",
"38 351 CURVE SMOOTH",
"38 158 OFFCURVE",
"174 7 OFFCURVE",
"359 -12 CURVE",
"307 -88 LINE",
"324 -101 LINE",
"336 -96 OFFCURVE",
"344 -94 OFFCURVE",
"355 -94 CURVE SMOOTH",
"379 -94 OFFCURVE",
"396 -104 OFFCURVE",
"396 -125 CURVE SMOOTH",
"396 -160 OFFCURVE",
"354 -170 OFFCURVE",
"331 -170 CURVE SMOOTH",
"316 -170 OFFCURVE",
"301 -167 OFFCURVE",
"282 -160 CURVE",
"271 -201 LINE",
"296 -213 OFFCURVE",
"322 -221 OFFCURVE",
"354 -221 CURVE SMOOTH",
"405 -221 OFFCURVE",
"474 -198 OFFCURVE",
"474 -135 CURVE SMOOTH",
"474 -83 OFFCURVE",
"426 -70 OFFCURVE",
"394 -70 CURVE SMOOTH",
"391 -70 LINE",
"424 -13 LINE",
"511 -7 OFFCURVE",
"576 28 OFFCURVE",
"634 78 CURVE"
);
}
);
width = 673;
}
);
unicode = 00C7;
},
{
glyphname = Egrave;
layers = (
{
hints = (
{
horizontal = 1;
place = "{0, 76}";
type = Stem;
},
{
horizontal = 1;
place = "{321, 76}";
type = Stem;
},
{
horizontal = 1;
place = "{629, 76}";
type = Stem;
},
{
place = "{80, 86}";
type = Stem;
}
);
layerId = "89E2520C-A138-4547-B47C-84DD62C3AEAF";
paths = (
{
closed = 1;
nodes = (
"309 834 LINE",
"372 834 LINE",
"277 983 LINE",
"183 963 LINE"
);
},
{
closed = 1;
nodes = (
"166 321 LINE",
"511 321 LINE",
"511 397 LINE",
"166 397 LINE",
"166 629 LINE",
"540 629 LINE",
"540 705 LINE",
"80 705 LINE",
"80 0 LINE",
"551 0 LINE",
"551 76 LINE",
"166 76 LINE"
);
}
);
width = 618;
}
);
unicode = 00C8;
},
{
glyphname = Eacute;
layers = (
{
hints = (
{
horizontal = 1;
place = "{0, 76}";
type = Stem;
},
{
horizontal = 1;
place = "{321, 76}";
type = Stem;
},
{
horizontal = 1;
place = "{629, 76}";
type = Stem;
},
{
place = "{80, 86}";
type = Stem;
}
);
layerId = "89E2520C-A138-4547-B47C-84DD62C3AEAF";
paths = (
{
closed = 1;
nodes = (
"269 781 LINE",
"328 781 LINE",
"456 910 LINE",
"360 930 LINE"
);
},
{
closed = 1;
nodes = (
"166 321 LINE",
"511 321 LINE",
"511 397 LINE",
"166 397 LINE",
"166 629 LINE",
"540 629 LINE",
"540 705 LINE",
"80 705 LINE",
"80 0 LINE",
"551 0 LINE",
"551 76 LINE",
"166 76 LINE"
);
}
);
width = 618;
}
);
unicode = 00C9;
},
{
glyphname = Ecircumflex;
layers = (
{
hints = (
{
horizontal = 1;
place = "{0, 76}";
type = Stem;
},
{
horizontal = 1;
place = "{321, 76}";
type = Stem;
},
{
horizontal = 1;
place = "{629, 76}";
type = Stem;
},
{
horizontal = 1;
place = "{790, 141}";
type = Stem;
},
{
place = "{80, 86}";
type = Stem;
}
);
layerId = "89E2520C-A138-4547-B47C-84DD62C3AEAF";
paths = (
{
closed = 1;
nodes = (
"349 931 LINE",
"276 931 LINE",
"169 790 LINE",
"235 790 LINE",
"311 872 LINE",
"389 790 LINE",
"455 790 LINE"
);
},
{
closed = 1;
nodes = (
"166 321 LINE",
"511 321 LINE",
"511 397 LINE",
"166 397 LINE",
"166 629 LINE",
"540 629 LINE",
"540 705 LINE",
"80 705 LINE",
"80 0 LINE",
"551 0 LINE",
"551 76 LINE",
"166 76 LINE"
);
}
);
width = 618;
}
);
unicode = 00CA;
},
{
glyphname = Edieresis;
layers = (
{
hints = (
{
place = "{80, 86}";
type = Stem;
},
{
place = "{161, 119}";
type = Stem;
},
{
place = "{353, 116}";
type = Stem;
},
{
horizontal = 1;
place = "{0, 76}";
type = Stem;
},
{
horizontal = 1;
place = "{321, 76}";
type = Stem;
},
{
horizontal = 1;
place = "{629, 76}";
type = Stem;
},
{
horizontal = 1;
place = "{791, 118}";
type = Stem;
}
);
layerId = "89E2520C-A138-4547-B47C-84DD62C3AEAF";
paths = (
{
closed = 1;
nodes = (
"161 817 OFFCURVE",
"185 791 OFFCURVE",
"220 791 CURVE SMOOTH",
"252 791 OFFCURVE",
"280 817 OFFCURVE",
"280 850 CURVE SMOOTH",
"280 882 OFFCURVE",
"252 909 OFFCURVE",
"220 909 CURVE SMOOTH",
"185 909 OFFCURVE",
"161 882 OFFCURVE",
"161 850 CURVE SMOOTH"
);
},
{
closed = 1;
nodes = (
"353 817 OFFCURVE",
"378 791 OFFCURVE",
"410 791 CURVE SMOOTH",
"445 791 OFFCURVE",
"469 817 OFFCURVE",
"469 850 CURVE SMOOTH",
"469 882 OFFCURVE",
"445 909 OFFCURVE",
"410 909 CURVE SMOOTH",
"378 909 OFFCURVE",
"353 882 OFFCURVE",
"353 850 CURVE SMOOTH"
);
},
{
closed = 1;
nodes = (
"166 321 LINE",
"511 321 LINE",
"511 397 LINE",
"166 397 LINE",
"166 629 LINE",
"540 629 LINE",
"540 705 LINE",
"80 705 LINE",
"80 0 LINE",
"551 0 LINE",
"551 76 LINE",
"166 76 LINE"
);
}
);
width = 618;
}
);
unicode = 00CB;
},
{
glyphname = Eth;
layers = (
{
hints = (
{
horizontal = 1;
place = "{0, 76}";
type = Stem;
},
{
horizontal = 1;
place = "{319, 77}";
type = Stem;
},
{
horizontal = 1;
place = "{628, 77}";
type = Stem;
},
{
place = "{112, 85}";
type = Stem;
},
{
place = "{619, 90}";
type = Stem;
}
);
layerId = "89E2520C-A138-4547-B47C-84DD62C3AEAF";
paths = (
{
closed = 1;
nodes = (
"112 0 LINE",
"332 0 LINE SMOOTH",
"559 0 OFFCURVE",
"709 146 OFFCURVE",
"709 353 CURVE SMOOTH",
"709 566 OFFCURVE",
"547 705 OFFCURVE",
"333 705 CURVE SMOOTH",
"112 705 LINE",
"112 396 LINE",
"16 396 LINE",
"16 319 LINE",
"112 319 LINE"
);
},
{
closed = 1;
nodes = (
"197 628 LINE",
"376 628 LINE SMOOTH",
"534 628 OFFCURVE",
"619 482 OFFCURVE",
"619 351 CURVE SMOOTH",
"619 191 OFFCURVE",
"516 76 OFFCURVE",
"328 76 CURVE SMOOTH",
"197 76 LINE",
"197 319 LINE",
"287 319 LINE",
"287 396 LINE",
"197 396 LINE"
);
}
);
width = 761;
}
);
unicode = 00D0;
},
{
glyphname = Ntilde;
layers = (
{
hints = (
{
place = "{80, 82}";
type = Stem;
},
{
place = "{584, 82}";
type = Stem;
},
{
horizontal = 1;
place = "{0, 21}";
target = up;
type = BottomGhost;
},
{
horizontal = 1;
place = "{705, -20}";
target = down;
type = TopGhost;
},
{
horizontal = 1;
place = "{782, 68}";
type = Stem;
},
{
horizontal = 1;
place = "{819, 68}";
type = Stem;
}
);
layerId = "89E2520C-A138-4547-B47C-84DD62C3AEAF";
paths = (
{
closed = 1;
nodes = (
"270 773 LINE",
"281 806 OFFCURVE",
"305 819 OFFCURVE",
"329 819 CURVE SMOOTH",
"371 819 OFFCURVE",
"409 782 OFFCURVE",
"452 782 CURVE SMOOTH",
"499 782 OFFCURVE",
"527 821 OFFCURVE",
"546 885 CURVE",
"493 895 LINE",
"482 866 OFFCURVE",
"469 850 OFFCURVE",
"446 850 CURVE SMOOTH",
"410 850 OFFCURVE",
"371 887 OFFCURVE",
"323 887 CURVE SMOOTH",
"271 887 OFFCURVE",
"235 846 OFFCURVE",
"216 783 CURVE"
);
},
{
closed = 1;
nodes = (
"165 700 LINE",
"80 700 LINE",
"80 0 LINE",
"162 0 LINE",
"162 577 LINE",
"582 0 LINE",
"666 0 LINE",
"666 705 LINE",
"584 705 LINE",
"584 126 LINE"
);
}
);
width = 746;
}
);
unicode = 00D1;
},
{
glyphname = Ograve;
layers = (
{
hints = (
{
horizontal = 1;
place = "{-14, 77}";
type = Stem;
},
{
horizontal = 1;
place = "{642, 77}";
type = Stem;
},
{
place = "{51, 87}";
type = Stem;
},
{
place = "{695, 87}";
type = Stem;
}
);
layerId = "89E2520C-A138-4547-B47C-84DD62C3AEAF";
paths = (
{
closed = 1;
nodes = (
"382 834 LINE",
"445 834 LINE",
"350 983 LINE",
"256 963 LINE"
);
},
{
closed = 1;
nodes = (
"782 553 OFFCURVE",
"630 719 OFFCURVE",
"419 719 CURVE SMOOTH",
"206 719 OFFCURVE",
"51 555 OFFCURVE",
"51 351 CURVE SMOOTH",
"51 148 OFFCURVE",
"204 -14 OFFCURVE",
"417 -14 CURVE SMOOTH",
"628 -14 OFFCURVE",
"782 151 OFFCURVE",
"782 354 CURVE SMOOTH"
);
},
{
closed = 1;
nodes = (
"695 191 OFFCURVE",
"579 63 OFFCURVE",
"418 63 CURVE SMOOTH",
"253 63 OFFCURVE",
"138 190 OFFCURVE",
"138 354 CURVE SMOOTH",
"138 514 OFFCURVE",
"253 642 OFFCURVE",
"418 642 CURVE SMOOTH",
"579 642 OFFCURVE",
"695 512 OFFCURVE",
"695 350 CURVE SMOOTH"
);
}
);
width = 833;
}
);
unicode = 00D2;
},
{
glyphname = Oacute;
layers = (
{
hints = (
{
horizontal = 1;
place = "{-14, 77}";
type = Stem;
},
{
horizontal = 1;
place = "{642, 77}";
type = Stem;
},
{
place = "{51, 87}";
type = Stem;
},
{
place = "{695, 87}";
type = Stem;
}
);
layerId = "89E2520C-A138-4547-B47C-84DD62C3AEAF";
paths = (
{
closed = 1;
nodes = (
"377 781 LINE",
"436 781 LINE",
"564 910 LINE",
"468 930 LINE"
);
},
{
closed = 1;
nodes = (
"782 553 OFFCURVE",
"630 719 OFFCURVE",
"419 719 CURVE SMOOTH",
"206 719 OFFCURVE",
"51 555 OFFCURVE",
"51 351 CURVE SMOOTH",
"51 148 OFFCURVE",
"204 -14 OFFCURVE",
"417 -14 CURVE SMOOTH",
"628 -14 OFFCURVE",
"782 151 OFFCURVE",
"782 354 CURVE SMOOTH"
);
},
{
closed = 1;
nodes = (
"695 191 OFFCURVE",
"579 63 OFFCURVE",
"418 63 CURVE SMOOTH",
"253 63 OFFCURVE",
"138 190 OFFCURVE",
"138 354 CURVE SMOOTH",
"138 514 OFFCURVE",
"253 642 OFFCURVE",
"418 642 CURVE SMOOTH",
"579 642 OFFCURVE",
"695 512 OFFCURVE",
"695 350 CURVE SMOOTH"
);
}
);
width = 833;
}
);
unicode = 00D3;
},
{
glyphname = Ocircumflex;
layers = (
{
hints = (
{
horizontal = 1;
place = "{-14, 77}";
type = Stem;
},
{
horizontal = 1;
place = "{642, 77}";
type = Stem;
},
{
horizontal = 1;
place = "{790, 141}";
type = Stem;
},
{
place = "{51, 87}";
type = Stem;
},
{
place = "{695, 87}";
type = Stem;
}
);
layerId = "89E2520C-A138-4547-B47C-84DD62C3AEAF";
paths = (
{
closed = 1;
nodes = (
"456 931 LINE",
"383 931 LINE",
"276 790 LINE",
"342 790 LINE",
"418 872 LINE",
"496 790 LINE",
"562 790 LINE"
);
},
{
closed = 1;
nodes = (
"782 553 OFFCURVE",
"630 719 OFFCURVE",
"419 719 CURVE SMOOTH",
"206 719 OFFCURVE",
"51 555 OFFCURVE",
"51 351 CURVE SMOOTH",
"51 148 OFFCURVE",
"204 -14 OFFCURVE",
"417 -14 CURVE SMOOTH",
"628 -14 OFFCURVE",
"782 151 OFFCURVE",
"782 354 CURVE SMOOTH"
);
},
{
closed = 1;
nodes = (
"695 191 OFFCURVE",
"579 63 OFFCURVE",
"418 63 CURVE SMOOTH",
"253 63 OFFCURVE",
"138 190 OFFCURVE",
"138 354 CURVE SMOOTH",
"138 514 OFFCURVE",
"253 642 OFFCURVE",
"418 642 CURVE SMOOTH",
"579 642 OFFCURVE",
"695 512 OFFCURVE",
"695 350 CURVE SMOOTH"
);
}
);
width = 833;
}
);
unicode = 00D4;
},
{
glyphname = Otilde;
layers = (
{
hints = (
{
place = "{51, 87}";
type = Stem;
},
{
place = "{695, 87}";
type = Stem;
},
{
horizontal = 1;
place = "{-14, 77}";
type = Stem;
},
{
horizontal = 1;
place = "{642, 77}";
type = Stem;
},
{
horizontal = 1;
place = "{782, 68}";
type = Stem;
},
{
horizontal = 1;
place = "{819, 68}";
type = Stem;
}
);
layerId = "89E2520C-A138-4547-B47C-84DD62C3AEAF";
paths = (
{
closed = 1;
nodes = (
"306 773 LINE",
"317 806 OFFCURVE",
"341 819 OFFCURVE",
"365 819 CURVE SMOOTH",
"407 819 OFFCURVE",
"445 782 OFFCURVE",
"488 782 CURVE SMOOTH",
"535 782 OFFCURVE",
"563 821 OFFCURVE",
"582 885 CURVE",
"529 895 LINE",
"518 866 OFFCURVE",
"505 850 OFFCURVE",
"482 850 CURVE SMOOTH",
"446 850 OFFCURVE",
"407 887 OFFCURVE",
"359 887 CURVE SMOOTH",
"307 887 OFFCURVE",
"271 846 OFFCURVE",
"252 783 CURVE"
);
},
{
closed = 1;
nodes = (
"782 553 OFFCURVE",
"630 719 OFFCURVE",
"419 719 CURVE SMOOTH",
"206 719 OFFCURVE",
"51 555 OFFCURVE",
"51 351 CURVE SMOOTH",
"51 148 OFFCURVE",
"204 -14 OFFCURVE",
"417 -14 CURVE SMOOTH",
"628 -14 OFFCURVE",
"782 151 OFFCURVE",
"782 354 CURVE SMOOTH"
);
},
{
closed = 1;
nodes = (
"695 191 OFFCURVE",
"579 63 OFFCURVE",
"418 63 CURVE SMOOTH",
"253 63 OFFCURVE",
"138 190 OFFCURVE",
"138 354 CURVE SMOOTH",
"138 514 OFFCURVE",
"253 642 OFFCURVE",
"418 642 CURVE SMOOTH",
"579 642 OFFCURVE",
"695 512 OFFCURVE",
"695 350 CURVE SMOOTH"
);
}
);
width = 833;
}
);
unicode = 00D5;
},
{
glyphname = Odieresis;
layers = (
{
hints = (
{
horizontal = 1;
place = "{-14, 77}";
type = Stem;
},
{
horizontal = 1;
place = "{642, 77}";
type = Stem;
},
{
horizontal = 1;
place = "{791, 118}";
type = Stem;
},
{
place = "{51, 87}";
type = Stem;
},
{
place = "{267, 119}";
type = Stem;
},
{
place = "{459, 116}";
type = Stem;
},
{
place = "{695, 87}";
type = Stem;
}
);
layerId = "89E2520C-A138-4547-B47C-84DD62C3AEAF";
paths = (
{
closed = 1;
nodes = (
"267 817 OFFCURVE",
"291 791 OFFCURVE",
"326 791 CURVE SMOOTH",
"358 791 OFFCURVE",
"386 817 OFFCURVE",
"386 850 CURVE SMOOTH",
"386 882 OFFCURVE",
"358 909 OFFCURVE",
"326 909 CURVE SMOOTH",
"291 909 OFFCURVE",
"267 882 OFFCURVE",
"267 850 CURVE SMOOTH"
);
},
{
closed = 1;
nodes = (
"459 817 OFFCURVE",
"484 791 OFFCURVE",
"516 791 CURVE SMOOTH",
"551 791 OFFCURVE",
"575 817 OFFCURVE",
"575 850 CURVE SMOOTH",
"575 882 OFFCURVE",
"551 909 OFFCURVE",
"516 909 CURVE SMOOTH",
"484 909 OFFCURVE",
"459 882 OFFCURVE",
"459 850 CURVE SMOOTH"
);
},
{
closed = 1;
nodes = (
"782 553 OFFCURVE",
"630 719 OFFCURVE",
"419 719 CURVE SMOOTH",
"206 719 OFFCURVE",
"51 555 OFFCURVE",
"51 351 CURVE SMOOTH",
"51 148 OFFCURVE",
"204 -14 OFFCURVE",
"417 -14 CURVE SMOOTH",
"628 -14 OFFCURVE",
"782 151 OFFCURVE",
"782 354 CURVE SMOOTH"
);
},
{
closed = 1;
nodes = (
"695 191 OFFCURVE",
"579 63 OFFCURVE",
"418 63 CURVE SMOOTH",
"253 63 OFFCURVE",
"138 190 OFFCURVE",
"138 354 CURVE SMOOTH",
"138 514 OFFCURVE",
"253 642 OFFCURVE",
"418 642 CURVE SMOOTH",
"579 642 OFFCURVE",
"695 512 OFFCURVE",
"695 350 CURVE SMOOTH"
);
}
);
width = 833;
}
);
unicode = 00D6;
},
{
glyphname = multiply;
layers = (
{
hints = (
{
horizontal = 1;
place = "{117, 466}";
type = Stem;
},
{
place = "{86, 465}";
type = Stem;
}
);
layerId = "89E2520C-A138-4547-B47C-84DD62C3AEAF";
paths = (
{
closed = 1;
nodes = (
"86 167 LINE",
"136 117 LINE",
"319 301 LINE",
"501 117 LINE",
"551 168 LINE",
"369 351 LINE",
"551 533 LINE",
"501 583 LINE",
"319 399 LINE",
"136 583 LINE",
"87 533 LINE",
"270 351 LINE"
);
}
);
width = 638;
}
);
unicode = 00D7;
},
{
glyphname = Oslash;
layers = (
{
hints = (
{
place = "{51, 87}";
type = Stem;
},
{
place = "{695, 87}";
type = Stem;
},
{
horizontal = 1;
place = "{-14, 77}";
type = Stem;
},
{
horizontal = 1;
place = "{-6, 21}";
target = up;
type = BottomGhost;
},
{
horizontal = 1;
place = "{642, 77}";
type = Stem;
},
{
horizontal = 1;
place = "{716, -20}";
target = down;
type = TopGhost;
}
);
layerId = "89E2520C-A138-4547-B47C-84DD62C3AEAF";
paths = (
{
closed = 1;
nodes = (
"61 36 LINE",
"102 -6 LINE",
"178 71 LINE",
"241 18 OFFCURVE",
"322 -14 OFFCURVE",
"417 -14 CURVE SMOOTH",
"628 -14 OFFCURVE",
"782 151 OFFCURVE",
"782 354 CURVE SMOOTH",
"782 446 OFFCURVE",
"750 530 OFFCURVE",
"694 594 CURVE",
"778 679 LINE",
"733 716 LINE",
"653 635 LINE",
"590 687 OFFCURVE",
"511 719 OFFCURVE",
"419 719 CURVE SMOOTH",
"206 719 OFFCURVE",
"51 555 OFFCURVE",
"51 351 CURVE SMOOTH",
"51 259 OFFCURVE",
"81 176 OFFCURVE",
"136 112 CURVE"
);
},
{
closed = 1;
nodes = (
"195 172 LINE",
"159 221 OFFCURVE",
"138 283 OFFCURVE",
"138 354 CURVE SMOOTH",
"138 514 OFFCURVE",
"253 642 OFFCURVE",
"418 642 CURVE SMOOTH",
"483 642 OFFCURVE",
"546 619 OFFCURVE",
"595 577 CURVE"
);
},
{
closed = 1;
nodes = (
"635 534 LINE",
"674 483 OFFCURVE",
"695 421 OFFCURVE",
"695 350 CURVE SMOOTH",
"695 192 OFFCURVE",
"581 63 OFFCURVE",
"418 63 CURVE SMOOTH",
"348 63 OFFCURVE",
"288 85 OFFCURVE",
"235 129 CURVE"
);
}
);
width = 833;
}
);
unicode = 00D8;
},
{
glyphname = Ugrave;
layers = (
{
hints = (
{
horizontal = 1;
place = "{-15, 78}";
type = Stem;
},
{
horizontal = 1;
place = "{706, -20}";
target = down;
type = TopGhost;
},
{
place = "{71, 84}";
type = Stem;
},
{
place = "{546, 84}";
type = Stem;
}
);
layerId = "89E2520C-A138-4547-B47C-84DD62C3AEAF";
paths = (
{
closed = 1;
nodes = (
"331 834 LINE",
"394 834 LINE",
"299 983 LINE",
"205 963 LINE"
);
},
{
closed = 1;
nodes = (
"536 -15 OFFCURVE",
"630 100 OFFCURVE",
"630 287 CURVE SMOOTH",
"630 706 LINE",
"546 706 LINE",
"546 285 LINE SMOOTH",
"546 136 OFFCURVE",
"476 63 OFFCURVE",
"351 63 CURVE SMOOTH",
"219 63 OFFCURVE",
"155 149 OFFCURVE",
"155 288 CURVE SMOOTH",
"155 706 LINE",
"71 706 LINE",
"71 284 LINE SMOOTH",
"71 105 OFFCURVE",
"168 -15 OFFCURVE",
"352 -15 CURVE SMOOTH"
);
}
);
width = 702;
}
);
unicode = 00D9;
},
{
glyphname = Uacute;
layers = (
{
hints = (
{
horizontal = 1;
place = "{-15, 78}";
type = Stem;
},
{
horizontal = 1;
place = "{706, -20}";
target = down;
type = TopGhost;
},
{
place = "{71, 84}";
type = Stem;
},
{
place = "{546, 84}";
type = Stem;
}
);
layerId = "89E2520C-A138-4547-B47C-84DD62C3AEAF";
paths = (
{
closed = 1;
nodes = (
"317 781 LINE",
"376 781 LINE",
"504 910 LINE",
"408 930 LINE"
);
},
{
closed = 1;
nodes = (
"536 -15 OFFCURVE",
"630 100 OFFCURVE",
"630 287 CURVE SMOOTH",
"630 706 LINE",
"546 706 LINE",
"546 285 LINE SMOOTH",
"546 136 OFFCURVE",
"476 63 OFFCURVE",
"351 63 CURVE SMOOTH",
"219 63 OFFCURVE",
"155 149 OFFCURVE",
"155 288 CURVE SMOOTH",
"155 706 LINE",
"71 706 LINE",
"71 284 LINE SMOOTH",
"71 105 OFFCURVE",
"168 -15 OFFCURVE",
"352 -15 CURVE SMOOTH"
);
}
);
width = 702;
}
);
unicode = 00DA;
},
{
glyphname = Ucircumflex;
layers = (
{
hints = (
{
horizontal = 1;
place = "{-15, 78}";
type = Stem;
},
{
horizontal = 1;
place = "{706, -20}";
target = down;
type = TopGhost;
},
{
horizontal = 1;
place = "{790, 141}";
type = Stem;
},
{
place = "{71, 84}";
type = Stem;
},
{
place = "{546, 84}";
type = Stem;
}
);
layerId = "89E2520C-A138-4547-B47C-84DD62C3AEAF";
paths = (
{
closed = 1;
nodes = (
"394 931 LINE",
"321 931 LINE",
"214 790 LINE",
"280 790 LINE",
"356 872 LINE",
"434 790 LINE",
"500 790 LINE"
);
},
{
closed = 1;
nodes = (
"536 -15 OFFCURVE",
"630 100 OFFCURVE",
"630 287 CURVE SMOOTH",
"630 706 LINE",
"546 706 LINE",
"546 285 LINE SMOOTH",
"546 136 OFFCURVE",
"476 63 OFFCURVE",
"351 63 CURVE SMOOTH",
"219 63 OFFCURVE",
"155 149 OFFCURVE",
"155 288 CURVE SMOOTH",
"155 706 LINE",
"71 706 LINE",
"71 284 LINE SMOOTH",
"71 105 OFFCURVE",
"168 -15 OFFCURVE",
"352 -15 CURVE SMOOTH"
);
}
);
width = 702;
}
);
unicode = 00DB;
},
{
glyphname = Udieresis;
layers = (
{
hints = (
{
horizontal = 1;
place = "{-15, 78}";
type = Stem;
},
{
horizontal = 1;
place = "{706, -20}";
target = down;
type = TopGhost;
},
{
horizontal = 1;
place = "{791, 118}";
type = Stem;
},
{
place = "{71, 84}";
type = Stem;
},
{
place = "{194, 119}";
type = Stem;
},
{
place = "{386, 116}";
type = Stem;
},
{
place = "{546, 84}";
type = Stem;
}
);
layerId = "89E2520C-A138-4547-B47C-84DD62C3AEAF";
paths = (
{
closed = 1;
nodes = (
"194 817 OFFCURVE",
"218 791 OFFCURVE",
"253 791 CURVE SMOOTH",
"285 791 OFFCURVE",
"313 817 OFFCURVE",
"313 850 CURVE SMOOTH",
"313 882 OFFCURVE",
"285 909 OFFCURVE",
"253 909 CURVE SMOOTH",
"218 909 OFFCURVE",
"194 882 OFFCURVE",
"194 850 CURVE SMOOTH"
);
},
{
closed = 1;
nodes = (
"386 817 OFFCURVE",
"411 791 OFFCURVE",
"443 791 CURVE SMOOTH",
"478 791 OFFCURVE",
"502 817 OFFCURVE",
"502 850 CURVE SMOOTH",
"502 882 OFFCURVE",
"478 909 OFFCURVE",
"443 909 CURVE SMOOTH",
"411 909 OFFCURVE",
"386 882 OFFCURVE",
"386 850 CURVE SMOOTH"
);
},
{
closed = 1;
nodes = (
"536 -15 OFFCURVE",
"630 100 OFFCURVE",
"630 287 CURVE SMOOTH",
"630 706 LINE",
"546 706 LINE",
"546 285 LINE SMOOTH",
"546 136 OFFCURVE",
"476 63 OFFCURVE",
"351 63 CURVE SMOOTH",
"219 63 OFFCURVE",
"155 149 OFFCURVE",
"155 288 CURVE SMOOTH",
"155 706 LINE",
"71 706 LINE",
"71 284 LINE SMOOTH",
"71 105 OFFCURVE",
"168 -15 OFFCURVE",
"352 -15 CURVE SMOOTH"
);
}
);
width = 702;
}
);
unicode = 00DC;
},
{
glyphname = Yacute;
layers = (
{
hints = (
{
horizontal = 1;
place = "{0, 21}";
target = up;
type = BottomGhost;
},
{
horizontal = 1;
place = "{705, -20}";
target = down;
type = TopGhost;
},
{
place = "{269, 84}";
type = Stem;
}
);
layerId = "89E2520C-A138-4547-B47C-84DD62C3AEAF";
paths = (
{
closed = 1;
nodes = (
"262 781 LINE",
"321 781 LINE",
"449 910 LINE",
"353 930 LINE"
);
},
{
closed = 1;
nodes = (
"353 281 LINE",
"623 705 LINE",
"528 705 LINE",
"314 358 LINE",
"98 705 LINE",
"-2 705 LINE",
"269 280 LINE",
"269 0 LINE",
"353 0 LINE"
);
}
);
width = 621;
}
);
unicode = 00DD;
},
{
glyphname = Thorn;
layers = (
{
hints = (
{
horizontal = 1;
place = "{0, 21}";
target = up;
type = BottomGhost;
},
{
horizontal = 1;
place = "{178, 73}";
type = Stem;
},
{
horizontal = 1;
place = "{502, 73}";
type = Stem;
},
{
horizontal = 1;
place = "{706, -20}";
target = down;
type = TopGhost;
},
{
place = "{80, 79}";
type = Stem;
},
{
place = "{372, 79}";
type = Stem;
}
);
layerId = "89E2520C-A138-4547-B47C-84DD62C3AEAF";
paths = (
{
closed = 1;
nodes = (
"80 0 LINE",
"159 0 LINE",
"159 178 LINE",
"216 178 LINE SMOOTH",
"344 178 OFFCURVE",
"451 233 OFFCURVE",
"451 376 CURVE SMOOTH",
"451 533 OFFCURVE",
"329 575 OFFCURVE",
"196 575 CURVE SMOOTH",
"159 575 LINE",
"159 706 LINE",
"80 706 LINE"
);
},
{
closed = 1;
nodes = (
"159 251 LINE",
"159 502 LINE",
"188 502 LINE SMOOTH",
"280 502 OFFCURVE",
"372 494 OFFCURVE",
"372 378 CURVE SMOOTH",
"372 277 OFFCURVE",
"298 251 OFFCURVE",
"211 251 CURVE SMOOTH"
);
}
);
width = 481;
}
);
unicode = 00DE;
},
{
glyphname = germandbls;
layers = (
{
hints = (
{
place = "{12, 80}";
type = Stem;
},
{
place = "{354, 83}";
type = Stem;
},
{
place = "{401, 83}";
type = Stem;
},
{
horizontal = 1;
place = "{-3, 65}";
type = Stem;
},
{
horizontal = 1;
place = "{0, 21}";
target = up;
type = BottomGhost;
},
{
horizontal = 1;
place = "{680, 73}";
type = Stem;
}
);
layerId = "89E2520C-A138-4547-B47C-84DD62C3AEAF";
paths = (
{
closed = 1;
nodes = (
"92 519 LINE SMOOTH",
"92 599 OFFCURVE",
"133 680 OFFCURVE",
"231 680 CURVE SMOOTH",
"303 680 OFFCURVE",
"354 637 OFFCURVE",
"354 564 CURVE SMOOTH",
"354 483 OFFCURVE",
"291 451 OFFCURVE",
"211 422 CURVE",
"211 360 LINE",
"326 344 OFFCURVE",
"401 310 OFFCURVE",
"401 209 CURVE SMOOTH",
"401 105 OFFCURVE",
"317 62 OFFCURVE",
"201 62 CURVE",
"201 -3 LINE",
"362 -3 OFFCURVE",
"484 67 OFFCURVE",
"484 209 CURVE SMOOTH",
"484 313 OFFCURVE",
"407 383 OFFCURVE",
"314 399 CURVE",
"385 430 OFFCURVE",
"437 487 OFFCURVE",
"437 572 CURVE SMOOTH",
"437 680 OFFCURVE",
"352 753 OFFCURVE",
"235 753 CURVE SMOOTH",
"79 753 OFFCURVE",
"12 644 OFFCURVE",
"12 520 CURVE SMOOTH",
"12 0 LINE",
"92 0 LINE"
);
}
);
width = 519;
}
);
unicode = 00DF;
},
{
glyphname = agrave;
layers = (
{
hints = (
{
place = "{35, 82}";
type = Stem;
},
{
place = "{398, 82}";
type = Stem;
},
{
horizontal = 1;
place = "{-11, 68}";
type = Stem;
},
{
horizontal = 1;
place = "{0, 21}";
target = up;
type = BottomGhost;
},
{
horizontal = 1;
place = "{266, 67}";
type = Stem;
},
{
horizontal = 1;
place = "{422, 70}";
type = Stem;
}
);
layerId = "89E2520C-A138-4547-B47C-84DD62C3AEAF";
paths = (
{
closed = 1;
nodes = (
"291 616 LINE",
"354 616 LINE",
"259 765 LINE",
"165 745 LINE"
);
},
{
closed = 1;
nodes = (
"480 0 LINE",
"480 308 LINE SMOOTH",
"480 431 OFFCURVE",
"373 492 OFFCURVE",
"257 492 CURVE SMOOTH",
"182 492 OFFCURVE",
"112 470 OFFCURVE",
"67 450 CURVE",
"67 372 LINE",
"126 408 OFFCURVE",
"190 422 OFFCURVE",
"254 422 CURVE SMOOTH",
"338 422 OFFCURVE",
"398 394 OFFCURVE",
"398 318 CURVE SMOOTH",
"398 299 LINE",
"355 324 OFFCURVE",
"303 333 OFFCURVE",
"246 333 CURVE SMOOTH",
"146 333 OFFCURVE",
"35 296 OFFCURVE",
"35 171 CURVE SMOOTH",
"35 54 OFFCURVE",
"140 -11 OFFCURVE",
"235 -11 CURVE SMOOTH",
"302 -11 OFFCURVE",
"351 9 OFFCURVE",
"396 49 CURVE"
);
},
{
closed = 1;
nodes = (
"398 122 LINE",
"365 82 OFFCURVE",
"318 57 OFFCURVE",
"253 57 CURVE SMOOTH",
"181 57 OFFCURVE",
"117 90 OFFCURVE",
"117 161 CURVE SMOOTH",
"117 238 OFFCURVE",
"193 266 OFFCURVE",
"258 266 CURVE SMOOTH",
"322 266 OFFCURVE",
"365 247 OFFCURVE",
"398 228 CURVE"
);
}
);
width = 548;
}
);
unicode = 00E0;
},
{
glyphname = aacute;
layers = (
{
hints = (
{
place = "{35, 82}";
type = Stem;
},
{
place = "{398, 82}";
type = Stem;
},
{
horizontal = 1;
place = "{-11, 68}";
type = Stem;
},
{
horizontal = 1;
place = "{0, 21}";
target = up;
type = BottomGhost;
},
{
horizontal = 1;
place = "{266, 67}";
type = Stem;
},
{
horizontal = 1;
place = "{422, 70}";
type = Stem;
}
);
layerId = "89E2520C-A138-4547-B47C-84DD62C3AEAF";
paths = (
{
closed = 1;
nodes = (
"233 616 LINE",
"292 616 LINE",
"420 745 LINE",
"324 765 LINE"
);
},
{
closed = 1;
nodes = (
"480 0 LINE",
"480 308 LINE SMOOTH",
"480 431 OFFCURVE",
"373 492 OFFCURVE",
"257 492 CURVE SMOOTH",
"182 492 OFFCURVE",
"112 470 OFFCURVE",
"67 450 CURVE",
"67 372 LINE",
"126 408 OFFCURVE",
"190 422 OFFCURVE",
"254 422 CURVE SMOOTH",
"338 422 OFFCURVE",
"398 394 OFFCURVE",
"398 318 CURVE SMOOTH",
"398 299 LINE",
"355 324 OFFCURVE",
"303 333 OFFCURVE",
"246 333 CURVE SMOOTH",
"146 333 OFFCURVE",
"35 296 OFFCURVE",
"35 171 CURVE SMOOTH",
"35 54 OFFCURVE",
"140 -11 OFFCURVE",
"235 -11 CURVE SMOOTH",
"302 -11 OFFCURVE",
"351 9 OFFCURVE",
"396 49 CURVE"
);
},
{
closed = 1;
nodes = (
"398 122 LINE",
"365 82 OFFCURVE",
"318 57 OFFCURVE",
"253 57 CURVE SMOOTH",
"181 57 OFFCURVE",
"117 90 OFFCURVE",
"117 161 CURVE SMOOTH",
"117 238 OFFCURVE",
"193 266 OFFCURVE",
"258 266 CURVE SMOOTH",
"322 266 OFFCURVE",
"365 247 OFFCURVE",
"398 228 CURVE"
);
}
);
width = 548;
}
);
unicode = 00E1;
},
{
glyphname = acircumflex;
layers = (
{
hints = (
{
place = "{35, 82}";
type = Stem;
},
{
place = "{398, 82}";
type = Stem;
},
{
horizontal = 1;
place = "{-11, 68}";
type = Stem;
},
{
horizontal = 1;
place = "{0, 21}";
target = up;
type = BottomGhost;
},
{
horizontal = 1;
place = "{266, 67}";
type = Stem;
},
{
horizontal = 1;
place = "{422, 70}";
type = Stem;
},
{
horizontal = 1;
place = "{625, 141}";
type = Stem;
}
);
layerId = "89E2520C-A138-4547-B47C-84DD62C3AEAF";
paths = (
{
closed = 1;
nodes = (
"296 766 LINE",
"223 766 LINE",
"116 625 LINE",
"182 625 LINE",
"258 707 LINE",
"336 625 LINE",
"402 625 LINE"
);
},
{
closed = 1;
nodes = (
"480 0 LINE",
"480 308 LINE SMOOTH",
"480 431 OFFCURVE",
"373 492 OFFCURVE",
"257 492 CURVE SMOOTH",
"182 492 OFFCURVE",
"112 470 OFFCURVE",
"67 450 CURVE",
"67 372 LINE",
"126 408 OFFCURVE",
"190 422 OFFCURVE",
"254 422 CURVE SMOOTH",
"338 422 OFFCURVE",
"398 394 OFFCURVE",
"398 318 CURVE SMOOTH",
"398 299 LINE",
"355 324 OFFCURVE",
"303 333 OFFCURVE",
"246 333 CURVE SMOOTH",
"146 333 OFFCURVE",
"35 296 OFFCURVE",
"35 171 CURVE SMOOTH",
"35 54 OFFCURVE",
"140 -11 OFFCURVE",
"235 -11 CURVE SMOOTH",
"302 -11 OFFCURVE",
"351 9 OFFCURVE",
"396 49 CURVE"
);
},
{
closed = 1;
nodes = (
"398 122 LINE",
"365 82 OFFCURVE",
"318 57 OFFCURVE",
"253 57 CURVE SMOOTH",
"181 57 OFFCURVE",
"117 90 OFFCURVE",
"117 161 CURVE SMOOTH",
"117 238 OFFCURVE",
"193 266 OFFCURVE",
"258 266 CURVE SMOOTH",
"322 266 OFFCURVE",
"365 247 OFFCURVE",
"398 228 CURVE"
);
}
);
width = 548;
}
);
unicode = 00E2;
},
{
glyphname = atilde;
layers = (
{
hints = (
{
place = "{35, 82}";
type = Stem;
},
{
place = "{398, 82}";
type = Stem;
},
{
horizontal = 1;
place = "{-11, 68}";
type = Stem;
},
{
horizontal = 1;
place = "{0, 21}";
target = up;
type = BottomGhost;
},
{
horizontal = 1;
place = "{266, 67}";
type = Stem;
},
{
horizontal = 1;
place = "{422, 70}";
type = Stem;
},
{
horizontal = 1;
place = "{617, 68}";
type = Stem;
},
{
horizontal = 1;
place = "{654, 68}";
type = Stem;
}
);
layerId = "89E2520C-A138-4547-B47C-84DD62C3AEAF";
paths = (
{
closed = 1;
nodes = (
"163 608 LINE",
"174 641 OFFCURVE",
"198 654 OFFCURVE",
"222 654 CURVE SMOOTH",
"264 654 OFFCURVE",
"302 617 OFFCURVE",
"345 617 CURVE SMOOTH",
"392 617 OFFCURVE",
"420 656 OFFCURVE",
"439 720 CURVE",
"386 730 LINE",
"375 701 OFFCURVE",
"362 685 OFFCURVE",
"339 685 CURVE SMOOTH",
"303 685 OFFCURVE",
"264 722 OFFCURVE",
"216 722 CURVE SMOOTH",
"164 722 OFFCURVE",
"128 681 OFFCURVE",
"109 618 CURVE"
);
},
{
closed = 1;
nodes = (
"480 0 LINE",
"480 308 LINE SMOOTH",
"480 431 OFFCURVE",
"373 492 OFFCURVE",
"257 492 CURVE SMOOTH",
"182 492 OFFCURVE",
"112 470 OFFCURVE",
"67 450 CURVE",
"67 372 LINE",
"126 408 OFFCURVE",
"190 422 OFFCURVE",
"254 422 CURVE SMOOTH",
"338 422 OFFCURVE",
"398 394 OFFCURVE",
"398 318 CURVE SMOOTH",
"398 299 LINE",
"355 324 OFFCURVE",
"303 333 OFFCURVE",
"246 333 CURVE SMOOTH",
"146 333 OFFCURVE",
"35 296 OFFCURVE",
"35 171 CURVE SMOOTH",
"35 54 OFFCURVE",
"140 -11 OFFCURVE",
"235 -11 CURVE SMOOTH",
"302 -11 OFFCURVE",
"351 9 OFFCURVE",
"396 49 CURVE"
);
},
{
closed = 1;
nodes = (
"398 122 LINE",
"365 82 OFFCURVE",
"318 57 OFFCURVE",
"253 57 CURVE SMOOTH",
"181 57 OFFCURVE",
"117 90 OFFCURVE",
"117 161 CURVE SMOOTH",
"117 238 OFFCURVE",
"193 266 OFFCURVE",
"258 266 CURVE SMOOTH",
"322 266 OFFCURVE",
"365 247 OFFCURVE",
"398 228 CURVE"
);
}
);
width = 548;
}
);
unicode = 00E3;
},
{
glyphname = adieresis;
layers = (
{
hints = (
{
place = "{35, 82}";
type = Stem;
},
{
place = "{105, 119}";
type = Stem;
},
{
place = "{297, 116}";
type = Stem;
},
{
place = "{398, 82}";
type = Stem;
},
{
horizontal = 1;
place = "{-11, 68}";
type = Stem;
},
{
horizontal = 1;
place = "{0, 21}";
target = up;
type = BottomGhost;
},
{
horizontal = 1;
place = "{266, 67}";
type = Stem;
},
{
horizontal = 1;
place = "{422, 70}";
type = Stem;
},
{
horizontal = 1;
place = "{626, 118}";
type = Stem;
}
);
layerId = "89E2520C-A138-4547-B47C-84DD62C3AEAF";
paths = (
{
closed = 1;
nodes = (
"105 652 OFFCURVE",
"129 626 OFFCURVE",
"164 626 CURVE SMOOTH",
"196 626 OFFCURVE",
"224 652 OFFCURVE",
"224 685 CURVE SMOOTH",
"224 717 OFFCURVE",
"196 744 OFFCURVE",
"164 744 CURVE SMOOTH",
"129 744 OFFCURVE",
"105 717 OFFCURVE",
"105 685 CURVE SMOOTH"
);
},
{
closed = 1;
nodes = (
"297 652 OFFCURVE",
"322 626 OFFCURVE",
"354 626 CURVE SMOOTH",
"389 626 OFFCURVE",
"413 652 OFFCURVE",
"413 685 CURVE SMOOTH",
"413 717 OFFCURVE",
"389 744 OFFCURVE",
"354 744 CURVE SMOOTH",
"322 744 OFFCURVE",
"297 717 OFFCURVE",
"297 685 CURVE SMOOTH"
);
},
{
closed = 1;
nodes = (
"480 0 LINE",
"480 308 LINE SMOOTH",
"480 431 OFFCURVE",
"373 492 OFFCURVE",
"257 492 CURVE SMOOTH",
"182 492 OFFCURVE",
"112 470 OFFCURVE",
"67 450 CURVE",
"67 372 LINE",
"126 408 OFFCURVE",
"190 422 OFFCURVE",
"254 422 CURVE SMOOTH",
"338 422 OFFCURVE",
"398 394 OFFCURVE",
"398 318 CURVE SMOOTH",
"398 299 LINE",
"355 324 OFFCURVE",
"303 333 OFFCURVE",
"246 333 CURVE SMOOTH",
"146 333 OFFCURVE",
"35 296 OFFCURVE",
"35 171 CURVE SMOOTH",
"35 54 OFFCURVE",
"140 -11 OFFCURVE",
"235 -11 CURVE SMOOTH",
"302 -11 OFFCURVE",
"351 9 OFFCURVE",
"396 49 CURVE"
);
},
{
closed = 1;
nodes = (
"398 122 LINE",
"365 82 OFFCURVE",
"318 57 OFFCURVE",
"253 57 CURVE SMOOTH",
"181 57 OFFCURVE",
"117 90 OFFCURVE",
"117 161 CURVE SMOOTH",
"117 238 OFFCURVE",
"193 266 OFFCURVE",
"258 266 CURVE SMOOTH",
"322 266 OFFCURVE",
"365 247 OFFCURVE",
"398 228 CURVE"
);
}
);
width = 548;
}
);
unicode = 00E4;
},
{
glyphname = aring;
layers = (
{
hints = (
{
place = "{35, 82}";
type = Stem;
},
{
place = "{159, 44}";
type = Stem;
},
{
place = "{318, 44}";
type = Stem;
},
{
place = "{398, 82}";
type = Stem;
},
{
horizontal = 1;
place = "{-11, 68}";
type = Stem;
},
{
horizontal = 1;
place = "{0, 21}";
target = up;
type = BottomGhost;
},
{
horizontal = 1;
place = "{266, 67}";
type = Stem;
},
{
horizontal = 1;
place = "{422, 70}";
type = Stem;
},
{
horizontal = 1;
place = "{592, 44}";
type = Stem;
},
{
horizontal = 1;
place = "{748, 44}";
type = Stem;
}
);
layerId = "89E2520C-A138-4547-B47C-84DD62C3AEAF";
paths = (
{
closed = 1;
nodes = (
"362 746 OFFCURVE",
"316 792 OFFCURVE",
"259 792 CURVE SMOOTH",
"206 792 OFFCURVE",
"159 747 OFFCURVE",
"159 691 CURVE SMOOTH",
"159 635 OFFCURVE",
"206 592 OFFCURVE",
"259 592 CURVE SMOOTH",
"317 592 OFFCURVE",
"362 633 OFFCURVE",
"362 689 CURVE SMOOTH"
);
},
{
closed = 1;
nodes = (
"318 660 OFFCURVE",
"296 636 OFFCURVE",
"261 636 CURVE SMOOTH",
"229 636 OFFCURVE",
"203 657 OFFCURVE",
"203 692 CURVE SMOOTH",
"203 723 OFFCURVE",
"228 748 OFFCURVE",
"261 748 CURVE SMOOTH",
"294 748 OFFCURVE",
"318 722 OFFCURVE",
"318 691 CURVE SMOOTH"
);
},
{
closed = 1;
nodes = (
"480 0 LINE",
"480 308 LINE SMOOTH",
"480 431 OFFCURVE",
"373 492 OFFCURVE",
"257 492 CURVE SMOOTH",
"182 492 OFFCURVE",
"112 470 OFFCURVE",
"67 450 CURVE",
"67 372 LINE",
"126 408 OFFCURVE",
"190 422 OFFCURVE",
"254 422 CURVE SMOOTH",
"338 422 OFFCURVE",
"398 394 OFFCURVE",
"398 318 CURVE SMOOTH",
"398 299 LINE",
"355 324 OFFCURVE",
"303 333 OFFCURVE",
"246 333 CURVE SMOOTH",
"146 333 OFFCURVE",
"35 296 OFFCURVE",
"35 171 CURVE SMOOTH",
"35 54 OFFCURVE",
"140 -11 OFFCURVE",
"235 -11 CURVE SMOOTH",
"302 -11 OFFCURVE",
"351 9 OFFCURVE",
"396 49 CURVE"
);
},
{
closed = 1;
nodes = (
"398 122 LINE",
"365 82 OFFCURVE",
"318 57 OFFCURVE",
"253 57 CURVE SMOOTH",
"181 57 OFFCURVE",
"117 90 OFFCURVE",
"117 161 CURVE SMOOTH",
"117 238 OFFCURVE",
"193 266 OFFCURVE",
"258 266 CURVE SMOOTH",
"322 266 OFFCURVE",
"365 247 OFFCURVE",
"398 228 CURVE"
);
}
);
width = 548;
}
);
unicode = 00E5;
},
{
glyphname = ae;
layers = (
{
hints = (
{
place = "{31, 82}";
type = Stem;
},
{
place = "{394, 84}";
type = Stem;
},
{
horizontal = 1;
place = "{-11, 70}";
type = Stem;
},
{
horizontal = 1;
place = "{266, 67}";
type = Stem;
},
{
horizontal = 1;
place = "{422, 70}";
type = Stem;
},
{
horizontal = 1;
place = "{425, 70}";
type = Stem;
}
);
layerId = "89E2520C-A138-4547-B47C-84DD62C3AEAF";
paths = (
{
closed = 1;
nodes = (
"565 59 OFFCURVE",
"510 107 OFFCURVE",
"487 175 CURVE",
"862 266 LINE",
"846 390 OFFCURVE",
"767 495 OFFCURVE",
"629 495 CURVE SMOOTH",
"549 495 OFFCURVE",
"488 459 OFFCURVE",
"449 402 CURVE",
"407 466 OFFCURVE",
"326 492 OFFCURVE",
"253 492 CURVE SMOOTH",
"178 492 OFFCURVE",
"108 470 OFFCURVE",
"63 450 CURVE",
"63 372 LINE",
"114 404 OFFCURVE",
"170 418 OFFCURVE",
"226 421 CURVE",
"234 422 OFFCURVE",
"242 422 OFFCURVE",
"250 422 CURVE SMOOTH",
"334 422 OFFCURVE",
"394 394 OFFCURVE",
"394 318 CURVE SMOOTH",
"394 299 LINE",
"351 324 OFFCURVE",
"299 333 OFFCURVE",
"242 333 CURVE SMOOTH",
"142 333 OFFCURVE",
"31 296 OFFCURVE",
"31 171 CURVE SMOOTH",
"31 59 OFFCURVE",
"126 -11 OFFCURVE",
"231 -11 CURVE SMOOTH",
"316 -11 OFFCURVE",
"394 19 OFFCURVE",
"453 80 CURVE",
"501 18 OFFCURVE",
"571 -11 OFFCURVE",
"648 -11 CURVE SMOOTH",
"720 -11 OFFCURVE",
"778 12 OFFCURVE",
"818 44 CURVE",
"818 132 LINE",
"781 95 OFFCURVE",
"728 59 OFFCURVE",
"653 59 CURVE SMOOTH"
);
},
{
closed = 1;
nodes = (
"482 250 LINE",
"478 247 LINE",
"478 340 OFFCURVE",
"535 425 OFFCURVE",
"632 425 CURVE SMOOTH",
"708 425 OFFCURVE",
"762 377 OFFCURVE",
"779 316 CURVE"
);
},
{
closed = 1;
nodes = (
"394 122 LINE",
"361 82 OFFCURVE",
"314 57 OFFCURVE",
"249 57 CURVE SMOOTH",
"177 57 OFFCURVE",
"113 90 OFFCURVE",
"113 161 CURVE SMOOTH",
"113 238 OFFCURVE",
"189 266 OFFCURVE",
"254 266 CURVE SMOOTH",
"318 266 OFFCURVE",
"361 247 OFFCURVE",
"394 228 CURVE"
);
}
);
width = 895;
}
);
unicode = 00E6;
},
{
glyphname = ccedilla;
layers = (
{
hints = (
{
horizontal = 1;
place = "{-221, 51}";
type = Stem;
},
{
horizontal = 1;
place = "{-94, 24}";
type = Stem;
},
{
horizontal = 1;
place = "{-6, 21}";
target = up;
type = BottomGhost;
},
{
horizontal = 1;
place = "{423, 69}";
type = Stem;
},
{
place = "{35, 83}";
type = Stem;
},
{
place = "{269, 78}";
type = Stem;
}
);
layerId = "89E2520C-A138-4547-B47C-84DD62C3AEAF";
paths = (
{
closed = 1;
nodes = (
"420 452 LINE",
"384 479 OFFCURVE",
"332 492 OFFCURVE",
"284 492 CURVE SMOOTH",
"135 492 OFFCURVE",
"35 379 OFFCURVE",
"35 240 CURVE SMOOTH",
"35 113 OFFCURVE",
"119 13 OFFCURVE",
"236 -6 CURVE",
"180 -88 LINE",
"197 -101 LINE",
"209 -96 OFFCURVE",
"217 -94 OFFCURVE",
"228 -94 CURVE SMOOTH",
"252 -94 OFFCURVE",
"269 -104 OFFCURVE",
"269 -125 CURVE SMOOTH",
"269 -160 OFFCURVE",
"227 -170 OFFCURVE",
"204 -170 CURVE SMOOTH",
"189 -170 OFFCURVE",
"174 -167 OFFCURVE",
"155 -160 CURVE",
"144 -201 LINE",
"169 -213 OFFCURVE",
"195 -221 OFFCURVE",
"227 -221 CURVE SMOOTH",
"278 -221 OFFCURVE",
"347 -198 OFFCURVE",
"347 -135 CURVE SMOOTH",
"347 -83 OFFCURVE",
"299 -70 OFFCURVE",
"267 -70 CURVE SMOOTH",
"264 -70 LINE",
"300 -8 LINE",
"350 -4 OFFCURVE",
"391 14 OFFCURVE",
"425 35 CURVE",
"425 125 LINE",
"389 86 OFFCURVE",
"342 60 OFFCURVE",
"286 60 CURVE SMOOTH",
"191 60 OFFCURVE",
"118 146 OFFCURVE",
"118 246 CURVE SMOOTH",
"118 347 OFFCURVE",
"187 423 OFFCURVE",
"283 423 CURVE SMOOTH",
"336 423 OFFCURVE",
"383 399 OFFCURVE",
"420 359 CURVE"
);
}
);
width = 470;
}
);
unicode = 00E7;
},
{
glyphname = egrave;
layers = (
{
hints = (
{
horizontal = 1;
place = "{-11, 70}";
type = Stem;
},
{
horizontal = 1;
place = "{425, 70}";
type = Stem;
},
{
place = "{35, 80}";
type = Stem;
}
);
layerId = "89E2520C-A138-4547-B47C-84DD62C3AEAF";
paths = (
{
closed = 1;
nodes = (
"202 59 OFFCURVE",
"147 107 OFFCURVE",
"124 175 CURVE",
"499 266 LINE",
"483 390 OFFCURVE",
"404 495 OFFCURVE",
"266 495 CURVE SMOOTH",
"126 495 OFFCURVE",
"35 382 OFFCURVE",
"35 239 CURVE SMOOTH",
"35 92 OFFCURVE",
"142 -11 OFFCURVE",
"285 -11 CURVE SMOOTH",
"356 -11 OFFCURVE",
"415 12 OFFCURVE",
"455 44 CURVE",
"455 132 LINE",
"418 95 OFFCURVE",
"365 59 OFFCURVE",
"290 59 CURVE SMOOTH"
);
},
{
closed = 1;
nodes = (
"115 247 LINE",
"115 338 OFFCURVE",
"169 425 OFFCURVE",
"269 425 CURVE SMOOTH",
"345 425 OFFCURVE",
"399 377 OFFCURVE",
"416 316 CURVE",
"119 240 LINE"
);
}
);
width = 533;
}
);
unicode = 00E8;
},
{
glyphname = eacute;
layers = (
{
hints = (
{
horizontal = 1;
place = "{-11, 70}";
type = Stem;
},
{
horizontal = 1;
place = "{425, 70}";
type = Stem;
},
{
place = "{35, 80}";
type = Stem;
}
);
layerId = "89E2520C-A138-4547-B47C-84DD62C3AEAF";
paths = (
{
closed = 1;
nodes = (
"202 59 OFFCURVE",
"147 107 OFFCURVE",
"124 175 CURVE",
"499 266 LINE",
"483 390 OFFCURVE",
"404 495 OFFCURVE",
"266 495 CURVE SMOOTH",
"126 495 OFFCURVE",
"35 382 OFFCURVE",
"35 239 CURVE SMOOTH",
"35 92 OFFCURVE",
"142 -11 OFFCURVE",
"285 -11 CURVE SMOOTH",
"356 -11 OFFCURVE",
"415 12 OFFCURVE",
"455 44 CURVE",
"455 132 LINE",
"418 95 OFFCURVE",
"365 59 OFFCURVE",
"290 59 CURVE SMOOTH"
);
},
{
closed = 1;
nodes = (
"115 247 LINE",
"115 338 OFFCURVE",
"169 425 OFFCURVE",
"269 425 CURVE SMOOTH",
"345 425 OFFCURVE",
"399 377 OFFCURVE",
"416 316 CURVE",
"119 240 LINE"
);
}
);
width = 533;
}
);
unicode = 00E9;
},
{
glyphname = ecircumflex;
layers = (
{
hints = (
{
horizontal = 1;
place = "{-11, 70}";
type = Stem;
},
{
horizontal = 1;
place = "{425, 70}";
type = Stem;
},
{
horizontal = 1;
place = "{625, 141}";
type = Stem;
},
{
place = "{35, 80}";
type = Stem;
}
);
layerId = "89E2520C-A138-4547-B47C-84DD62C3AEAF";
paths = (
{
closed = 1;
nodes = (
"322 766 LINE",
"249 766 LINE",
"142 625 LINE",
"208 625 LINE",
"284 707 LINE",
"362 625 LINE",
"428 625 LINE"
);
},
{
closed = 1;
nodes = (
"202 59 OFFCURVE",
"147 107 OFFCURVE",
"124 175 CURVE",
"499 266 LINE",
"483 390 OFFCURVE",
"404 495 OFFCURVE",
"266 495 CURVE SMOOTH",
"126 495 OFFCURVE",
"35 382 OFFCURVE",
"35 239 CURVE SMOOTH",
"35 92 OFFCURVE",
"142 -11 OFFCURVE",
"285 -11 CURVE SMOOTH",
"356 -11 OFFCURVE",
"415 12 OFFCURVE",
"455 44 CURVE",
"455 132 LINE",
"418 95 OFFCURVE",
"365 59 OFFCURVE",
"290 59 CURVE SMOOTH"
);
},
{
closed = 1;
nodes = (
"115 247 LINE",
"115 338 OFFCURVE",
"169 425 OFFCURVE",
"269 425 CURVE SMOOTH",
"345 425 OFFCURVE",
"399 377 OFFCURVE",
"416 316 CURVE",
"119 240 LINE"
);
}
);
width = 533;
}
);
unicode = 00EA;
},
{
glyphname = edieresis;
layers = (
{
hints = (
{
horizontal = 1;
place = "{-11, 70}";
type = Stem;
},
{
horizontal = 1;
place = "{425, 70}";
type = Stem;
},
{
place = "{35, 80}";
type = Stem;
}
);
layerId = "89E2520C-A138-4547-B47C-84DD62C3AEAF";
paths = (
{
closed = 1;
nodes = (
"202 59 OFFCURVE",
"147 107 OFFCURVE",
"124 175 CURVE",
"499 266 LINE",
"483 390 OFFCURVE",
"404 495 OFFCURVE",
"266 495 CURVE SMOOTH",
"126 495 OFFCURVE",
"35 382 OFFCURVE",
"35 239 CURVE SMOOTH",
"35 92 OFFCURVE",
"142 -11 OFFCURVE",
"285 -11 CURVE SMOOTH",
"356 -11 OFFCURVE",
"415 12 OFFCURVE",
"455 44 CURVE",
"455 132 LINE",
"418 95 OFFCURVE",
"365 59 OFFCURVE",
"290 59 CURVE SMOOTH"
);
},
{
closed = 1;
nodes = (
"115 247 LINE",
"115 338 OFFCURVE",
"169 425 OFFCURVE",
"269 425 CURVE SMOOTH",
"345 425 OFFCURVE",
"399 377 OFFCURVE",
"416 316 CURVE",
"119 240 LINE"
);
}
);
width = 533;
}
);
unicode = 00EB;
},
{
glyphname = igrave;
layers = (
{
hints = (
{
horizontal = 1;
place = "{0, 21}";
target = up;
type = BottomGhost;
},
{
place = "{52, 81}";
type = Stem;
}
);
layerId = "89E2520C-A138-4547-B47C-84DD62C3AEAF";
paths = (
{
closed = 1;
nodes = (
"133 482 LINE",
"52 482 LINE",
"52 0 LINE",
"133 0 LINE"
);
}
);
width = 201;
}
);
unicode = 00EC;
},
{
glyphname = iacute;
layers = (
{
hints = (
{
horizontal = 1;
place = "{0, 21}";
target = up;
type = BottomGhost;
},
{
place = "{32, 81}";
type = Stem;
}
);
layerId = "89E2520C-A138-4547-B47C-84DD62C3AEAF";
paths = (
{
closed = 1;
nodes = (
"113 482 LINE",
"32 482 LINE",
"32 0 LINE",
"113 0 LINE"
);
}
);
width = 199;
}
);
unicode = 00ED;
},
{
glyphname = icircumflex;
layers = (
{
hints = (
{
horizontal = 1;
place = "{0, 21}";
target = up;
type = BottomGhost;
},
{
horizontal = 1;
place = "{625, 141}";
type = Stem;
},
{
place = "{56, 81}";
type = Stem;
}
);
layerId = "89E2520C-A138-4547-B47C-84DD62C3AEAF";
paths = (
{
closed = 1;
nodes = (
"134 766 LINE",
"61 766 LINE",
"-46 625 LINE",
"20 625 LINE",
"96 707 LINE",
"174 625 LINE",
"240 625 LINE"
);
},
{
closed = 1;
nodes = (
"137 482 LINE",
"56 482 LINE",
"56 0 LINE",
"137 0 LINE"
);
}
);
width = 195;
}
);
unicode = 00EE;
},
{
glyphname = idieresis;
layers = (
{
hints = (
{
horizontal = 1;
place = "{0, 21}";
target = up;
type = BottomGhost;
},
{
place = "{74, 81}";
type = Stem;
}
);
layerId = "89E2520C-A138-4547-B47C-84DD62C3AEAF";
paths = (
{
closed = 1;
nodes = (
"155 482 LINE",
"74 482 LINE",
"74 0 LINE",
"155 0 LINE"
);
}
);
width = 234;
}
);
unicode = 00EF;
},
{
glyphname = eth;
layers = (
{
hints = (
{
horizontal = 1;
place = "{-11, 69}";
type = Stem;
},
{
horizontal = 1;
place = "{384, 66}";
type = Stem;
},
{
place = "{35, 76}";
type = Stem;
},
{
place = "{422, 74}";
type = Stem;
}
);
layerId = "89E2520C-A138-4547-B47C-84DD62C3AEAF";
paths = (
{
closed = 1;
nodes = (
"90 735 LINE",
"158 692 OFFCURVE",
"191 666 OFFCURVE",
"207 651 CURVE",
"85 569 LINE",
"122 531 LINE",
"246 614 LINE",
"314 550 OFFCURVE",
"374 478 OFFCURVE",
"405 390 CURVE",
"387 408 OFFCURVE",
"341 450 OFFCURVE",
"259 450 CURVE SMOOTH",
"125 450 OFFCURVE",
"35 337 OFFCURVE",
"35 220 CURVE SMOOTH",
"35 92 OFFCURVE",
"137 -11 OFFCURVE",
"266 -11 CURVE SMOOTH",
"369 -11 OFFCURVE",
"496 64 OFFCURVE",
"496 240 CURVE SMOOTH",
"496 463 OFFCURVE",
"347 604 OFFCURVE",
"301 650 CURVE",
"426 734 LINE",
"389 772 LINE",
"260 686 LINE",
"217 723 OFFCURVE",
"194 739 OFFCURVE",
"131 778 CURVE"
);
},
{
closed = 1;
nodes = (
"111 313 OFFCURVE",
"176 384 OFFCURVE",
"268 384 CURVE SMOOTH",
"361 384 OFFCURVE",
"422 306 OFFCURVE",
"422 221 CURVE SMOOTH",
"422 133 OFFCURVE",
"360 58 OFFCURVE",
"267 58 CURVE SMOOTH",
"182 58 OFFCURVE",
"111 125 OFFCURVE",
"111 221 CURVE SMOOTH"
);
}
);
width = 531;
}
);
unicode = 00F0;
},
{
glyphname = ntilde;
layers = (
{
hints = (
{
horizontal = 1;
place = "{0, 21}";
target = up;
type = BottomGhost;
},
{
horizontal = 1;
place = "{421, 72}";
type = Stem;
},
{
place = "{67, 82}";
type = Stem;
},
{
place = "{399, 82}";
type = Stem;
}
);
layerId = "89E2520C-A138-4547-B47C-84DD62C3AEAF";
paths = (
{
closed = 1;
nodes = (
"238 493 OFFCURVE",
"187 464 OFFCURVE",
"151 421 CURVE",
"67 482 LINE",
"67 0 LINE",
"149 0 LINE",
"149 280 LINE SMOOTH",
"149 390 OFFCURVE",
"226 421 OFFCURVE",
"281 421 CURVE SMOOTH",
"338 421 OFFCURVE",
"399 388 OFFCURVE",
"399 280 CURVE SMOOTH",
"399 0 LINE",
"481 0 LINE",
"481 303 LINE SMOOTH",
"481 428 OFFCURVE",
"413 493 OFFCURVE",
"307 493 CURVE SMOOTH"
);
}
);
width = 542;
}
);
unicode = 00F1;
},
{
glyphname = ograve;
layers = (
{
hints = (
{
horizontal = 1;
place = "{-10, 69}";
type = Stem;
},
{
horizontal = 1;
place = "{425, 69}";
type = Stem;
},
{
place = "{35, 83}";
type = Stem;
},
{
place = "{468, 83}";
type = Stem;
}
);
layerId = "89E2520C-A138-4547-B47C-84DD62C3AEAF";
paths = (
{
closed = 1;
nodes = (
"551 383 OFFCURVE",
"441 494 OFFCURVE",
"292 494 CURVE SMOOTH",
"143 494 OFFCURVE",
"35 382 OFFCURVE",
"35 240 CURVE SMOOTH",
"35 99 OFFCURVE",
"143 -10 OFFCURVE",
"291 -10 CURVE SMOOTH",
"441 -10 OFFCURVE",
"551 102 OFFCURVE",
"551 242 CURVE SMOOTH"
);
},
{
closed = 1;
nodes = (
"468 142 OFFCURVE",
"394 59 OFFCURVE",
"292 59 CURVE SMOOTH",
"193 59 OFFCURVE",
"118 138 OFFCURVE",
"118 242 CURVE SMOOTH",
"118 343 OFFCURVE",
"187 425 OFFCURVE",
"291 425 CURVE SMOOTH",
"395 425 OFFCURVE",
"468 342 OFFCURVE",
"468 241 CURVE SMOOTH"
);
}
);
width = 586;
}
);
unicode = 00F2;
},
{
glyphname = oacute;
layers = (
{
hints = (
{
horizontal = 1;
place = "{-10, 69}";
type = Stem;
},
{
horizontal = 1;
place = "{425, 69}";
type = Stem;
},
{
place = "{35, 83}";
type = Stem;
},
{
place = "{468, 83}";
type = Stem;
}
);
layerId = "89E2520C-A138-4547-B47C-84DD62C3AEAF";
paths = (
{
closed = 1;
nodes = (
"551 383 OFFCURVE",
"441 494 OFFCURVE",
"292 494 CURVE SMOOTH",
"143 494 OFFCURVE",
"35 382 OFFCURVE",
"35 240 CURVE SMOOTH",
"35 99 OFFCURVE",
"143 -10 OFFCURVE",
"291 -10 CURVE SMOOTH",
"441 -10 OFFCURVE",
"551 102 OFFCURVE",
"551 242 CURVE SMOOTH"
);
},
{
closed = 1;
nodes = (
"468 142 OFFCURVE",
"394 59 OFFCURVE",
"292 59 CURVE SMOOTH",
"193 59 OFFCURVE",
"118 138 OFFCURVE",
"118 242 CURVE SMOOTH",
"118 343 OFFCURVE",
"187 425 OFFCURVE",
"291 425 CURVE SMOOTH",
"395 425 OFFCURVE",
"468 342 OFFCURVE",
"468 241 CURVE SMOOTH"
);
}
);
width = 586;
}
);
unicode = 00F3;
},
{
glyphname = ocircumflex;
layers = (
{
hints = (
{
horizontal = 1;
place = "{-10, 69}";
type = Stem;
},
{
horizontal = 1;
place = "{425, 69}";
type = Stem;
},
{
horizontal = 1;
place = "{625, 141}";
type = Stem;
},
{
place = "{35, 83}";
type = Stem;
},
{
place = "{468, 83}";
type = Stem;
}
);
layerId = "89E2520C-A138-4547-B47C-84DD62C3AEAF";
paths = (
{
closed = 1;
nodes = (
"331 766 LINE",
"258 766 LINE",
"151 625 LINE",
"217 625 LINE",
"293 707 LINE",
"371 625 LINE",
"437 625 LINE"
);
},
{
closed = 1;
nodes = (
"551 383 OFFCURVE",
"441 494 OFFCURVE",
"292 494 CURVE SMOOTH",
"143 494 OFFCURVE",
"35 382 OFFCURVE",
"35 240 CURVE SMOOTH",
"35 99 OFFCURVE",
"143 -10 OFFCURVE",
"291 -10 CURVE SMOOTH",
"441 -10 OFFCURVE",
"551 102 OFFCURVE",
"551 242 CURVE SMOOTH"
);
},
{
closed = 1;
nodes = (
"468 142 OFFCURVE",
"394 59 OFFCURVE",
"292 59 CURVE SMOOTH",
"193 59 OFFCURVE",
"118 138 OFFCURVE",
"118 242 CURVE SMOOTH",
"118 343 OFFCURVE",
"187 425 OFFCURVE",
"291 425 CURVE SMOOTH",
"395 425 OFFCURVE",
"468 342 OFFCURVE",
"468 241 CURVE SMOOTH"
);
}
);
width = 586;
}
);
unicode = 00F4;
},
{
glyphname = otilde;
layers = (
{
hints = (
{
horizontal = 1;
place = "{-10, 69}";
type = Stem;
},
{
horizontal = 1;
place = "{425, 69}";
type = Stem;
},
{
place = "{35, 83}";
type = Stem;
},
{
place = "{468, 83}";
type = Stem;
}
);
layerId = "89E2520C-A138-4547-B47C-84DD62C3AEAF";
paths = (
{
closed = 1;
nodes = (
"551 383 OFFCURVE",
"441 494 OFFCURVE",
"292 494 CURVE SMOOTH",
"143 494 OFFCURVE",
"35 382 OFFCURVE",
"35 240 CURVE SMOOTH",
"35 99 OFFCURVE",
"143 -10 OFFCURVE",
"291 -10 CURVE SMOOTH",
"441 -10 OFFCURVE",
"551 102 OFFCURVE",
"551 242 CURVE SMOOTH"
);
},
{
closed = 1;
nodes = (
"468 142 OFFCURVE",
"394 59 OFFCURVE",
"292 59 CURVE SMOOTH",
"193 59 OFFCURVE",
"118 138 OFFCURVE",
"118 242 CURVE SMOOTH",
"118 343 OFFCURVE",
"187 425 OFFCURVE",
"291 425 CURVE SMOOTH",
"395 425 OFFCURVE",
"468 342 OFFCURVE",
"468 241 CURVE SMOOTH"
);
}
);
width = 586;
}
);
unicode = 00F5;
},
{
glyphname = odieresis;
layers = (
{
hints = (
{
horizontal = 1;
place = "{-10, 69}";
type = Stem;
},
{
horizontal = 1;
place = "{425, 69}";
type = Stem;
},
{
place = "{35, 83}";
type = Stem;
},
{
place = "{468, 83}";
type = Stem;
}
);
layerId = "89E2520C-A138-4547-B47C-84DD62C3AEAF";
paths = (
{
closed = 1;
nodes = (
"551 383 OFFCURVE",
"441 494 OFFCURVE",
"292 494 CURVE SMOOTH",
"143 494 OFFCURVE",
"35 382 OFFCURVE",
"35 240 CURVE SMOOTH",
"35 99 OFFCURVE",
"143 -10 OFFCURVE",
"291 -10 CURVE SMOOTH",
"441 -10 OFFCURVE",
"551 102 OFFCURVE",
"551 242 CURVE SMOOTH"
);
},
{
closed = 1;
nodes = (
"468 142 OFFCURVE",
"394 59 OFFCURVE",
"292 59 CURVE SMOOTH",
"193 59 OFFCURVE",
"118 138 OFFCURVE",
"118 242 CURVE SMOOTH",
"118 343 OFFCURVE",
"187 425 OFFCURVE",
"291 425 CURVE SMOOTH",
"395 425 OFFCURVE",
"468 342 OFFCURVE",
"468 241 CURVE SMOOTH"
);
}
);
width = 586;
}
);
unicode = 00F6;
},
{
glyphname = divide;
layers = (
{
hints = (
{
horizontal = 1;
place = "{136, 114}";
type = Stem;
},
{
horizontal = 1;
place = "{320, 66}";
type = Stem;
},
{
horizontal = 1;
place = "{457, 114}";
type = Stem;
},
{
place = "{244, 116}";
type = Stem;
}
);
layerId = "89E2520C-A138-4547-B47C-84DD62C3AEAF";
paths = (
{
closed = 1;
nodes = (
"360 544 OFFCURVE",
"336 571 OFFCURVE",
"301 571 CURVE SMOOTH",
"266 571 OFFCURVE",
"244 544 OFFCURVE",
"244 513 CURVE SMOOTH",
"244 482 OFFCURVE",
"266 457 OFFCURVE",
"301 457 CURVE SMOOTH",
"336 457 OFFCURVE",
"360 482 OFFCURVE",
"360 513 CURVE SMOOTH"
);
},
{
closed = 1;
nodes = (
"557 386 LINE",
"47 386 LINE",
"47 320 LINE",
"557 320 LINE"
);
},
{
closed = 1;
nodes = (
"360 227 OFFCURVE",
"336 250 OFFCURVE",
"301 250 CURVE SMOOTH",
"266 250 OFFCURVE",
"244 227 OFFCURVE",
"244 194 CURVE SMOOTH",
"244 163 OFFCURVE",
"266 136 OFFCURVE",
"301 136 CURVE SMOOTH",
"336 136 OFFCURVE",
"360 163 OFFCURVE",
"360 194 CURVE SMOOTH"
);
}
);
width = 604;
}
);
unicode = 00F7;
},
{
glyphname = oslash;
layers = (
{
hints = (
{
horizontal = 1;
place = "{-12, 65}";
type = Stem;
},
{
horizontal = 1;
place = "{418, 65}";
type = Stem;
},
{
place = "{29, 80}";
type = Stem;
},
{
place = "{452, 80}";
type = Stem;
}
);
layerId = "89E2520C-A138-4547-B47C-84DD62C3AEAF";
paths = (
{
closed = 1;
nodes = (
"18 4 LINE",
"57 -35 LINE",
"125 39 LINE",
"168 4 OFFCURVE",
"215 -12 OFFCURVE",
"279 -12 CURVE SMOOTH",
"426 -12 OFFCURVE",
"532 95 OFFCURVE",
"532 236 CURVE SMOOTH",
"532 304 OFFCURVE",
"510 354 OFFCURVE",
"475 398 CURVE",
"524 451 LINE",
"490 489 LINE",
"435 435 LINE",
"392 470 OFFCURVE",
"339 483 OFFCURVE",
"279 483 CURVE SMOOTH",
"132 483 OFFCURVE",
"29 376 OFFCURVE",
"29 236 CURVE SMOOTH",
"29 173 OFFCURVE",
"48 122 OFFCURVE",
"87 74 CURVE"
);
},
{
closed = 1;
nodes = (
"139 127 LINE",
"116 158 OFFCURVE",
"109 191 OFFCURVE",
"109 236 CURVE SMOOTH",
"109 337 OFFCURVE",
"174 418 OFFCURVE",
"280 418 CURVE SMOOTH",
"325 418 OFFCURVE",
"359 405 OFFCURVE",
"386 382 CURVE"
);
},
{
closed = 1;
nodes = (
"421 344 LINE",
"440 313 OFFCURVE",
"452 279 OFFCURVE",
"452 236 CURVE SMOOTH",
"452 133 OFFCURVE",
"383 53 OFFCURVE",
"277 53 CURVE SMOOTH",
"234 53 OFFCURVE",
"201 65 OFFCURVE",
"172 88 CURVE"
);
}
);
width = 550;
}
);
unicode = 00F8;
},
{
glyphname = ugrave;
layers = (
{
hints = (
{
place = "{61, 82}";
type = Stem;
},
{
place = "{393, 82}";
type = Stem;
},
{
horizontal = 1;
place = "{-10, 72}";
type = Stem;
},
{
horizontal = 1;
place = "{0, 21}";
target = up;
type = BottomGhost;
}
);
layerId = "89E2520C-A138-4547-B47C-84DD62C3AEAF";
paths = (
{
closed = 1;
nodes = (
"306 -10 OFFCURVE",
"355 19 OFFCURVE",
"391 62 CURVE",
"475 0 LINE",
"475 483 LINE",
"393 483 LINE",
"393 203 LINE SMOOTH",
"393 93 OFFCURVE",
"318 62 OFFCURVE",
"261 62 CURVE SMOOTH",
"204 62 OFFCURVE",
"143 95 OFFCURVE",
"143 203 CURVE SMOOTH",
"143 483 LINE",
"61 483 LINE",
"61 180 LINE SMOOTH",
"61 53 OFFCURVE",
"128 -10 OFFCURVE",
"235 -10 CURVE SMOOTH"
);
}
);
width = 535;
}
);
unicode = 00F9;
},
{
glyphname = uacute;
layers = (
{
hints = (
{
place = "{61, 82}";
type = Stem;
},
{
place = "{393, 82}";
type = Stem;
},
{
horizontal = 1;
place = "{-10, 72}";
type = Stem;
},
{
horizontal = 1;
place = "{0, 21}";
target = up;
type = BottomGhost;
}
);
layerId = "89E2520C-A138-4547-B47C-84DD62C3AEAF";
paths = (
{
closed = 1;
nodes = (
"306 -10 OFFCURVE",
"355 19 OFFCURVE",
"391 62 CURVE",
"475 0 LINE",
"475 483 LINE",
"393 483 LINE",
"393 203 LINE SMOOTH",
"393 93 OFFCURVE",
"318 62 OFFCURVE",
"261 62 CURVE SMOOTH",
"204 62 OFFCURVE",
"143 95 OFFCURVE",
"143 203 CURVE SMOOTH",
"143 483 LINE",
"61 483 LINE",
"61 180 LINE SMOOTH",
"61 53 OFFCURVE",
"128 -10 OFFCURVE",
"235 -10 CURVE SMOOTH"
);
}
);
width = 535;
}
);
unicode = 00FA;
},
{
glyphname = ucircumflex;
layers = (
{
hints = (
{
place = "{61, 82}";
type = Stem;
},
{
place = "{393, 82}";
type = Stem;
},
{
horizontal = 1;
place = "{-10, 72}";
type = Stem;
},
{
horizontal = 1;
place = "{0, 21}";
target = up;
type = BottomGhost;
},
{
horizontal = 1;
place = "{625, 141}";
type = Stem;
}
);
layerId = "89E2520C-A138-4547-B47C-84DD62C3AEAF";
paths = (
{
closed = 1;
nodes = (
"305 766 LINE",
"232 766 LINE",
"125 625 LINE",
"191 625 LINE",
"267 707 LINE",
"345 625 LINE",
"411 625 LINE"
);
},
{
closed = 1;
nodes = (
"306 -10 OFFCURVE",
"355 19 OFFCURVE",
"391 62 CURVE",
"475 0 LINE",
"475 483 LINE",
"393 483 LINE",
"393 203 LINE SMOOTH",
"393 93 OFFCURVE",
"318 62 OFFCURVE",
"261 62 CURVE SMOOTH",
"204 62 OFFCURVE",
"143 95 OFFCURVE",
"143 203 CURVE SMOOTH",
"143 483 LINE",
"61 483 LINE",
"61 180 LINE SMOOTH",
"61 53 OFFCURVE",
"128 -10 OFFCURVE",
"235 -10 CURVE SMOOTH"
);
}
);
width = 535;
}
);
unicode = 00FB;
},
{
glyphname = udieresis;
layers = (
{
hints = (
{
place = "{61, 82}";
type = Stem;
},
{
place = "{393, 82}";
type = Stem;
},
{
horizontal = 1;
place = "{-10, 72}";
type = Stem;
},
{
horizontal = 1;
place = "{0, 21}";
target = up;
type = BottomGhost;
}
);
layerId = "89E2520C-A138-4547-B47C-84DD62C3AEAF";
paths = (
{
closed = 1;
nodes = (
"306 -10 OFFCURVE",
"355 19 OFFCURVE",
"391 62 CURVE",
"475 0 LINE",
"475 483 LINE",
"393 483 LINE",
"393 203 LINE SMOOTH",
"393 93 OFFCURVE",
"318 62 OFFCURVE",
"261 62 CURVE SMOOTH",
"204 62 OFFCURVE",
"143 95 OFFCURVE",
"143 203 CURVE SMOOTH",
"143 483 LINE",
"61 483 LINE",
"61 180 LINE SMOOTH",
"61 53 OFFCURVE",
"128 -10 OFFCURVE",
"235 -10 CURVE SMOOTH"
);
}
);
width = 535;
}
);
unicode = 00FC;
},
{
glyphname = yacute;
layers = (
{
hints = (
{
horizontal = 1;
place = "{-188, 669}";
type = Stem;
},
{
place = "{-4, 489}";
type = Stem;
}
);
layerId = "89E2520C-A138-4547-B47C-84DD62C3AEAF";
paths = (
{
closed = 1;
nodes = (
"214 0 LINE",
"139 -188 LINE",
"217 -188 LINE",
"485 481 LINE",
"399 481 LINE",
"250 98 LINE",
"85 481 LINE",
"-4 481 LINE"
);
}
);
width = 481;
}
);
unicode = 00FD;
},
{
glyphname = thorn;
layers = (
{
hints = (
{
horizontal = 1;
place = "{-12, 69}";
type = Stem;
},
{
horizontal = 1;
place = "{383, 69}";
type = Stem;
},
{
place = "{67, 75}";
type = Stem;
},
{
place = "{430, 77}";
type = Stem;
}
);
layerId = "89E2520C-A138-4547-B47C-84DD62C3AEAF";
paths = (
{
closed = 1;
nodes = (
"67 -247 LINE",
"142 -247 LINE",
"142 62 LINE",
"144 62 LINE",
"180 14 OFFCURVE",
"235 -12 OFFCURVE",
"295 -12 CURVE SMOOTH",
"425 -12 OFFCURVE",
"507 92 OFFCURVE",
"507 219 CURVE SMOOTH",
"507 341 OFFCURVE",
"423 452 OFFCURVE",
"296 452 CURVE SMOOTH",
"235 452 OFFCURVE",
"181 426 OFFCURVE",
"144 377 CURVE",
"142 377 LINE",
"142 772 LINE",
"67 772 LINE"
);
},
{
closed = 1;
nodes = (
"190 57 OFFCURVE",
"139 139 OFFCURVE",
"139 225 CURVE SMOOTH",
"139 308 OFFCURVE",
"195 383 OFFCURVE",
"282 383 CURVE SMOOTH",
"375 383 OFFCURVE",
"430 312 OFFCURVE",
"430 224 CURVE SMOOTH",
"430 135 OFFCURVE",
"379 57 OFFCURVE",
"283 57 CURVE SMOOTH"
);
}
);
width = 541;
}
);
unicode = 00FE;
},
{
glyphname = ydieresis;
layers = (
{
hints = (
{
horizontal = 1;
place = "{-188, 669}";
type = Stem;
},
{
place = "{-4, 489}";
type = Stem;
}
);
layerId = "89E2520C-A138-4547-B47C-84DD62C3AEAF";
paths = (
{
closed = 1;
nodes = (
"214 0 LINE",
"139 -188 LINE",
"217 -188 LINE",
"485 481 LINE",
"399 481 LINE",
"250 98 LINE",
"85 481 LINE",
"-4 481 LINE"
);
}
);
width = 481;
}
);
unicode = 00FF;
},
{
glyphname = Amacron;
layers = (
{
hints = (
{
place = "{-5, 687}";
type = Stem;
},
{
horizontal = 1;
place = "{0, 21}";
target = up;
type = BottomGhost;
},
{
horizontal = 1;
place = "{197, 75}";
type = Stem;
},
{
horizontal = 1;
place = "{606, 99}";
type = Stem;
},
{
horizontal = 1;
place = "{705, -20}";
target = down;
type = TopGhost;
},
{
horizontal = 1;
place = "{776, 57}";
type = Stem;
}
);
layerId = "89E2520C-A138-4547-B47C-84DD62C3AEAF";
paths = (
{
closed = 1;
nodes = (
"489 833 LINE",
"188 833 LINE",
"188 776 LINE",
"489 776 LINE"
);
},
{
closed = 1;
nodes = (
"505 197 LINE",
"589 0 LINE",
"682 0 LINE",
"373 705 LINE",
"303 705 LINE",
"-5 0 LINE",
"86 0 LINE",
"171 197 LINE"
);
},
{
closed = 1;
nodes = (
"338 606 LINE",
"473 272 LINE",
"203 272 LINE"
);
}
);
width = 677;
}
);
unicode = 0100;
},
{
glyphname = amacron;
layers = (
{
hints = (
{
place = "{35, 82}";
type = Stem;
},
{
place = "{398, 82}";
type = Stem;
},
{
horizontal = 1;
place = "{-11, 68}";
type = Stem;
},
{
horizontal = 1;
place = "{0, 21}";
target = up;
type = BottomGhost;
},
{
horizontal = 1;
place = "{266, 67}";
type = Stem;
},
{
horizontal = 1;
place = "{422, 70}";
type = Stem;
},
{
horizontal = 1;
place = "{611, 57}";
type = Stem;
}
);
layerId = "89E2520C-A138-4547-B47C-84DD62C3AEAF";
paths = (
{
closed = 1;
nodes = (
"417 668 LINE",
"116 668 LINE",
"116 611 LINE",
"417 611 LINE"
);
},
{
closed = 1;
nodes = (
"480 0 LINE",
"480 308 LINE SMOOTH",
"480 431 OFFCURVE",
"373 492 OFFCURVE",
"257 492 CURVE SMOOTH",
"182 492 OFFCURVE",
"112 470 OFFCURVE",
"67 450 CURVE",
"67 372 LINE",
"126 408 OFFCURVE",
"190 422 OFFCURVE",
"254 422 CURVE SMOOTH",
"338 422 OFFCURVE",
"398 394 OFFCURVE",
"398 318 CURVE SMOOTH",
"398 299 LINE",
"355 324 OFFCURVE",
"303 333 OFFCURVE",
"246 333 CURVE SMOOTH",
"146 333 OFFCURVE",
"35 296 OFFCURVE",
"35 171 CURVE SMOOTH",
"35 54 OFFCURVE",
"140 -11 OFFCURVE",
"235 -11 CURVE SMOOTH",
"302 -11 OFFCURVE",
"351 9 OFFCURVE",
"396 49 CURVE"
);
},
{
closed = 1;
nodes = (
"398 122 LINE",
"365 82 OFFCURVE",
"318 57 OFFCURVE",
"253 57 CURVE SMOOTH",
"181 57 OFFCURVE",
"117 90 OFFCURVE",
"117 161 CURVE SMOOTH",
"117 238 OFFCURVE",
"193 266 OFFCURVE",
"258 266 CURVE SMOOTH",
"322 266 OFFCURVE",
"365 247 OFFCURVE",
"398 228 CURVE"
);
}
);
width = 548;
}
);
unicode = 0101;
},
{
glyphname = Abreve;
layers = (
{
hints = (
{
place = "{-5, 687}";
type = Stem;
},
{
horizontal = 1;
place = "{0, 21}";
target = up;
type = BottomGhost;
},
{
horizontal = 1;
place = "{197, 75}";
type = Stem;
},
{
horizontal = 1;
place = "{606, 99}";
type = Stem;
},
{
horizontal = 1;
place = "{705, -20}";
target = down;
type = TopGhost;
},
{
horizontal = 1;
place = "{767, 66}";
type = Stem;
}
);
layerId = "89E2520C-A138-4547-B47C-84DD62C3AEAF";
paths = (
{
closed = 1;
nodes = (
"433 906 LINE",
"421 859 OFFCURVE",
"387 833 OFFCURVE",
"339 833 CURVE SMOOTH",
"290 833 OFFCURVE",
"254 859 OFFCURVE",
"242 906 CURVE",
"188 906 LINE",
"199 822 OFFCURVE",
"253 767 OFFCURVE",
"336 767 CURVE SMOOTH",
"419 767 OFFCURVE",
"479 822 OFFCURVE",
"487 906 CURVE"
);
},
{
closed = 1;
nodes = (
"505 197 LINE",
"589 0 LINE",
"682 0 LINE",
"373 705 LINE",
"303 705 LINE",
"-5 0 LINE",
"86 0 LINE",
"171 197 LINE"
);
},
{
closed = 1;
nodes = (
"338 606 LINE",
"473 272 LINE",
"203 272 LINE"
);
}
);
width = 677;
}
);
unicode = 0102;
},
{
glyphname = abreve;
layers = (
{
hints = (
{
place = "{35, 82}";
type = Stem;
},
{
place = "{398, 82}";
type = Stem;
},
{
horizontal = 1;
place = "{-11, 68}";
type = Stem;
},
{
horizontal = 1;
place = "{0, 21}";
target = up;
type = BottomGhost;
},
{
horizontal = 1;
place = "{266, 67}";
type = Stem;
},
{
horizontal = 1;
place = "{422, 70}";
type = Stem;
},
{
horizontal = 1;
place = "{602, 66}";
type = Stem;
}
);
layerId = "89E2520C-A138-4547-B47C-84DD62C3AEAF";
paths = (
{
closed = 1;
nodes = (
"372 741 LINE",
"360 694 OFFCURVE",
"326 668 OFFCURVE",
"278 668 CURVE SMOOTH",
"229 668 OFFCURVE",
"193 694 OFFCURVE",
"181 741 CURVE",
"127 741 LINE",
"138 657 OFFCURVE",
"192 602 OFFCURVE",
"275 602 CURVE SMOOTH",
"358 602 OFFCURVE",
"418 657 OFFCURVE",
"426 741 CURVE"
);
},
{
closed = 1;
nodes = (
"480 0 LINE",
"480 308 LINE SMOOTH",
"480 431 OFFCURVE",
"373 492 OFFCURVE",
"257 492 CURVE SMOOTH",
"182 492 OFFCURVE",
"112 470 OFFCURVE",
"67 450 CURVE",
"67 372 LINE",
"126 408 OFFCURVE",
"190 422 OFFCURVE",
"254 422 CURVE SMOOTH",
"338 422 OFFCURVE",
"398 394 OFFCURVE",
"398 318 CURVE SMOOTH",
"398 299 LINE",
"355 324 OFFCURVE",
"303 333 OFFCURVE",
"246 333 CURVE SMOOTH",
"146 333 OFFCURVE",
"35 296 OFFCURVE",
"35 171 CURVE SMOOTH",
"35 54 OFFCURVE",
"140 -11 OFFCURVE",
"235 -11 CURVE SMOOTH",
"302 -11 OFFCURVE",
"351 9 OFFCURVE",
"396 49 CURVE"
);
},
{
closed = 1;
nodes = (
"398 122 LINE",
"365 82 OFFCURVE",
"318 57 OFFCURVE",
"253 57 CURVE SMOOTH",
"181 57 OFFCURVE",
"117 90 OFFCURVE",
"117 161 CURVE SMOOTH",
"117 238 OFFCURVE",
"193 266 OFFCURVE",
"258 266 CURVE SMOOTH",
"322 266 OFFCURVE",
"365 247 OFFCURVE",
"398 228 CURVE"
);
}
);
width = 548;
}
);
unicode = 0103;
},
{
glyphname = Aogonek;
layers = (
{
hints = (
{
place = "{540, 68}";
type = Stem;
},
{
horizontal = 1;
place = "{-197, 50}";
type = Stem;
},
{
horizontal = 1;
place = "{0, 21}";
target = up;
type = BottomGhost;
},
{
horizontal = 1;
place = "{197, 75}";
type = Stem;
},
{
horizontal = 1;
place = "{606, 99}";
type = Stem;
},
{
horizontal = 1;
place = "{705, -20}";
target = down;
type = TopGhost;
}
);
layerId = "89E2520C-A138-4547-B47C-84DD62C3AEAF";
paths = (
{
closed = 1;
nodes = (
"505 197 LINE",
"589 0 LINE",
"566 -29 OFFCURVE",
"540 -65 OFFCURVE",
"540 -104 CURVE SMOOTH",
"540 -164 OFFCURVE",
"588 -197 OFFCURVE",
"652 -197 CURVE SMOOTH",
"673 -197 OFFCURVE",
"695 -193 OFFCURVE",
"720 -182 CURVE",
"710 -139 LINE",
"691 -144 OFFCURVE",
"679 -147 OFFCURVE",
"666 -147 CURVE SMOOTH",
"631 -147 OFFCURVE",
"608 -124 OFFCURVE",
"608 -92 CURVE SMOOTH",
"608 -60 OFFCURVE",
"625 -38 OFFCURVE",
"649 0 CURVE",
"682 0 LINE",
"373 705 LINE",
"303 705 LINE",
"-5 0 LINE",
"86 0 LINE",
"171 197 LINE"
);
},
{
closed = 1;
nodes = (
"338 606 LINE",
"473 272 LINE",
"203 272 LINE"
);
}
);
width = 694;
}
);
unicode = 0104;
},
{
glyphname = aogonek;
layers = (
{
hints = (
{
place = "{35, 82}";
type = Stem;
},
{
place = "{371, 68}";
type = Stem;
},
{
place = "{398, 82}";
type = Stem;
},
{
horizontal = 1;
place = "{-197, 50}";
type = Stem;
},
{
horizontal = 1;
place = "{-11, 68}";
type = Stem;
},
{
horizontal = 1;
place = "{266, 67}";
type = Stem;
},
{
horizontal = 1;
place = "{422, 70}";
type = Stem;
}
);
layerId = "89E2520C-A138-4547-B47C-84DD62C3AEAF";
paths = (
{
closed = 1;
nodes = (
"480 308 LINE SMOOTH",
"480 431 OFFCURVE",
"373 492 OFFCURVE",
"257 492 CURVE SMOOTH",
"182 492 OFFCURVE",
"112 470 OFFCURVE",
"67 450 CURVE",
"67 372 LINE",
"126 408 OFFCURVE",
"190 422 OFFCURVE",
"254 422 CURVE SMOOTH",
"338 422 OFFCURVE",
"398 394 OFFCURVE",
"398 318 CURVE SMOOTH",
"398 299 LINE",
"355 324 OFFCURVE",
"303 333 OFFCURVE",
"246 333 CURVE SMOOTH",
"146 333 OFFCURVE",
"35 296 OFFCURVE",
"35 171 CURVE SMOOTH",
"35 54 OFFCURVE",
"140 -11 OFFCURVE",
"235 -11 CURVE SMOOTH",
"302 -11 OFFCURVE",
"351 9 OFFCURVE",
"396 49 CURVE",
"438 24 LINE",
"390 -24 OFFCURVE",
"371 -63 OFFCURVE",
"371 -100 CURVE SMOOTH",
"371 -160 OFFCURVE",
"419 -197 OFFCURVE",
"483 -197 CURVE SMOOTH",
"504 -197 OFFCURVE",
"526 -193 OFFCURVE",
"551 -182 CURVE",
"541 -139 LINE",
"522 -144 OFFCURVE",
"510 -147 OFFCURVE",
"497 -147 CURVE SMOOTH",
"459 -147 OFFCURVE",
"439 -120 OFFCURVE",
"439 -89 CURVE SMOOTH",
"439 -61 OFFCURVE",
"456 -35 OFFCURVE",
"480 0 CURVE"
);
},
{
closed = 1;
nodes = (
"398 122 LINE",
"365 82 OFFCURVE",
"318 57 OFFCURVE",
"253 57 CURVE SMOOTH",
"181 57 OFFCURVE",
"117 90 OFFCURVE",
"117 161 CURVE SMOOTH",
"117 238 OFFCURVE",
"193 266 OFFCURVE",
"258 266 CURVE SMOOTH",
"322 266 OFFCURVE",
"365 247 OFFCURVE",
"398 228 CURVE"
);
}
);
width = 589;
}
);
unicode = 0105;
},
{
glyphname = Cacute;
layers = (
{
hints = (
{
horizontal = 1;
place = "{-14, 77}";
type = Stem;
},
{
horizontal = 1;
place = "{643, 76}";
type = Stem;
},
{
place = "{51, 87}";
type = Stem;
}
);
layerId = "89E2520C-A138-4547-B47C-84DD62C3AEAF";
paths = (
{
closed = 1;
nodes = (
"376 781 LINE",
"435 781 LINE",
"563 910 LINE",
"467 930 LINE"
);
},
{
closed = 1;
nodes = (
"647 175 LINE",
"580 116 OFFCURVE",
"512 63 OFFCURVE",
"410 63 CURVE SMOOTH",
"250 63 OFFCURVE",
"138 192 OFFCURVE",
"138 352 CURVE SMOOTH",
"138 512 OFFCURVE",
"250 643 OFFCURVE",
"410 643 CURVE SMOOTH",
"519 643 OFFCURVE",
"582 604 OFFCURVE",
"633 547 CURVE",
"633 643 LINE",
"576 687 OFFCURVE",
"510 719 OFFCURVE",
"415 719 CURVE SMOOTH",
"205 719 OFFCURVE",
"51 558 OFFCURVE",
"51 351 CURVE SMOOTH",
"51 144 OFFCURVE",
"207 -14 OFFCURVE",
"412 -14 CURVE SMOOTH",
"512 -14 OFFCURVE",
"583 23 OFFCURVE",
"647 78 CURVE"
);
}
);
width = 706;
}
);
unicode = 0106;
},
{
glyphname = cacute;
layers = (
{
hints = (
{
horizontal = 1;
place = "{-9, 69}";
type = Stem;
},
{
horizontal = 1;
place = "{423, 69}";
type = Stem;
},
{
place = "{35, 83}";
type = Stem;
}
);
layerId = "89E2520C-A138-4547-B47C-84DD62C3AEAF";
paths = (
{
closed = 1;
nodes = (
"420 452 LINE",
"384 479 OFFCURVE",
"332 492 OFFCURVE",
"284 492 CURVE SMOOTH",
"135 492 OFFCURVE",
"35 379 OFFCURVE",
"35 240 CURVE SMOOTH",
"35 99 OFFCURVE",
"139 -9 OFFCURVE",
"277 -9 CURVE SMOOTH",
"337 -9 OFFCURVE",
"386 11 OFFCURVE",
"425 35 CURVE",
"425 125 LINE",
"389 86 OFFCURVE",
"342 60 OFFCURVE",
"286 60 CURVE SMOOTH",
"191 60 OFFCURVE",
"118 146 OFFCURVE",
"118 246 CURVE SMOOTH",
"118 347 OFFCURVE",
"187 423 OFFCURVE",
"283 423 CURVE SMOOTH",
"336 423 OFFCURVE",
"383 399 OFFCURVE",
"420 359 CURVE"
);
}
);
width = 470;
}
);
unicode = 0107;
},
{
glyphname = Ccircumflex;
layers = (
{
hints = (
{
horizontal = 1;
place = "{-14, 77}";
type = Stem;
},
{
horizontal = 1;
place = "{643, 76}";
type = Stem;
},
{
horizontal = 1;
place = "{790, 141}";
type = Stem;
},
{
place = "{51, 87}";
type = Stem;
}
);
layerId = "89E2520C-A138-4547-B47C-84DD62C3AEAF";
paths = (
{
closed = 1;
nodes = (
"438 931 LINE",
"365 931 LINE",
"258 790 LINE",
"324 790 LINE",
"400 872 LINE",
"478 790 LINE",
"544 790 LINE"
);
},
{
closed = 1;
nodes = (
"647 175 LINE",
"580 116 OFFCURVE",
"512 63 OFFCURVE",
"410 63 CURVE SMOOTH",
"250 63 OFFCURVE",
"138 192 OFFCURVE",
"138 352 CURVE SMOOTH",
"138 512 OFFCURVE",
"250 643 OFFCURVE",
"410 643 CURVE SMOOTH",
"519 643 OFFCURVE",
"582 604 OFFCURVE",
"633 547 CURVE",
"633 643 LINE",
"576 687 OFFCURVE",
"510 719 OFFCURVE",
"415 719 CURVE SMOOTH",
"205 719 OFFCURVE",
"51 558 OFFCURVE",
"51 351 CURVE SMOOTH",
"51 144 OFFCURVE",
"207 -14 OFFCURVE",
"412 -14 CURVE SMOOTH",
"512 -14 OFFCURVE",
"583 23 OFFCURVE",
"647 78 CURVE"
);
}
);
width = 706;
}
);
unicode = 0108;
},
{
glyphname = ccircumflex;
layers = (
{
hints = (
{
horizontal = 1;
place = "{-9, 69}";
type = Stem;
},
{
horizontal = 1;
place = "{423, 69}";
type = Stem;
},
{
horizontal = 1;
place = "{625, 141}";
type = Stem;
},
{
place = "{35, 83}";
type = Stem;
}
);
layerId = "89E2520C-A138-4547-B47C-84DD62C3AEAF";
paths = (
{
closed = 1;
nodes = (
"312 766 LINE",
"239 766 LINE",
"132 625 LINE",
"198 625 LINE",
"274 707 LINE",
"352 625 LINE",
"418 625 LINE"
);
},
{
closed = 1;
nodes = (
"420 452 LINE",
"384 479 OFFCURVE",
"332 492 OFFCURVE",
"284 492 CURVE SMOOTH",
"135 492 OFFCURVE",
"35 379 OFFCURVE",
"35 240 CURVE SMOOTH",
"35 99 OFFCURVE",
"139 -9 OFFCURVE",
"277 -9 CURVE SMOOTH",
"337 -9 OFFCURVE",
"386 11 OFFCURVE",
"425 35 CURVE",
"425 125 LINE",
"389 86 OFFCURVE",
"342 60 OFFCURVE",
"286 60 CURVE SMOOTH",
"191 60 OFFCURVE",
"118 146 OFFCURVE",
"118 246 CURVE SMOOTH",
"118 347 OFFCURVE",
"187 423 OFFCURVE",
"283 423 CURVE SMOOTH",
"336 423 OFFCURVE",
"383 399 OFFCURVE",
"420 359 CURVE"
);
}
);
width = 451;
}
);
unicode = 0109;
},
{
glyphname = Cdotaccent;
layers = (
{
hints = (
{
horizontal = 1;
place = "{-14, 77}";
type = Stem;
},
{
horizontal = 1;
place = "{643, 76}";
type = Stem;
},
{
horizontal = 1;
place = "{784, 120}";
type = Stem;
},
{
place = "{38, 87}";
type = Stem;
},
{
place = "{331, 121}";
type = Stem;
}
);
layerId = "89E2520C-A138-4547-B47C-84DD62C3AEAF";
paths = (
{
closed = 1;
nodes = (
"331 812 OFFCURVE",
"359 784 OFFCURVE",
"391 784 CURVE SMOOTH",
"426 784 OFFCURVE",
"452 812 OFFCURVE",
"452 843 CURVE SMOOTH",
"452 879 OFFCURVE",
"426 904 OFFCURVE",
"391 904 CURVE SMOOTH",
"359 904 OFFCURVE",
"331 879 OFFCURVE",
"331 843 CURVE SMOOTH"
);
},
{
closed = 1;
nodes = (
"634 175 LINE",
"567 116 OFFCURVE",
"499 63 OFFCURVE",
"397 63 CURVE SMOOTH",
"237 63 OFFCURVE",
"125 192 OFFCURVE",
"125 352 CURVE SMOOTH",
"125 512 OFFCURVE",
"237 643 OFFCURVE",
"397 643 CURVE SMOOTH",
"506 643 OFFCURVE",
"569 604 OFFCURVE",
"620 547 CURVE",
"620 643 LINE",
"563 687 OFFCURVE",
"497 719 OFFCURVE",
"402 719 CURVE SMOOTH",
"192 719 OFFCURVE",
"38 558 OFFCURVE",
"38 351 CURVE SMOOTH",
"38 144 OFFCURVE",
"194 -14 OFFCURVE",
"399 -14 CURVE SMOOTH",
"499 -14 OFFCURVE",
"570 23 OFFCURVE",
"634 78 CURVE"
);
}
);
width = 631;
}
);
unicode = 010A;
},
{
glyphname = cdotaccent;
layers = (
{
hints = (
{
horizontal = 1;
place = "{-9, 69}";
type = Stem;
},
{
horizontal = 1;
place = "{423, 69}";
type = Stem;
},
{
horizontal = 1;
place = "{619, 120}";
type = Stem;
},
{
place = "{32, 83}";
type = Stem;
},
{
place = "{202, 121}";
type = Stem;
}
);
layerId = "89E2520C-A138-4547-B47C-84DD62C3AEAF";
paths = (
{
closed = 1;
nodes = (
"202 647 OFFCURVE",
"230 619 OFFCURVE",
"262 619 CURVE SMOOTH",
"297 619 OFFCURVE",
"323 647 OFFCURVE",
"323 678 CURVE SMOOTH",
"323 714 OFFCURVE",
"297 739 OFFCURVE",
"262 739 CURVE SMOOTH",
"230 739 OFFCURVE",
"202 714 OFFCURVE",
"202 678 CURVE SMOOTH"
);
},
{
closed = 1;
nodes = (
"417 452 LINE",
"381 479 OFFCURVE",
"329 492 OFFCURVE",
"281 492 CURVE SMOOTH",
"132 492 OFFCURVE",
"32 379 OFFCURVE",
"32 240 CURVE SMOOTH",
"32 99 OFFCURVE",
"136 -9 OFFCURVE",
"274 -9 CURVE SMOOTH",
"334 -9 OFFCURVE",
"383 11 OFFCURVE",
"422 35 CURVE",
"422 125 LINE",
"386 86 OFFCURVE",
"339 60 OFFCURVE",
"283 60 CURVE SMOOTH",
"188 60 OFFCURVE",
"115 146 OFFCURVE",
"115 246 CURVE SMOOTH",
"115 347 OFFCURVE",
"184 423 OFFCURVE",
"280 423 CURVE SMOOTH",
"333 423 OFFCURVE",
"380 399 OFFCURVE",
"417 359 CURVE"
);
}
);
width = 441;
}
);
unicode = 010B;
},
{
glyphname = Ccaron;
layers = (
{
hints = (
{
horizontal = 1;
place = "{-14, 77}";
type = Stem;
},
{
horizontal = 1;
place = "{643, 76}";
type = Stem;
},
{
horizontal = 1;
place = "{771, 143}";
type = Stem;
},
{
place = "{51, 87}";
type = Stem;
}
);
layerId = "89E2520C-A138-4547-B47C-84DD62C3AEAF";
paths = (
{
closed = 1;
nodes = (
"499 914 LINE",
"421 828 LINE",
"344 914 LINE",
"272 914 LINE",
"384 771 LINE",
"459 771 LINE",
"570 914 LINE"
);
},
{
closed = 1;
nodes = (
"647 175 LINE",
"580 116 OFFCURVE",
"512 63 OFFCURVE",
"410 63 CURVE SMOOTH",
"250 63 OFFCURVE",
"138 192 OFFCURVE",
"138 352 CURVE SMOOTH",
"138 512 OFFCURVE",
"250 643 OFFCURVE",
"410 643 CURVE SMOOTH",
"519 643 OFFCURVE",
"582 604 OFFCURVE",
"633 547 CURVE",
"633 643 LINE",
"576 687 OFFCURVE",
"510 719 OFFCURVE",
"415 719 CURVE SMOOTH",
"205 719 OFFCURVE",
"51 558 OFFCURVE",
"51 351 CURVE SMOOTH",
"51 144 OFFCURVE",
"207 -14 OFFCURVE",
"412 -14 CURVE SMOOTH",
"512 -14 OFFCURVE",
"583 23 OFFCURVE",
"647 78 CURVE"
);
}
);
width = 706;
}
);
unicode = 010C;
},
{
glyphname = ccaron;
layers = (
{
hints = (
{
horizontal = 1;
place = "{-9, 69}";
type = Stem;
},
{
horizontal = 1;
place = "{423, 69}";
type = Stem;
},
{
horizontal = 1;
place = "{606, 143}";
type = Stem;
},
{
place = "{35, 83}";
type = Stem;
}
);
layerId = "89E2520C-A138-4547-B47C-84DD62C3AEAF";
paths = (
{
closed = 1;
nodes = (
"341 749 LINE",
"263 663 LINE",
"186 749 LINE",
"114 749 LINE",
"226 606 LINE",
"301 606 LINE",
"412 749 LINE"
);
},
{
closed = 1;
nodes = (
"420 452 LINE",
"384 479 OFFCURVE",
"332 492 OFFCURVE",
"284 492 CURVE SMOOTH",
"135 492 OFFCURVE",
"35 379 OFFCURVE",
"35 240 CURVE SMOOTH",
"35 99 OFFCURVE",
"139 -9 OFFCURVE",
"277 -9 CURVE SMOOTH",
"337 -9 OFFCURVE",
"386 11 OFFCURVE",
"425 35 CURVE",
"425 125 LINE",
"389 86 OFFCURVE",
"342 60 OFFCURVE",
"286 60 CURVE SMOOTH",
"191 60 OFFCURVE",
"118 146 OFFCURVE",
"118 246 CURVE SMOOTH",
"118 347 OFFCURVE",
"187 423 OFFCURVE",
"283 423 CURVE SMOOTH",
"336 423 OFFCURVE",
"383 399 OFFCURVE",
"420 359 CURVE"
);
}
);
width = 451;
}
);
unicode = 010D;
},
{
glyphname = Dcaron;
layers = (
{
hints = (
{
horizontal = 1;
place = "{0, 76}";
type = Stem;
},
{
horizontal = 1;
place = "{628, 77}";
type = Stem;
},
{
horizontal = 1;
place = "{771, 143}";
type = Stem;
},
{
place = "{80, 85}";
type = Stem;
},
{
place = "{587, 90}";
type = Stem;
}
);
layerId = "89E2520C-A138-4547-B47C-84DD62C3AEAF";
paths = (
{
closed = 1;
nodes = (
"405 914 LINE",
"327 828 LINE",
"250 914 LINE",
"178 914 LINE",
"290 771 LINE",
"365 771 LINE",
"476 914 LINE"
);
},
{
closed = 1;
nodes = (
"80 0 LINE",
"300 0 LINE SMOOTH",
"527 0 OFFCURVE",
"677 146 OFFCURVE",
"677 353 CURVE SMOOTH",
"677 566 OFFCURVE",
"515 705 OFFCURVE",
"301 705 CURVE SMOOTH",
"80 705 LINE"
);
},
{
closed = 1;
nodes = (
"165 628 LINE",
"344 628 LINE SMOOTH",
"502 628 OFFCURVE",
"587 482 OFFCURVE",
"587 351 CURVE SMOOTH",
"587 191 OFFCURVE",
"484 76 OFFCURVE",
"296 76 CURVE SMOOTH",
"165 76 LINE"
);
}
);
width = 729;
}
);
unicode = 010E;
},
{
glyphname = dcaron;
layers = (
{
hints = (
{
place = "{35, 83}";
type = Stem;
},
{
place = "{456, 82}";
type = Stem;
},
{
horizontal = 1;
place = "{-10, 70}";
type = Stem;
},
{
horizontal = 1;
place = "{1, 21}";
target = up;
type = BottomGhost;
},
{
horizontal = 1;
place = "{424, 70}";
type = Stem;
},
{
horizontal = 1;
place = "{592, 168}";
type = Stem;
}
);
layerId = "89E2520C-A138-4547-B47C-84DD62C3AEAF";
paths = (
{
closed = 1;
nodes = (
"684 760 LINE",
"601 760 LINE",
"572 592 LINE",
"636 592 LINE"
);
},
{
closed = 1;
nodes = (
"538 1 LINE",
"538 732 LINE",
"456 732 LINE",
"456 398 LINE",
"415 457 OFFCURVE",
"352 494 OFFCURVE",
"271 494 CURVE SMOOTH",
"143 494 OFFCURVE",
"35 394 OFFCURVE",
"35 241 CURVE SMOOTH",
"35 88 OFFCURVE",
"143 -10 OFFCURVE",
"274 -10 CURVE SMOOTH",
"353 -10 OFFCURVE",
"402 24 OFFCURVE",
"446 77 CURVE"
);
},
{
closed = 1;
nodes = (
"118 351 OFFCURVE",
"192 424 OFFCURVE",
"284 424 CURVE SMOOTH",
"376 424 OFFCURVE",
"459 347 OFFCURVE",
"459 242 CURVE SMOOTH",
"459 137 OFFCURVE",
"379 60 OFFCURVE",
"284 60 CURVE SMOOTH",
"189 60 OFFCURVE",
"118 135 OFFCURVE",
"118 242 CURVE SMOOTH"
);
}
);
width = 598;
}
);
unicode = 010F;
},
{
glyphname = Dcroat;
layers = (
{
hints = (
{
horizontal = 1;
place = "{0, 76}";
type = Stem;
},
{
horizontal = 1;
place = "{319, 77}";
type = Stem;
},
{
horizontal = 1;
place = "{628, 77}";
type = Stem;
},
{
place = "{112, 85}";
type = Stem;
},
{
place = "{619, 90}";
type = Stem;
}
);
layerId = "89E2520C-A138-4547-B47C-84DD62C3AEAF";
paths = (
{
closed = 1;
nodes = (
"112 0 LINE",
"332 0 LINE SMOOTH",
"559 0 OFFCURVE",
"709 146 OFFCURVE",
"709 353 CURVE SMOOTH",
"709 566 OFFCURVE",
"547 705 OFFCURVE",
"333 705 CURVE SMOOTH",
"112 705 LINE",
"112 396 LINE",
"16 396 LINE",
"16 319 LINE",
"112 319 LINE"
);
},
{
closed = 1;
nodes = (
"197 628 LINE",
"376 628 LINE SMOOTH",
"534 628 OFFCURVE",
"619 482 OFFCURVE",
"619 351 CURVE SMOOTH",
"619 191 OFFCURVE",
"516 76 OFFCURVE",
"328 76 CURVE SMOOTH",
"197 76 LINE",
"197 319 LINE",
"287 319 LINE",
"287 396 LINE",
"197 396 LINE"
);
}
);
width = 761;
}
);
unicode = 0110;
},
{
glyphname = dcroat;
layers = (
{
hints = (
{
place = "{35, 83}";
type = Stem;
},
{
place = "{456, 82}";
type = Stem;
},
{
horizontal = 1;
place = "{-10, 70}";
type = Stem;
},
{
horizontal = 1;
place = "{1, 21}";
target = up;
type = BottomGhost;
},
{
horizontal = 1;
place = "{424, 70}";
type = Stem;
},
{
horizontal = 1;
place = "{584, 77}";
type = Stem;
}
);
layerId = "89E2520C-A138-4547-B47C-84DD62C3AEAF";
paths = (
{
closed = 1;
nodes = (
"538 1 LINE",
"538 584 LINE",
"588 584 LINE",
"588 661 LINE",
"538 661 LINE",
"538 732 LINE",
"456 732 LINE",
"456 661 LINE",
"317 661 LINE",
"317 584 LINE",
"456 584 LINE",
"456 398 LINE",
"415 457 OFFCURVE",
"352 494 OFFCURVE",
"271 494 CURVE SMOOTH",
"143 494 OFFCURVE",
"35 394 OFFCURVE",
"35 241 CURVE SMOOTH",
"35 88 OFFCURVE",
"143 -10 OFFCURVE",
"274 -10 CURVE SMOOTH",
"353 -10 OFFCURVE",
"402 24 OFFCURVE",
"446 77 CURVE"
);
},
{
closed = 1;
nodes = (
"118 351 OFFCURVE",
"192 424 OFFCURVE",
"284 424 CURVE SMOOTH",
"376 424 OFFCURVE",
"459 347 OFFCURVE",
"459 242 CURVE SMOOTH",
"459 137 OFFCURVE",
"379 60 OFFCURVE",
"284 60 CURVE SMOOTH",
"189 60 OFFCURVE",
"118 135 OFFCURVE",
"118 242 CURVE SMOOTH"
);
}
);
width = 583;
}
);
unicode = 0111;
},
{
glyphname = Emacron;
layers = (
{
hints = (
{
horizontal = 1;
place = "{0, 76}";
type = Stem;
},
{
horizontal = 1;
place = "{321, 76}";
type = Stem;
},
{
horizontal = 1;
place = "{629, 76}";
type = Stem;
},
{
horizontal = 1;
place = "{776, 57}";
type = Stem;
},
{
place = "{80, 86}";
type = Stem;
}
);
layerId = "89E2520C-A138-4547-B47C-84DD62C3AEAF";
paths = (
{
closed = 1;
nodes = (
"473 833 LINE",
"172 833 LINE",
"172 776 LINE",
"473 776 LINE"
);
},
{
closed = 1;
nodes = (
"166 321 LINE",
"511 321 LINE",
"511 397 LINE",
"166 397 LINE",
"166 629 LINE",
"540 629 LINE",
"540 705 LINE",
"80 705 LINE",
"80 0 LINE",
"551 0 LINE",
"551 76 LINE",
"166 76 LINE"
);
}
);
width = 618;
}
);
unicode = 0112;
},
{
glyphname = emacron;
layers = (
{
hints = (
{
horizontal = 1;
place = "{-11, 70}";
type = Stem;
},
{
horizontal = 1;
place = "{425, 70}";
type = Stem;
},
{
horizontal = 1;
place = "{611, 57}";
type = Stem;
},
{
place = "{35, 80}";
type = Stem;
}
);
layerId = "89E2520C-A138-4547-B47C-84DD62C3AEAF";
paths = (
{
closed = 1;
nodes = (
"414 668 LINE",
"113 668 LINE",
"113 611 LINE",
"414 611 LINE"
);
},
{
closed = 1;
nodes = (
"202 59 OFFCURVE",
"147 107 OFFCURVE",
"124 175 CURVE",
"499 266 LINE",
"483 390 OFFCURVE",
"404 495 OFFCURVE",
"266 495 CURVE SMOOTH",
"126 495 OFFCURVE",
"35 382 OFFCURVE",
"35 239 CURVE SMOOTH",
"35 92 OFFCURVE",
"142 -11 OFFCURVE",
"285 -11 CURVE SMOOTH",
"356 -11 OFFCURVE",
"415 12 OFFCURVE",
"455 44 CURVE",
"455 132 LINE",
"418 95 OFFCURVE",
"365 59 OFFCURVE",
"290 59 CURVE SMOOTH"
);
},
{
closed = 1;
nodes = (
"115 247 LINE",
"115 338 OFFCURVE",
"169 425 OFFCURVE",
"269 425 CURVE SMOOTH",
"345 425 OFFCURVE",
"399 377 OFFCURVE",
"416 316 CURVE",
"119 240 LINE"
);
}
);
width = 533;
}
);
unicode = 0113;
},
{
glyphname = Ebreve;
layers = (
{
hints = (
{
horizontal = 1;
place = "{0, 76}";
type = Stem;
},
{
horizontal = 1;
place = "{321, 76}";
type = Stem;
},
{
horizontal = 1;
place = "{629, 76}";
type = Stem;
},
{
horizontal = 1;
place = "{767, 66}";
type = Stem;
},
{
place = "{80, 86}";
type = Stem;
}
);
layerId = "89E2520C-A138-4547-B47C-84DD62C3AEAF";
paths = (
{
closed = 1;
nodes = (
"426 906 LINE",
"414 859 OFFCURVE",
"380 833 OFFCURVE",
"332 833 CURVE SMOOTH",
"283 833 OFFCURVE",
"247 859 OFFCURVE",
"235 906 CURVE",
"181 906 LINE",
"192 822 OFFCURVE",
"246 767 OFFCURVE",
"329 767 CURVE SMOOTH",
"412 767 OFFCURVE",
"472 822 OFFCURVE",
"480 906 CURVE"
);
},
{
closed = 1;
nodes = (
"166 321 LINE",
"511 321 LINE",
"511 397 LINE",
"166 397 LINE",
"166 629 LINE",
"540 629 LINE",
"540 705 LINE",
"80 705 LINE",
"80 0 LINE",
"551 0 LINE",
"551 76 LINE",
"166 76 LINE"
);
}
);
width = 618;
}
);
unicode = 0114;
},
{
glyphname = ebreve;
layers = (
{
hints = (
{
horizontal = 1;
place = "{-11, 70}";
type = Stem;
},
{
horizontal = 1;
place = "{425, 70}";
type = Stem;
},
{
horizontal = 1;
place = "{602, 66}";
type = Stem;
},
{
place = "{35, 80}";
type = Stem;
}
);
layerId = "89E2520C-A138-4547-B47C-84DD62C3AEAF";
paths = (
{
closed = 1;
nodes = (
"371 741 LINE",
"359 694 OFFCURVE",
"325 668 OFFCURVE",
"277 668 CURVE SMOOTH",
"228 668 OFFCURVE",
"192 694 OFFCURVE",
"180 741 CURVE",
"126 741 LINE",
"137 657 OFFCURVE",
"191 602 OFFCURVE",
"274 602 CURVE SMOOTH",
"357 602 OFFCURVE",
"417 657 OFFCURVE",
"425 741 CURVE"
);
},
{
closed = 1;
nodes = (
"202 59 OFFCURVE",
"147 107 OFFCURVE",
"124 175 CURVE",
"499 266 LINE",
"483 390 OFFCURVE",
"404 495 OFFCURVE",
"266 495 CURVE SMOOTH",
"126 495 OFFCURVE",
"35 382 OFFCURVE",
"35 239 CURVE SMOOTH",
"35 92 OFFCURVE",
"142 -11 OFFCURVE",
"285 -11 CURVE SMOOTH",
"356 -11 OFFCURVE",
"415 12 OFFCURVE",
"455 44 CURVE",
"455 132 LINE",
"418 95 OFFCURVE",
"365 59 OFFCURVE",
"290 59 CURVE SMOOTH"
);
},
{
closed = 1;
nodes = (
"115 247 LINE",
"115 338 OFFCURVE",
"169 425 OFFCURVE",
"269 425 CURVE SMOOTH",
"345 425 OFFCURVE",
"399 377 OFFCURVE",
"416 316 CURVE",
"119 240 LINE"
);
}
);
width = 533;
}
);
unicode = 0115;
},
{
glyphname = Edotaccent;
layers = (
{
hints = (
{
horizontal = 1;
place = "{0, 76}";
type = Stem;
},
{
horizontal = 1;
place = "{321, 76}";
type = Stem;
},
{
horizontal = 1;
place = "{629, 76}";
type = Stem;
},
{
horizontal = 1;
place = "{784, 120}";
type = Stem;
},
{
place = "{80, 86}";
type = Stem;
},
{
place = "{266, 121}";
type = Stem;
}
);
layerId = "89E2520C-A138-4547-B47C-84DD62C3AEAF";
paths = (
{
closed = 1;
nodes = (
"266 812 OFFCURVE",
"294 784 OFFCURVE",
"326 784 CURVE SMOOTH",
"361 784 OFFCURVE",
"387 812 OFFCURVE",
"387 843 CURVE SMOOTH",
"387 879 OFFCURVE",
"361 904 OFFCURVE",
"326 904 CURVE SMOOTH",
"294 904 OFFCURVE",
"266 879 OFFCURVE",
"266 843 CURVE SMOOTH"
);
},
{
closed = 1;
nodes = (
"166 321 LINE",
"511 321 LINE",
"511 397 LINE",
"166 397 LINE",
"166 629 LINE",
"540 629 LINE",
"540 705 LINE",
"80 705 LINE",
"80 0 LINE",
"551 0 LINE",
"551 76 LINE",
"166 76 LINE"
);
}
);
width = 618;
}
);
unicode = 0116;
},
{
glyphname = edotaccent;
layers = (
{
hints = (
{
horizontal = 1;
place = "{-11, 70}";
type = Stem;
},
{
horizontal = 1;
place = "{425, 70}";
type = Stem;
},
{
horizontal = 1;
place = "{619, 120}";
type = Stem;
},
{
place = "{35, 80}";
type = Stem;
},
{
place = "{202, 121}";
type = Stem;
}
);
layerId = "89E2520C-A138-4547-B47C-84DD62C3AEAF";
paths = (
{
closed = 1;
nodes = (
"202 647 OFFCURVE",
"230 619 OFFCURVE",
"262 619 CURVE SMOOTH",
"297 619 OFFCURVE",
"323 647 OFFCURVE",
"323 678 CURVE SMOOTH",
"323 714 OFFCURVE",
"297 739 OFFCURVE",
"262 739 CURVE SMOOTH",
"230 739 OFFCURVE",
"202 714 OFFCURVE",
"202 678 CURVE SMOOTH"
);
},
{
closed = 1;
nodes = (
"202 59 OFFCURVE",
"147 107 OFFCURVE",
"124 175 CURVE",
"499 266 LINE",
"483 390 OFFCURVE",
"404 495 OFFCURVE",
"266 495 CURVE SMOOTH",
"126 495 OFFCURVE",
"35 382 OFFCURVE",
"35 239 CURVE SMOOTH",
"35 92 OFFCURVE",
"142 -11 OFFCURVE",
"285 -11 CURVE SMOOTH",
"356 -11 OFFCURVE",
"415 12 OFFCURVE",
"455 44 CURVE",
"455 132 LINE",
"418 95 OFFCURVE",
"365 59 OFFCURVE",
"290 59 CURVE SMOOTH"
);
},
{
closed = 1;
nodes = (
"115 247 LINE",
"115 338 OFFCURVE",
"169 425 OFFCURVE",
"269 425 CURVE SMOOTH",
"345 425 OFFCURVE",
"399 377 OFFCURVE",
"416 316 CURVE",
"119 240 LINE"
);
}
);
width = 533;
}
);
unicode = 0117;
},
{
glyphname = Eogonek;
layers = (
{
hints = (
{
horizontal = 1;
place = "{-197, 50}";
type = Stem;
},
{
horizontal = 1;
place = "{0, 76}";
type = Stem;
},
{
horizontal = 1;
place = "{321, 76}";
type = Stem;
},
{
horizontal = 1;
place = "{629, 76}";
type = Stem;
},
{
place = "{80, 86}";
type = Stem;
},
{
place = "{442, 68}";
type = Stem;
}
);
layerId = "89E2520C-A138-4547-B47C-84DD62C3AEAF";
paths = (
{
closed = 1;
nodes = (
"166 321 LINE",
"511 321 LINE",
"511 397 LINE",
"166 397 LINE",
"166 629 LINE",
"540 629 LINE",
"540 705 LINE",
"80 705 LINE",
"80 0 LINE",
"491 0 LINE",
"468 -29 OFFCURVE",
"442 -65 OFFCURVE",
"442 -104 CURVE SMOOTH",
"442 -164 OFFCURVE",
"490 -197 OFFCURVE",
"554 -197 CURVE SMOOTH",
"575 -197 OFFCURVE",
"597 -193 OFFCURVE",
"622 -182 CURVE",
"612 -139 LINE",
"593 -144 OFFCURVE",
"581 -147 OFFCURVE",
"568 -147 CURVE SMOOTH",
"533 -147 OFFCURVE",
"510 -124 OFFCURVE",
"510 -92 CURVE SMOOTH",
"510 -60 OFFCURVE",
"527 -38 OFFCURVE",
"551 0 CURVE",
"551 76 LINE",
"166 76 LINE"
);
}
);
width = 689;
}
);
unicode = 0118;
},
{
glyphname = eogonek;
layers = (
{
hints = (
{
horizontal = 1;
place = "{-196, 50}";
type = Stem;
},
{
horizontal = 1;
place = "{-11, 70}";
type = Stem;
},
{
horizontal = 1;
place = "{425, 70}";
type = Stem;
},
{
place = "{35, 80}";
type = Stem;
},
{
place = "{288, 68}";
type = Stem;
}
);
layerId = "89E2520C-A138-4547-B47C-84DD62C3AEAF";
paths = (
{
closed = 1;
nodes = (
"458 -138 LINE",
"439 -143 OFFCURVE",
"427 -146 OFFCURVE",
"414 -146 CURVE SMOOTH",
"379 -146 OFFCURVE",
"356 -123 OFFCURVE",
"356 -91 CURVE SMOOTH",
"356 -61 OFFCURVE",
"374 -24 OFFCURVE",
"444 36 CURVE",
"448 39 OFFCURVE",
"452 41 OFFCURVE",
"455 44 CURVE",
"455 132 LINE",
"418 95 OFFCURVE",
"365 59 OFFCURVE",
"290 59 CURVE SMOOTH",
"202 59 OFFCURVE",
"147 107 OFFCURVE",
"124 175 CURVE",
"499 266 LINE",
"483 390 OFFCURVE",
"404 495 OFFCURVE",
"266 495 CURVE SMOOTH",
"126 495 OFFCURVE",
"35 382 OFFCURVE",
"35 239 CURVE SMOOTH",
"35 92 OFFCURVE",
"142 -11 OFFCURVE",
"285 -11 CURVE SMOOTH",
"300 -11 OFFCURVE",
"314 -10 OFFCURVE",
"328 -8 CURVE",
"305 -33 OFFCURVE",
"288 -67 OFFCURVE",
"288 -103 CURVE SMOOTH",
"288 -163 OFFCURVE",
"336 -196 OFFCURVE",
"400 -196 CURVE SMOOTH",
"421 -196 OFFCURVE",
"443 -192 OFFCURVE",
"468 -181 CURVE"
);
},
{
closed = 1;
nodes = (
"115 247 LINE",
"115 338 OFFCURVE",
"169 425 OFFCURVE",
"269 425 CURVE SMOOTH",
"345 425 OFFCURVE",
"399 377 OFFCURVE",
"416 316 CURVE",
"119 240 LINE"
);
}
);
width = 533;
}
);
unicode = 0119;
},
{
glyphname = Ecaron;
layers = (
{
hints = (
{
horizontal = 1;
place = "{0, 76}";
type = Stem;
},
{
horizontal = 1;
place = "{321, 76}";
type = Stem;
},
{
horizontal = 1;
place = "{629, 76}";
type = Stem;
},
{
horizontal = 1;
place = "{771, 143}";
type = Stem;
},
{
place = "{80, 86}";
type = Stem;
}
);
layerId = "89E2520C-A138-4547-B47C-84DD62C3AEAF";
paths = (
{
closed = 1;
nodes = (
"400 914 LINE",
"322 828 LINE",
"245 914 LINE",
"173 914 LINE",
"285 771 LINE",
"360 771 LINE",
"471 914 LINE"
);
},
{
closed = 1;
nodes = (
"166 321 LINE",
"511 321 LINE",
"511 397 LINE",
"166 397 LINE",
"166 629 LINE",
"540 629 LINE",
"540 705 LINE",
"80 705 LINE",
"80 0 LINE",
"551 0 LINE",
"551 76 LINE",
"166 76 LINE"
);
}
);
width = 618;
}
);
unicode = 011A;
},
{
glyphname = ecaron;
layers = (
{
hints = (
{
horizontal = 1;
place = "{-11, 70}";
type = Stem;
},
{
horizontal = 1;
place = "{425, 70}";
type = Stem;
},
{
place = "{35, 80}";
type = Stem;
}
);
layerId = "89E2520C-A138-4547-B47C-84DD62C3AEAF";
paths = (
{
closed = 1;
nodes = (
"202 59 OFFCURVE",
"147 107 OFFCURVE",
"124 175 CURVE",
"499 266 LINE",
"483 390 OFFCURVE",
"404 495 OFFCURVE",
"266 495 CURVE SMOOTH",
"126 495 OFFCURVE",
"35 382 OFFCURVE",
"35 239 CURVE SMOOTH",
"35 92 OFFCURVE",
"142 -11 OFFCURVE",
"285 -11 CURVE SMOOTH",
"356 -11 OFFCURVE",
"415 12 OFFCURVE",
"455 44 CURVE",
"455 132 LINE",
"418 95 OFFCURVE",
"365 59 OFFCURVE",
"290 59 CURVE SMOOTH"
);
},
{
closed = 1;
nodes = (
"115 247 LINE",
"115 338 OFFCURVE",
"169 425 OFFCURVE",
"269 425 CURVE SMOOTH",
"345 425 OFFCURVE",
"399 377 OFFCURVE",
"416 316 CURVE",
"119 240 LINE"
);
}
);
width = 533;
}
);
unicode = 011B;
},
{
glyphname = Gcircumflex;
layers = (
{
hints = (
{
horizontal = 1;
place = "{-16, 78}";
type = Stem;
},
{
horizontal = 1;
place = "{321, 78}";
type = Stem;
},
{
horizontal = 1;
place = "{643, 76}";
type = Stem;
},
{
horizontal = 1;
place = "{790, 141}";
type = Stem;
},
{
place = "{51, 85}";
type = Stem;
},
{
place = "{489, 174}";
type = Stem;
},
{
place = "{700, 80}";
type = Stem;
}
);
layerId = "89E2520C-A138-4547-B47C-84DD62C3AEAF";
paths = (
{
closed = 1;
nodes = (
"478 931 LINE",
"405 931 LINE",
"298 790 LINE",
"364 790 LINE",
"440 872 LINE",
"518 790 LINE",
"584 790 LINE"
);
},
{
closed = 1;
nodes = (
"700 321 LINE",
"700 165 OFFCURVE",
"581 62 OFFCURVE",
"425 62 CURVE SMOOTH",
"260 62 OFFCURVE",
"136 187 OFFCURVE",
"136 352 CURVE SMOOTH",
"136 510 OFFCURVE",
"276 643 OFFCURVE",
"439 643 CURVE SMOOTH",
"536 643 OFFCURVE",
"612 604 OFFCURVE",
"663 553 CURVE",
"663 647 LINE",
"591 699 OFFCURVE",
"512 719 OFFCURVE",
"433 719 CURVE SMOOTH",
"222 719 OFFCURVE",
"51 557 OFFCURVE",
"51 352 CURVE SMOOTH",
"51 149 OFFCURVE",
"206 -16 OFFCURVE",
"419 -16 CURVE SMOOTH",
"667 -16 OFFCURVE",
"780 163 OFFCURVE",
"780 373 CURVE SMOOTH",
"780 399 LINE",
"489 399 LINE",
"489 321 LINE"
);
}
);
width = 831;
}
);
unicode = 011C;
},
{
glyphname = gcircumflex;
layers = (
{
hints = (
{
horizontal = 1;
place = "{-194, 70}";
type = Stem;
},
{
horizontal = 1;
place = "{19, 70}";
type = Stem;
},
{
horizontal = 1;
place = "{424, 70}";
type = Stem;
},
{
horizontal = 1;
place = "{625, 141}";
type = Stem;
},
{
place = "{39, 84}";
type = Stem;
},
{
place = "{461, 81}";
type = Stem;
}
);
layerId = "89E2520C-A138-4547-B47C-84DD62C3AEAF";
paths = (
{
closed = 1;
nodes = (
"324 766 LINE",
"251 766 LINE",
"144 625 LINE",
"210 625 LINE",
"286 707 LINE",
"364 625 LINE",
"430 625 LINE"
);
},
{
closed = 1;
nodes = (
"199 -124 OFFCURVE",
"136 -102 OFFCURVE",
"80 -57 CURVE",
"80 -147 LINE",
"128 -174 OFFCURVE",
"196 -194 OFFCURVE",
"274 -194 CURVE SMOOTH",
"432 -194 OFFCURVE",
"542 -108 OFFCURVE",
"542 56 CURVE SMOOTH",
"542 482 LINE",
"450 412 LINE",
"409 461 OFFCURVE",
"354 494 OFFCURVE",
"274 494 CURVE SMOOTH",
"146 494 OFFCURVE",
"39 397 OFFCURVE",
"39 253 CURVE SMOOTH",
"39 117 OFFCURVE",
"141 19 OFFCURVE",
"274 19 CURVE SMOOTH",
"355 19 OFFCURVE",
"414 56 OFFCURVE",
"461 115 CURVE",
"461 55 LINE SMOOTH",
"461 -73 OFFCURVE",
"395 -124 OFFCURVE",
"274 -124 CURVE SMOOTH"
);
},
{
closed = 1;
nodes = (
"123 357 OFFCURVE",
"193 424 OFFCURVE",
"289 424 CURVE SMOOTH",
"385 424 OFFCURVE",
"461 354 OFFCURVE",
"461 255 CURVE SMOOTH",
"461 159 OFFCURVE",
"384 89 OFFCURVE",
"290 89 CURVE SMOOTH",
"194 89 OFFCURVE",
"123 159 OFFCURVE",
"123 258 CURVE SMOOTH"
);
}
);
width = 611;
}
);
unicode = 011D;
},
{
glyphname = Gbreve;
layers = (
{
hints = (
{
horizontal = 1;
place = "{-16, 78}";
type = Stem;
},
{
horizontal = 1;
place = "{321, 78}";
type = Stem;
},
{
horizontal = 1;
place = "{643, 76}";
type = Stem;
},
{
horizontal = 1;
place = "{767, 66}";
type = Stem;
},
{
place = "{51, 85}";
type = Stem;
},
{
place = "{489, 174}";
type = Stem;
},
{
place = "{700, 80}";
type = Stem;
}
);
layerId = "89E2520C-A138-4547-B47C-84DD62C3AEAF";
paths = (
{
closed = 1;
nodes = (
"536 906 LINE",
"524 859 OFFCURVE",
"490 833 OFFCURVE",
"442 833 CURVE SMOOTH",
"393 833 OFFCURVE",
"357 859 OFFCURVE",
"345 906 CURVE",
"291 906 LINE",
"302 822 OFFCURVE",
"356 767 OFFCURVE",
"439 767 CURVE SMOOTH",
"522 767 OFFCURVE",
"582 822 OFFCURVE",
"590 906 CURVE"
);
},
{
closed = 1;
nodes = (
"700 321 LINE",
"700 165 OFFCURVE",
"581 62 OFFCURVE",
"425 62 CURVE SMOOTH",
"260 62 OFFCURVE",
"136 187 OFFCURVE",
"136 352 CURVE SMOOTH",
"136 510 OFFCURVE",
"276 643 OFFCURVE",
"439 643 CURVE SMOOTH",
"536 643 OFFCURVE",
"612 604 OFFCURVE",
"663 553 CURVE",
"663 647 LINE",
"591 699 OFFCURVE",
"512 719 OFFCURVE",
"433 719 CURVE SMOOTH",
"222 719 OFFCURVE",
"51 557 OFFCURVE",
"51 352 CURVE SMOOTH",
"51 149 OFFCURVE",
"206 -16 OFFCURVE",
"419 -16 CURVE SMOOTH",
"667 -16 OFFCURVE",
"780 163 OFFCURVE",
"780 373 CURVE SMOOTH",
"780 399 LINE",
"489 399 LINE",
"489 321 LINE"
);
}
);
width = 831;
}
);
unicode = 011E;
},
{
glyphname = gbreve;
layers = (
{
hints = (
{
horizontal = 1;
place = "{-194, 70}";
type = Stem;
},
{
horizontal = 1;
place = "{19, 70}";
type = Stem;
},
{
horizontal = 1;
place = "{424, 70}";
type = Stem;
},
{
horizontal = 1;
place = "{602, 66}";
type = Stem;
},
{
place = "{39, 84}";
type = Stem;
},
{
place = "{461, 81}";
type = Stem;
}
);
layerId = "89E2520C-A138-4547-B47C-84DD62C3AEAF";
paths = (
{
closed = 1;
nodes = (
"403 741 LINE",
"391 694 OFFCURVE",
"357 668 OFFCURVE",
"309 668 CURVE SMOOTH",
"260 668 OFFCURVE",
"224 694 OFFCURVE",
"212 741 CURVE",
"158 741 LINE",
"169 657 OFFCURVE",
"223 602 OFFCURVE",
"306 602 CURVE SMOOTH",
"389 602 OFFCURVE",
"449 657 OFFCURVE",
"457 741 CURVE"
);
},
{
closed = 1;
nodes = (
"199 -124 OFFCURVE",
"136 -102 OFFCURVE",
"80 -57 CURVE",
"80 -147 LINE",
"128 -174 OFFCURVE",
"196 -194 OFFCURVE",
"274 -194 CURVE SMOOTH",
"432 -194 OFFCURVE",
"542 -108 OFFCURVE",
"542 56 CURVE SMOOTH",
"542 482 LINE",
"450 412 LINE",
"409 461 OFFCURVE",
"354 494 OFFCURVE",
"274 494 CURVE SMOOTH",
"146 494 OFFCURVE",
"39 397 OFFCURVE",
"39 253 CURVE SMOOTH",
"39 117 OFFCURVE",
"141 19 OFFCURVE",
"274 19 CURVE SMOOTH",
"355 19 OFFCURVE",
"414 56 OFFCURVE",
"461 115 CURVE",
"461 55 LINE SMOOTH",
"461 -73 OFFCURVE",
"395 -124 OFFCURVE",
"274 -124 CURVE SMOOTH"
);
},
{
closed = 1;
nodes = (
"123 357 OFFCURVE",
"193 424 OFFCURVE",
"289 424 CURVE SMOOTH",
"385 424 OFFCURVE",
"461 354 OFFCURVE",
"461 255 CURVE SMOOTH",
"461 159 OFFCURVE",
"384 89 OFFCURVE",
"290 89 CURVE SMOOTH",
"194 89 OFFCURVE",
"123 159 OFFCURVE",
"123 258 CURVE SMOOTH"
);
}
);
width = 611;
}
);
unicode = 011F;
},
{
glyphname = Gdotaccent;
layers = (
{
hints = (
{
place = "{38, 85}";
type = Stem;
},
{
place = "{357, 121}";
type = Stem;
},
{
place = "{476, 174}";
type = Stem;
},
{
place = "{687, 80}";
type = Stem;
},
{
horizontal = 1;
place = "{-16, 78}";
type = Stem;
},
{
horizontal = 1;
place = "{321, 78}";
type = Stem;
},
{
horizontal = 1;
place = "{643, 76}";
type = Stem;
},
{
horizontal = 1;
place = "{784, 120}";
type = Stem;
}
);
layerId = "89E2520C-A138-4547-B47C-84DD62C3AEAF";
paths = (
{
closed = 1;
nodes = (
"357 812 OFFCURVE",
"385 784 OFFCURVE",
"417 784 CURVE SMOOTH",
"452 784 OFFCURVE",
"478 812 OFFCURVE",
"478 843 CURVE SMOOTH",
"478 879 OFFCURVE",
"452 904 OFFCURVE",
"417 904 CURVE SMOOTH",
"385 904 OFFCURVE",
"357 879 OFFCURVE",
"357 843 CURVE SMOOTH"
);
},
{
closed = 1;
nodes = (
"687 321 LINE",
"687 165 OFFCURVE",
"568 62 OFFCURVE",
"412 62 CURVE SMOOTH",
"247 62 OFFCURVE",
"123 187 OFFCURVE",
"123 352 CURVE SMOOTH",
"123 510 OFFCURVE",
"263 643 OFFCURVE",
"426 643 CURVE SMOOTH",
"523 643 OFFCURVE",
"599 604 OFFCURVE",
"650 553 CURVE",
"650 647 LINE",
"578 699 OFFCURVE",
"499 719 OFFCURVE",
"420 719 CURVE SMOOTH",
"209 719 OFFCURVE",
"38 557 OFFCURVE",
"38 352 CURVE SMOOTH",
"38 149 OFFCURVE",
"193 -16 OFFCURVE",
"406 -16 CURVE SMOOTH",
"654 -16 OFFCURVE",
"767 163 OFFCURVE",
"767 373 CURVE SMOOTH",
"767 399 LINE",
"476 399 LINE",
"476 321 LINE"
);
}
);
width = 728;
}
);
unicode = 0120;
},
